# Alias OBJ Model File
# Exported from SketchUp, (c) 2000-2012 Trimble Navigation Limited
# File units = meters

mtllib modularBuildings_003.mtl

g Mesh1 Group1 Model

usemtl Dark_brick
v 1 0.159375 -1
vt 39.3701 6.27461
vn 1 0 -0
v 1 0.2125 -0
vt 0 8.36614
v 1 0.159375 -0
vt 0 6.27461
f 1/1/1 2/2/1 3/3/1

v 1 0.2125 -1
vt 39.3701 8.36614
f 2/2/1 1/1/1 4/4/1

vt -39.3701 6.27461
vn 0 0 -1
v 0 0.2125 -1
vt -39.3701 8.36614
f 1/5/2 5/2/2 4/6/2

v 0 0.159375 -1
f 5/2/2 1/5/2 6/3/2

v 0.02 0.159375 -0.98
vt -0.787402 38.5827
vn 0 -1 -0
vt 0 39.3701
vt -39.3701 39.3701
f 7/7/3 6/8/3 1/9/3

v 0 0.159375 -0
vt 0 0
f 6/8/3 7/7/3 8/10/3

v 0.02 0.159375 -0.02
vt -0.787402 0.787402
f 9/11/3 8/10/3 7/7/3

vt -39.3701 0
f 8/10/3 9/11/3 3/12/3

v 0.98 0.159375 -0.02
vt -38.5827 0.787402
f 3/12/3 9/11/3 10/13/3

usemtl Brick
v 0.02 0.053125 -0.02
vt 0.787402 2.09154
vn 0 0 1
vt 38.5827 6.27461
vt 0.787402 6.27461
f 11/14/4 10/15/4 9/16/4

v 0.98 0.053125 -0.02
vt 38.5827 2.09154
f 10/15/4 11/14/4 12/17/4

usemtl FrontColor
vt 38.5827 0.787402
vn 0 1 -0
v 0.02 0.053125 -0.98
vt 0.787402 38.5827
vt 0.787402 0.787402
f 12/18/5 13/19/5 11/20/5

v 0.98 0.053125 -0.98
vt 38.5827 38.5827
f 13/19/5 12/18/5 14/21/5

usemtl Dark_brick
v 1 0.053125 -0
vt 39.3701 0
f 12/18/5 15/22/5 14/21/5

f 11/20/5 15/22/5 12/18/5

v 0 0.053125 -0
f 11/20/5 16/10/5 15/22/5

v 0 0.053125 -1
f 16/10/5 11/20/5 17/8/5

f 13/19/5 17/8/5 11/20/5

v 1 0.053125 -1
vt 39.3701 39.3701
f 17/8/5 13/19/5 18/23/5

f 18/23/5 13/19/5 14/21/5

usemtl Brick
vt -0.787402 6.27461
vt -38.5827 2.09154
vt -0.787402 2.09154
f 7/24/2 14/25/2 13/26/2

v 0.98 0.159375 -0.98
vt -38.5827 6.27461
f 14/25/2 7/24/2 19/27/2

usemtl Dark_brick
vt -38.5827 38.5827
f 7/7/3 1/9/3 19/28/3

f 19/28/3 1/9/3 10/13/3

f 3/12/3 10/13/3 1/9/3

usemtl FrontColor
f 7/19/5 10/18/5 19/21/5

f 10/18/5 7/19/5 9/20/5

usemtl Brick
vn -1 0 -0
f 7/27/6 11/26/6 9/24/6

f 11/26/6 7/27/6 13/25/6

f 10/16/1 14/17/1 19/15/1

f 14/17/1 10/16/1 12/14/1

usemtl Dark_brick
f 18/23/5 14/21/5 15/22/5

vt 0 2.09154
v 1 0 -1
vt 39.3701 2.09154
f 15/29/1 20/22/1 18/30/1

v 1 0 -0
f 20/22/1 15/29/1 21/10/1

v 0 0 -0
f 15/30/4 22/10/4 21/22/4

f 22/10/4 15/30/4 16/29/4

vt -39.3701 2.09154
f 17/31/6 22/10/6 16/29/6

v 0 0 -1
f 22/10/6 17/31/6 23/12/6

f 17/29/2 20/12/2 23/10/2

f 20/12/2 17/29/2 18/31/2

f 20/9/3 22/10/3 23/8/3

f 22/10/3 20/9/3 21/12/3

f 2/4/4 8/3/4 3/1/4

v 0 0.2125 -0
f 8/3/4 2/4/4 24/2/4

vt 39.3701 4.52971e-015
vn 5.41434e-016 1 5.41434e-016
vt -4.52971e-015 39.3701
vt -4.52971e-015 4.52971e-015
f 2/32/7 5/33/7 24/34/7

f 5/33/7 2/32/7 4/23/7

f 5/6/6 8/3/6 24/2/6

f 8/3/6 5/6/6 6/5/6

