# Alias OBJ Model File
# Exported from SketchUp, (c) 2000-2012 Trimble Navigation Limited
# File units = meters

mtllib modularBuildings_061.mtl

g Mesh1 Group1 Model

usemtl Brick
v 1 0.625 -0
vt 39.3701 24.6063
vn 0 0 1
v 0 0 -0
vt 0 0
v 1 0 -0
vt 39.3701 0
f 1/1/1 2/2/1 3/3/1

v 0 0.625 -0
vt 0 24.6063
f 2/2/1 1/1/1 4/4/1

vt 39.3701 -3.33067e-015
vn -1.35358e-016 1 -1.35358e-016
v 0 0.625 -1
vt 3.33067e-015 39.3701
vt 3.33067e-015 -3.33067e-015
f 1/5/2 5/6/2 4/7/2

v 1 0.625 -1
vt 39.3701 39.3701
f 5/6/2 1/5/2 6/8/2

vn 1 0 -0
v 1 0 -1
f 1/4/3 7/3/3 6/1/3

f 7/3/3 1/4/3 3/2/3

vn 0 -1 -0
vt -39.3701 39.3701
vt -39.3701 0
f 2/2/4 7/9/4 3/10/4

v 0 0 -1
vt 0 39.3701
f 7/9/4 2/2/4 8/11/4

vn -1 0 -0
v 0 0.12 -0.5625
vt -22.1457 4.72441
f 2/2/5 9/12/5 8/10/5

v 0 0.5 -0.5625
vt -22.1457 19.685
f 9/12/5 2/2/5 10/13/5

f 4/4/5 10/13/5 2/2/5

vt -39.3701 24.6063
f 10/13/5 4/4/5 5/14/5

v 0 0.5 -0.875
vt -34.4488 19.685
f 10/13/5 5/14/5 11/15/5

v 0 0.12 -0.875
vt -34.4488 4.72441
f 11/15/5 5/14/5 12/16/5

f 8/10/5 12/16/5 5/14/5

f 8/10/5 9/12/5 12/16/5

v 0.1 0.12 -0.5625
vt 3.93701 22.1457
vn 0 1 -0
vt 0 34.4488
vt 0 22.1457
f 13/17/6 12/18/6 9/19/6

v 0.1 0.12 -0.875
vt 3.93701 34.4488
f 12/18/6 13/17/6 14/20/6

usemtl Glass
v 0.1 0.5 -0.875
f 13/12/5 15/15/5 14/16/5

v 0.1 0.5 -0.5625
f 15/15/5 13/12/5 16/13/5

usemtl Brick
vt -3.93701 4.72441
vn 0 0 -1
vt 0 19.685
vt -3.93701 19.685
f 13/21/7 10/22/7 16/23/7

vt 0 4.72441
f 10/22/7 13/21/7 9/24/7

vt -3.93701 34.4488
vt -3.93701 22.1457
f 10/19/4 15/25/4 16/26/4

f 15/25/4 10/19/4 11/18/4

vt 3.93701 19.685
f 12/24/1 15/27/1 11/22/1

vt 3.93701 4.72441
f 15/27/1 12/24/1 14/28/1

f 5/4/7 7/10/7 8/2/7

f 7/10/7 5/4/7 6/14/7

