# Alias OBJ Model File
# Exported from SketchUp, (c) 2000-2012 Trimble Navigation Limited
# File units = meters

mtllib modularBuildings_039.mtl

g Mesh1 Group1 Model

usemtl Brick
v 0.360485 0.06 -0.139515
vt 13.9194 2.3622
vn 0.707107 0 0.707107
v 0.32513 0.1225 -0.104159
vt 11.9509 4.82283
v 0.32513 0.06 -0.104159
vt 11.9509 2.3622
f 1/1/1 2/2/1 3/3/1

v 0.360485 0.1225 -0.139515
vt 13.9194 4.82283
f 2/2/1 1/1/1 4/4/1

vt 6.15157 2.3622
vn -0.707107 3.98312e-016 0.707107
v 0.360485 0.5025 -0.139515
vt 6.15157 19.7835
vt 6.15157 4.82283
f 1/5/2 5/6/2 4/7/2

v 0.5 4.51195e-017 -0
vt 13.9194 7.32064e-015
f 1/5/2 6/8/2 5/6/2

v 0 5.86553e-016 -0.5
vt -13.9194 2.86369e-014
f 6/8/2 1/5/2 7/9/2

v 0.139515 0.06 -0.360485
vt -6.15157 2.3622
f 7/9/2 1/5/2 8/10/2

vt -12.8004 4.10076
vn 3.84665e-016 -1 -4.86759e-016
vt -5.4927 14.1923
vt -14.1923 5.4927
f 3/11/3 8/12/3 1/13/3

v 0.104159 0.06 -0.32513
vt -4.10076 12.8004
f 8/12/3 3/11/3 9/14/3

vn -0.707107 -6.1619e-016 0.707107
f 2/7/4 9/10/4 3/5/4

v 0.104159 0.1225 -0.32513
vt -6.15157 4.82283
f 9/10/4 2/7/4 10/15/4

usemtl FrontColor
v 0.139515 0.1225 -0.360485
f 11/12/3 2/11/3 10/14/3

v 0.210225 0.1225 -0.431196
vt -8.27658 16.9762
f 2/11/3 11/12/3 12/16/3

usemtl Brick
vt 17.8564 4.82283
vn 0.707107 6.71669e-016 0.707107
v 0.139515 0.5025 -0.360485
vt 13.9194 19.7835
f 12/17/5 13/18/5 11/4/5

v 0.210225 0.5025 -0.431196
vt 17.8564 19.7835
f 13/18/5 12/17/5 14/19/5

usemtl Glass
v 0.431196 0.5025 -0.210225
vt -6.15157 19.7835
f 12/15/4 15/6/4 14/20/4

v 0.431196 0.1225 -0.210225
f 15/6/4 12/15/4 16/7/4

usemtl FrontColor
vt -16.9762 8.27658
f 2/11/3 12/16/3 16/21/3

vn 0.707107 6.1619e-016 -0.707107
v 0.210225 0.06 -0.431196
f 16/15/6 17/5/6 12/7/6

v 0.431196 0.06 -0.210225
f 17/5/6 16/15/6 18/10/6

vn 0.707107 -7.21911e-017 0.707107
vt 17.8564 2.3622
f 4/4/7 18/22/7 16/17/7

f 18/22/7 4/4/7 1/1/7

f 1/13/3 17/16/3 18/21/3

f 17/16/3 1/13/3 8/12/3

vt -13.9194 2.3622
vn -0.707107 7.21911e-017 -0.707107
vt -17.8564 4.82283
vt -17.8564 2.3622
f 8/23/8 12/24/8 17/25/8

vt -13.9194 4.82283
f 12/24/8 8/23/8 11/26/8

usemtl Brick
v 7.21911e-016 0.625 -0.5
vt -13.9194 24.6063
f 11/15/2 19/27/2 8/10/2

f 13/20/2 19/27/2 11/15/2

f 5/6/2 19/27/2 13/20/2

v 0.5 0.625 -0
vt 13.9194 24.6063
f 5/6/2 20/28/2 19/27/2

f 20/28/2 5/6/2 6/8/2

vt 19.685 1.77636e-015
vn 0 0 1
v 1 0.625 -0
vt 39.3701 24.6063
vt 19.685 24.6063
f 6/29/9 21/30/9 20/31/9

v 1 0 -0
vt 39.3701 0
f 21/30/9 6/29/9 22/32/9

vt -19.685 1.0259e-031
vn -1.98526e-016 -1 -1.80478e-017
v 1 0 -1
vt -39.3701 39.3701
vt -39.3701 1.41061e-031
f 6/33/10 23/34/10 22/35/10

v 7.21911e-016 0 -1
vt -2.84217e-014 39.3701
f 6/33/10 24/36/10 23/34/10

vt 4.58448e-030 19.685
f 24/36/10 6/33/10 7/37/10

vt -19.685 2.30926e-014
vn -1 2.88765e-016 -3.60956e-016
v 7.21911e-016 0.625 -1
vt -39.3701 24.6063
vt -39.3701 4.10359e-030
f 7/38/11 25/39/11 24/40/11

vt -19.685 24.6063
f 25/39/11 7/38/11 19/41/11

f 7/9/2 8/10/2 19/27/2

vt 19.685 1.77636e-014
vn 3.60956e-016 1 7.21911e-016
vt 1.95399e-014 39.3701
vt 1.95399e-014 19.685
f 20/42/12 25/43/12 19/44/12

v 1 0.625 -1
vt 39.3701 39.3701
f 25/43/12 20/42/12 26/45/12

vt 39.3701 1.77636e-014
f 26/45/12 20/42/12 21/46/12

vt 0 24.6063
vn 1 0 -0
f 21/47/13 23/32/13 26/30/13

vt 0 0
f 23/32/13 21/47/13 22/48/13

vt -39.3701 0
vn 0 0 -1
vt -2.84217e-014 24.6063
f 23/49/14 25/50/14 26/39/14

vt -2.84217e-014 0
f 25/50/14 23/49/14 24/51/14

vn 4.35712e-016 -1 -4.35712e-016
f 14/16/15 5/13/15 13/12/15

f 5/13/15 14/16/15 15/21/15

vt -17.8564 19.7835
vn -0.707107 0 -0.707107
vt -13.9194 19.7835
f 15/52/16 4/26/16 5/53/16

f 4/26/16 15/52/16 16/24/16

usemtl FrontColor
f 2/11/3 16/21/3 4/13/3

usemtl Brick
vt -11.9509 2.3622
f 9/54/16 11/26/16 8/23/16

vt -11.9509 4.82283
f 11/26/16 9/54/16 10/55/16

