# Alias OBJ Model File
# Exported from SketchUp, (c) 2000-2012 Trimble Navigation Limited
# File units = meters

mtllib modularBuildings_001.mtl

g Mesh1 Group1 Model

usemtl Brick
v 0 0.2125 -0
vt 0 0
vn 0 1 -0
v 0.125 0.2125 -0.125
vt 4.92126 4.92126
v 0 0.2125 -1
vt 0 39.3701
f 1/1/1 2/2/1 3/3/1

v 1 0.2125 -0
vt 39.3701 0
f 2/2/1 1/1/1 4/4/1

v 0 0 -0
vn 0 0 1
vt 39.3701 8.36614
vt 0 8.36614
f 5/1/2 4/5/2 1/6/2

v 1 0 -0
f 4/5/2 5/1/2 6/4/2

vn 0 -1 -0
v 1 0 -1
vt -39.3701 39.3701
vt -39.3701 0
f 5/1/3 7/7/3 6/8/3

v 0 0 -1
f 7/7/3 5/1/3 8/3/3

vn -1 0 -0
vt -39.3701 8.36614
f 5/1/4 3/9/4 8/8/4

f 3/9/4 5/1/4 1/6/4

vn 0 0 -1
f 3/6/5 7/8/5 8/1/5

v 1 0.2125 -1
f 7/8/5 3/6/5 9/9/5

v 0.125 0.2125 -0.875
vt 4.92126 34.4488
vt 39.3701 39.3701
f 3/3/1 10/10/1 9/11/1

f 10/10/1 3/3/1 2/2/1

vt 4.92126 8.36614
vn 1 0 -0
v 0.125 0.10625 -0.875
vt 34.4488 4.18307
vt 34.4488 8.36614
f 2/12/6 11/13/6 10/14/6

v 0.125 0.10625 -0.125
vt 4.92126 4.18307
f 11/13/6 2/12/6 12/15/6

vt -4.92126 8.36614
v 1 0.10625 -0.125
vt -39.3701 4.18307
vt -4.92126 4.18307
f 2/16/5 13/17/5 12/18/5

v 1 0.2125 -0.125
f 13/17/5 2/16/5 14/9/5

vt 39.3701 4.92126
f 2/2/1 4/4/1 14/19/1

vn 1 1.69862e-015 1.92164e-031
vt 7.56552e-030 8.36614
f 14/12/7 4/20/7 13/15/7

vt 7.56552e-030 -6.68746e-014
f 6/21/7 13/15/7 4/20/7

vt 39.3701 -6.68746e-014
f 13/15/7 6/21/7 7/22/7

v 1 0.10625 -0.875
f 13/15/7 7/22/7 15/13/7

v 1 0.2125 -0.875
f 15/13/7 7/22/7 16/14/7

f 16/14/7 7/22/7 9/5/7

vt 39.3701 34.4488
f 9/11/1 10/10/1 16/23/1

f 11/15/2 16/5/2 10/12/2

vt 39.3701 4.18307
f 16/5/2 11/15/2 15/24/2

f 11/10/1 13/19/1 15/23/1

f 13/19/1 11/10/1 12/2/1

