# Alias OBJ Model File
# Exported from SketchUp, (c) 2000-2012 Trimble Navigation Limited
# File units = meters

mtllib modularBuildings_056.mtl

g Mesh1 Group1 Model

usemtl Brick
v 3.60956e-016 0.625 -1
vt -39.3701 24.6063
vn -1 2.88765e-016 -3.60956e-016
v 0 5.86553e-016 -0.5
vt -19.685 2.30926e-014
v 3.60956e-016 0.625 -0.5
vt -19.685 24.6063
f 1/1/1 2/2/1 3/3/1

v 3.60956e-016 0 -1
vt -39.3701 -4.90454e-045
f 2/2/1 1/1/1 4/4/1

vt -1.42109e-014 24.6063
vn 0 0 -1
v 1 0 -1
vt -39.3701 0
vt -1.42109e-014 0
f 1/5/2 5/6/2 4/7/2

v 1 0.625 -1
f 5/6/2 1/5/2 6/1/2

vt 5.32907e-015 39.3701
vn 3.60956e-016 1 7.21911e-016
v 0.5 0.625 -0
vt 19.685 1.77636e-014
vt 39.3701 39.3701
f 1/8/3 7/9/3 6/10/3

vt 5.32907e-015 19.685
f 7/9/3 1/8/3 3/11/3

vt -13.9194 24.6063
vn -0.707107 3.98312e-016 0.707107
v 0.5 4.51195e-017 -0
vt 13.9194 7.32064e-015
vt 13.9194 24.6063
f 3/12/4 8/13/4 7/14/4

vt -13.9194 2.86369e-014
f 8/13/4 3/12/4 2/15/4

vt -1.42109e-014 39.3701
vn -1.98526e-016 -1 -1.80478e-017
vt -19.685 1.0259e-031
vt 4.58448e-030 19.685
f 4/16/5 8/17/5 2/18/5

vt -39.3701 39.3701
f 8/17/5 4/16/5 5/19/5

v 1 0 -0
vt -39.3701 1.41061e-031
f 8/17/5 5/19/5 9/20/5

vt 39.3701 0
vn 1 0 -0
v 1 0.625 -0
vt 0 24.6063
vt 0 0
f 5/21/6 10/22/6 9/23/6

vt 39.3701 24.6063
f 10/22/6 5/21/6 6/24/6

vt 39.3701 1.77636e-014
f 6/10/3 7/9/3 10/25/3

vt 19.685 1.77636e-015
vn 0 0 1
vt 19.685 24.6063
f 8/26/7 10/24/7 7/27/7

f 10/24/7 8/26/7 9/21/7

