# Alias OBJ Model File
# Exported from SketchUp, (c) 2000-2012 Trimble Navigation Limited
# File units = meters

mtllib modularBuildings_067.mtl

g Mesh1 Group1 Model

usemtl Brick
v 1 0 -1
vt 39.3701 0
vn 1 0 -0
v 1 0.625 -0
vt 0 24.6063
v 1 0 -0
vt 0 0
f 1/1/1 2/2/1 3/3/1

v 1 0.625 -1
vt 39.3701 24.6063
f 2/2/1 1/1/1 4/4/1

vt -39.3701 0
vn 0 0 -1
v 0 0.625 -1
vt -39.3701 24.6063
f 1/5/2 5/2/2 4/6/2

v 0 0 -1
f 5/2/2 1/5/2 6/3/2

vt -39.3701 39.3701
vn 0 -1 -0
v 0 0 -0
vt 0 39.3701
f 1/7/3 7/3/3 6/8/3

f 7/3/3 1/7/3 3/5/3

vn 0 0 1
f 2/4/4 7/3/4 3/1/4

v 0 0.625 -0
f 7/3/4 2/4/4 8/2/4

vt 39.3701 3.33067e-015
vn -1.35358e-016 1 1.35358e-016
vt 3.33067e-015 39.3701
vt 3.33067e-015 3.33067e-015
f 2/9/5 5/10/5 8/11/5

vt 39.3701 39.3701
f 5/10/5 2/9/5 4/12/5

v 0 0.5 -0.125
vt -4.92126 19.685
vn -1 0 -0
f 9/13/6 8/2/6 5/6/6

f 8/2/6 9/13/6 7/3/6

v 0 0.06 -0.125
vt -4.92126 2.3622
f 10/14/6 7/3/6 9/13/6

f 7/3/6 10/14/6 6/5/6

v 0 0.06 -0.4375
vt -17.2244 2.3622
f 6/5/6 10/14/6 11/15/6

usemtl FrontColor
v 0.1 0.06 -0.4375
vt -3.93701 17.2244
vt 0 4.92126
vt 0 17.2244
f 12/16/3 10/17/3 11/18/3

v 0.1 0.06 -0.125
vt -3.93701 4.92126
f 10/17/3 12/16/3 13/19/3

vt 17.2244 2.3622
v 0.1 0.12 -0.125
vt 4.92126 4.72441
vt 4.92126 2.3622
f 12/20/1 14/21/1 13/22/1

v 0.1 0.12 -0.4375
vt 17.2244 4.72441
f 14/21/1 12/20/1 15/23/1

vt -3.93701 2.3622
v 0 0.12 -0.4375
vt 0 4.72441
vt -3.93701 4.72441
f 12/24/2 16/25/2 15/26/2

vt 0 2.3622
f 16/25/2 12/24/2 11/27/2

usemtl Brick
vt -17.2244 4.72441
f 16/28/6 5/6/6 11/15/6

v 0 0.5 -0.4375
vt -17.2244 19.685
f 17/29/6 5/6/6 16/28/6

f 9/13/6 5/6/6 17/29/6

v 0.1 0.5 -0.4375
f 18/16/3 9/17/3 17/18/3

v 0.1 0.5 -0.125
f 9/17/3 18/16/3 19/19/3

usemtl Glass
vt -4.92126 4.72441
f 18/29/6 14/30/6 19/13/6

f 14/30/6 18/29/6 15/28/6

usemtl Brick
vt 3.93701 19.685
vt 3.93701 4.72441
f 18/31/4 16/25/4 15/32/4

vt 0 19.685
f 16/25/4 18/31/4 17/33/4

usemtl FrontColor
v 0 0.12 -0.125
f 20/17/3 16/18/3 15/16/3

v -0.05 0.12 -0.125
vt 1.9685 4.92126
f 21/34/3 16/18/3 20/17/3

v -0.05 0.12 -0.4375
vt 1.9685 17.2244
f 16/18/3 21/34/3 22/35/3

usemtl Brick
v -0.05 0.06 -0.125
f 22/28/6 23/14/6 21/30/6

v -0.05 0.06 -0.4375
f 23/14/6 22/28/6 24/15/6

vt 1.9685 4.72441
vt 1.9685 2.3622
f 22/36/2 11/27/2 24/37/2

f 11/27/2 22/36/2 16/25/2

f 11/18/3 23/34/3 24/35/3

f 23/34/3 11/18/3 10/17/3

vt -1.9685 2.3622
f 20/25/4 23/38/4 10/27/4

vt -1.9685 4.72441
f 23/38/4 20/25/4 21/39/4

f 10/14/6 9/13/6 20/30/6

f 9/33/2 14/26/2 20/25/2

vt -3.93701 19.685
f 14/26/2 9/33/2 19/40/2

usemtl FrontColor
f 20/17/3 15/16/3 14/19/3

f 10/27/4 14/32/4 20/25/4

vt 3.93701 2.3622
f 14/32/4 10/27/4 13/41/4

usemtl Brick
f 6/5/6 11/15/6 5/6/6

