# Alias OBJ Model File
# Exported from SketchUp, (c) 2000-2012 Trimble Navigation Limited
# File units = meters

mtllib modularBuildings_091.mtl

g Mesh1 Group1 Model

usemtl Metal
v 0.05 0.38 -0
vt 1.9685 0
vn 0 1 -0
v 0 0.38 -0.75
vt 0 29.5276
v 0 0.38 -0
vt 0 0
f 1/1/1 2/2/1 3/3/1

v 0.05 0.38 -0.75
vt 1.9685 29.5276
f 2/2/1 1/1/1 4/4/1

vt -1.42109e-015 14.9606
vn 1 0 -7.21911e-016
v 0.05 0.332258 -0.0477417
vt 1.87959 13.081
vt 29.5276 14.9606
f 1/5/2 5/6/2 4/7/2

v 0.05 0.0477417 -0.0477417
vt 1.87959 1.87959
f 5/6/2 1/5/2 6/8/2

v 0.05 0 -0
vt -1.42109e-015 0
f 7/9/2 6/8/2 1/5/2

v 0.05 0 -0.75
vt 29.5276 0
f 6/8/2 7/9/2 8/10/2

v 0 0 -0
vn 0 -1 -0
vt -1.9685 29.5276
vt -1.9685 0
f 9/3/3 8/11/3 7/12/3

v 0 0 -0.75
f 8/11/3 9/3/3 10/2/3

vn -1 0 7.21911e-016
v 0 0.0477417 -0.0477417
vt -1.87959 1.87959
vt -29.5276 0
f 9/3/4 11/13/4 10/14/4

v 0 0.332258 -0.0477417
vt -1.87959 13.081
f 11/13/4 9/3/4 12/15/4

vt 0 14.9606
f 3/16/4 12/15/4 9/3/4

vt -29.5276 14.9606
f 12/15/4 3/16/4 2/17/4

v 0 0.332258 -0.702258
vt -27.648 13.081
f 12/15/4 2/17/4 13/18/4

v 0 0.0477417 -0.702258
vt -27.648 1.87959
f 13/18/4 2/17/4 14/19/4

f 10/14/4 14/19/4 2/17/4

f 10/14/4 11/13/4 14/19/4

vt 1.9685 1.87959
vt 0 27.648
vt 0 1.87959
f 6/20/1 14/21/1 11/22/1

v 0.05 0.0477417 -0.702258
vt 1.9685 27.648
f 14/21/1 6/20/1 15/23/1

vt 27.648 1.87959
f 6/8/2 8/10/2 15/24/2

v 0.05 0.166129 -0.702258
vt 27.648 6.54052
f 15/24/2 8/10/2 16/25/2

v 0.05 0.213871 -0.702258
vt 27.648 8.42011
f 16/25/2 8/10/2 17/26/2

v 0.05 0.332258 -0.702258
vt 27.648 13.081
f 17/26/2 8/10/2 18/27/2

f 4/7/2 18/27/2 8/10/2

f 4/7/2 5/6/2 18/27/2

vt -1.9685 27.648
vt -1.9685 1.87959
f 12/22/3 18/28/3 5/29/3

f 18/28/3 12/22/3 13/21/3

vt 0 13.081
vn 0 0 1
vt 1.9685 8.42011
vt 1.9685 13.081
f 13/30/5 17/31/5 18/32/5

vt 1.9685 6.54052
f 13/30/5 16/33/5 17/31/5

f 14/22/5 16/33/5 13/30/5

f 16/33/5 14/22/5 15/20/5

v 0.05 0.213871 -0.0477417
vt -1.9685 8.42011
vn 0 0 -1
vt -1.9685 13.081
f 19/34/6 12/30/6 5/35/6

v 0.05 0.166129 -0.0477417
vt -1.9685 6.54052
f 20/36/6 12/30/6 19/34/6

f 6/29/6 12/30/6 20/36/6

f 12/30/6 6/29/6 11/22/6

vt 1.87959 6.54052
f 5/6/2 6/8/2 20/37/2

vt 1.87959 8.42011
f 5/6/2 20/37/2 19/38/2

vt -1.9685 14.9606
f 8/12/6 2/16/6 4/39/6

f 2/16/6 8/12/6 10/3/6

vt 1.9685 14.9606
f 9/3/5 1/40/5 3/16/5

f 1/40/5 9/3/5 7/1/5

