# Alias OBJ Model File
# Exported from SketchUp, (c) 2000-2012 Trimble Navigation Limited
# File units = meters

mtllib modularBuildings_016.mtl

g Mesh1 Group1 Model

usemtl Brick
v 1 0.10625 -0
vt 39.3701 1.58937e-016
vn 0 1 3.79953e-017
v 0 0.10625 -1
vt 0 39.3701
v 0 0.10625 -0
vt 0 1.58937e-016
f 1/1/1 2/2/1 3/3/1

v 1 0.10625 -1
vt 39.3701 39.3701
f 2/2/1 1/1/1 4/4/1

vt 0 4.18307
vn 1 0 -0
v 1 0 -1
vt 39.3701 0
vt 39.3701 4.18307
f 1/5/2 5/6/2 4/7/2

v 1 0 -0
vt 0 0
f 5/6/2 1/5/2 6/8/2

vn 0 0 1
v 0 0 -0
f 1/7/3 7/8/3 6/6/3

f 7/8/3 1/7/3 3/5/3

vt -39.3701 4.18307
vn -1 0 -0
f 2/9/4 7/8/4 3/5/4

v 0 0 -1
vt -39.3701 0
f 7/8/4 2/9/4 8/10/4

vn 0 0 -1
f 2/5/5 5/10/5 8/8/5

f 5/10/5 2/5/5 4/9/5

vt -39.3701 39.3701
vn 0 -1 -0
f 5/11/6 7/8/6 8/2/6

f 7/8/6 5/11/6 6/10/6

