# Alias OBJ Model File
# Exported from SketchUp, (c) 2000-2012 Trimble Navigation Limited
# File units = meters

mtllib modularBuildings_008.mtl

g Mesh1 Group1 Model

usemtl Brick
v 0.875 0.2125 -0.875
vt -34.4488 8.36614
vn -1 0 -0
v 0.875 0.10625 -0
vt 0 4.18307
v 0.875 0.2125 -0
vt 0 8.36614
f 1/1/1 2/2/1 3/3/1

v 0.875 0.10625 -0.875
vt -34.4488 4.18307
f 2/2/1 1/1/1 4/4/1

vt 34.4488 8.36614
vn 0 0 1
v 0 0.10625 -0.875
vt 34.4488 4.18307
f 1/5/2 5/2/2 4/6/2

v 0 0.2125 -0.875
f 5/2/2 1/5/2 6/3/2

vt 34.4488 34.4488
vn 0 1 -0
v 0 0.2125 -1
vt 0 39.3701
vt 0 34.4488
f 1/7/3 7/8/3 6/9/3

v 1 0.2125 -1
vt 39.3701 39.3701
f 7/8/3 1/7/3 8/10/3

v 1 0.2125 -0
vt 39.3701 0
f 8/10/3 1/7/3 9/11/3

vt 34.4488 0
f 9/11/3 1/7/3 3/12/3

vt 39.3701 8.36614
f 2/6/2 9/13/2 3/5/2

v 1 0 -0
f 2/6/2 10/11/2 9/13/2

v 0 0 -0
vt 0 0
f 10/11/2 2/6/2 11/14/2

v 0 0.10625 -0
f 12/2/2 11/14/2 2/6/2

f 5/4/1 11/14/1 12/2/1

v 0 0 -1
vt -39.3701 0
f 11/14/1 5/4/1 13/15/1

vt -39.3701 8.36614
f 13/15/1 5/4/1 7/16/1

f 7/16/1 5/4/1 6/1/1

vn 0 0 -1
v 1 0 -1
f 7/3/4 14/15/4 13/14/4

f 14/15/4 7/3/4 8/16/4

vt 7.59317e-046 8.36614
vn 1 -4.24654e-016 1.92866e-047
vt 39.3701 1.67187e-014
f 9/17/5 14/18/5 8/13/5

vt 7.59317e-046 1.67187e-014
f 14/18/5 9/17/5 10/19/5

vn 0 -1 -0
vt -39.3701 39.3701
f 11/14/6 14/20/6 10/15/6

f 14/20/6 11/14/6 13/8/6

vt 34.4488 -3.04007e-016
vn 7.26756e-017 1 -7.26756e-017
vt -3.04007e-016 34.4488
vt -3.04007e-016 -3.04007e-016
f 2/21/7 5/22/7 12/23/7

f 5/22/7 2/21/7 4/7/7

