# Alias OBJ Model File
# Exported from SketchUp, (c) 2000-2012 Trimble Navigation Limited
# File units = meters

mtllib modularBuildings_030.mtl

g Mesh1 Group1 Model

usemtl Brick
v 0 0.388125 -0.583434
vt -2.42516e-027 22.9075
vn -4.39801e-018 -0.5 -0.866025
v 0.1 0.35044 -0.567824
vt -3.93701 21.3016
vn -8.95339e-019 -0.258819 -0.965926
v 0 0.35044 -0.567824
vt -2.36028e-027 21.3016
f 1/1/1 2/2/2 3/3/2

v 0.1 0.388125 -0.583434
vt -3.93701 22.9075
f 2/2/2 1/1/1 4/4/1

v 0 0.420485 -0.608265
vt -2.63237e-016 27.7119
vn -4.39801e-018 -0.707107 -0.707107
vt -3.93701 26.106
vt -2.52491e-016 26.106
f 5/5/3 4/6/1 1/7/1

v 0.1 0.420485 -0.608265
vt -3.93701 27.7119
f 4/6/1 5/5/3 6/8/3

vt -2.29276e-027 29.0765
v 0.1 0.445316 -0.640625
vt -3.93701 30.6824
vn -2.63581e-029 -0.866025 -0.5
vt -3.93701 29.0765
f 5/9/3 7/10/4 6/11/3

v 0 0.445316 -0.640625
vt -2.41474e-027 30.6824
f 7/10/4 5/9/3 8/12/4

v 0 0.31 -0.4375
vt -17.2244 12.2047
vn -1 0 -0
vt -25.2215 17.5321
vt -23.9474 16.5545
f 9/13/5 8/14/5 5/15/5

v 0 0.35044 -0.432176
vt -17.0148 13.7969
f 10/16/5 8/14/5 9/13/5

v 0 0.625 -1
vt -39.3701 24.6063
f 10/16/5 11/17/5 8/14/5

v 0 0.388125 -0.416566
vt -16.4003 15.2805
f 12/18/5 11/17/5 10/16/5

v 0 0.420485 -0.391735
vt -15.4227 16.5545
f 13/19/5 11/17/5 12/18/5

v 0 0.445316 -0.359375
vt -14.1486 17.5321
f 14/20/5 11/17/5 13/19/5

v 0 0.460926 -0.32169
vt -12.665 18.1467
f 15/21/5 11/17/5 14/20/5

v 0 0.46625 -0.28125
vt -11.0728 18.3563
f 16/22/5 11/17/5 15/21/5

v 0 0.460926 -0.24081
vt -9.48069 18.1467
f 17/23/5 11/17/5 16/22/5

v 0 0.625 -0
vt 0 24.6063
f 17/23/5 18/24/5 11/17/5

v 0 0.445316 -0.203125
vt -7.99705 17.5321
f 19/25/5 18/24/5 17/23/5

v 0 0.420485 -0.170765
vt -6.72301 16.5545
f 20/26/5 18/24/5 19/25/5

v 0 0.388125 -0.145934
vt -5.74541 15.2805
f 21/27/5 18/24/5 20/26/5

v 0 0.35044 -0.130324
vt -5.13087 13.7969
f 22/28/5 18/24/5 21/27/5

v 0 0 -0
vt 0 0
f 18/24/5 22/28/5 23/29/5

v 0 0.31 -0.125
vt -4.92126 12.2047
f 23/29/5 22/28/5 24/30/5

vt -3.93643e-018 14.3485
vn -3.83603e-019 -0.258819 -0.965926
v 0.1 0.31 -0.125
vt -3.93701 12.7427
vn -7.60641e-019 -0.130526 -0.991445
vt -3.77562e-018 12.7427
f 22/31/6 25/32/7 24/33/7

v 0.1 0.35044 -0.130324
vt -3.93701 14.3485
f 25/32/7 22/31/6 26/34/6

vt 0 16.316
vn 0 -0.5 -0.866025
vt -3.93701 14.7101
vt 0 14.7101
f 21/35/8 26/36/6 22/37/6

v 0.1 0.388125 -0.145934
vt -3.93701 16.316
f 26/36/6 21/35/8 27/38/8

vt 0 17.2263
vn 0 -0.707107 -0.707107
vt -3.93701 15.6204
vt 0 15.6204
f 20/39/9 27/40/8 21/41/8

v 0.1 0.420485 -0.170765
vt -3.93701 17.2263
f 27/40/8 20/39/9 28/42/9

vt 0 15.4115
v 0.1 0.445316 -0.203125
vt -3.93701 17.0174
vn 0 -0.866025 -0.5
vt -3.93701 15.4115
f 20/43/9 29/44/10 28/45/9

vt 0 17.0174
f 29/44/10 20/43/9 19/46/10

vt 0 14.0976
v 0.1 0.460926 -0.24081
vt -3.93701 15.7035
vn 0 -0.965926 -0.258819
vt -3.93701 14.0976
f 19/47/10 30/48/11 29/49/10

vt 0 15.7035
f 30/48/11 19/47/10 17/50/11

vt 0 11.7682
v 0.1 0.46625 -0.28125
vt -3.93701 13.3741
vn 0 -1 7.45058e-009
vt -3.93701 11.7682
f 17/51/11 31/52/12 30/53/11

vt 0 13.3741
f 31/52/12 17/51/11 16/54/12

vt 0 -8.58213
v 0.1 0.460926 -0.32169
vt 3.93701 -10.188
vn 0 -0.965926 0.258819
vt 3.93701 -8.58213
f 16/55/12 32/56/13 31/57/12

vt 0 -10.188
f 32/56/13 16/55/12 15/58/13

vt 0 -4.75648
v 0.1 0.445316 -0.359375
vt 3.93701 -6.36236
vn 0 -0.866025 0.5
vt 3.93701 -4.75648
f 15/59/13 33/60/14 32/61/13

vt 0 -6.36236
f 33/60/14 15/59/13 14/62/14

vt 0 -0.551963
v 0.1 0.420485 -0.391735
vt 3.93701 -2.15785
vn 0 -0.707107 0.707107
vt 3.93701 -0.551963
f 14/63/14 34/64/15 33/65/14

vt 0 -2.15785
f 34/64/15 14/63/14 13/66/15

vt 0 2.139
vn 0 -0.5 0.866025
vt 3.93701 3.74489
vt 0 3.74489
f 12/67/16 34/68/15 13/69/15

v 0.1 0.388125 -0.416566
vt 3.93701 2.139
f 34/68/15 12/67/16 35/70/16

vt 0 6.23536
vn 5.59392e-019 -0.258819 0.965926
vt 3.93701 7.84125
vt 0 7.84125
f 10/71/17 35/72/16 12/73/16

v 0.1 0.35044 -0.432176
vt 3.93701 6.23536
f 35/72/16 10/71/17 36/74/17

vt 1.92704e-017 9.85207
vn 1.10921e-018 -0.130526 0.991445
vt 3.93701 11.458
vt 1.90359e-017 11.458
f 9/75/18 36/76/17 10/77/17

v 0.1 0.31 -0.4375
vt 3.93701 9.85207
f 36/76/17 9/75/18 37/78/18

v 0 0.12 -0.4375
vt 0 4.72441
vn 0 0 1
vt 3.93701 12.2047
vt 0 12.2047
f 38/79/19 37/80/19 9/81/19

v 0.1 0.12 -0.4375
vt 3.93701 4.72441
f 37/80/19 38/79/19 39/82/19

vt 0 17.2244
vn 0 1 -0
v 0.1 0.12 -0.125
vt 3.93701 4.92126
vt 3.93701 17.2244
f 38/83/20 40/84/20 39/85/20

v 0 0.12 -0.125
vt 0 4.92126
f 38/83/20 41/86/20 40/84/20

v -0.05 0.12 -0.4375
vt -1.9685 17.2244
f 42/87/20 41/86/20 38/83/20

v -0.05 0.12 -0.125
vt -1.9685 4.92126
f 41/86/20 42/87/20 43/88/20

vt -17.2244 4.72441
v -0.05 0.06 -0.125
vt -4.92126 2.3622
vt -4.92126 4.72441
f 42/89/5 44/90/5 43/91/5

v -0.05 0.06 -0.4375
vt -17.2244 2.3622
f 44/90/5 42/89/5 45/92/5

vt 1.9685 4.72441
vn 0 0 -1
v 0 0.06 -0.4375
vt 0 2.3622
vt 1.9685 2.3622
f 42/93/21 46/94/21 45/95/21

f 46/94/21 42/93/21 38/79/21

vt -22.9698 15.2805
f 38/89/5 1/96/5 46/92/5

f 9/13/5 1/96/5 38/89/5

f 9/13/5 5/15/5 1/96/5

vt -22.3553 13.7969
f 46/92/5 1/96/5 3/97/5

v 0 0.31 -0.5625
vt -22.1457 12.2047
f 46/92/5 3/97/5 47/98/5

vt -4.00311e-017 16.5968
v 0.1 0.31 -0.5625
vt -3.93701 14.9909
vn -1.77536e-018 -0.130526 -0.991445
vt -3.96558e-017 14.9909
f 3/99/2 48/100/22 47/101/22

vt -3.93701 16.5968
f 48/100/22 3/99/2 2/102/2

usemtl Glass
v 0.1 0.12 -0.5625
vt -22.1457 4.72441
f 2/97/5 49/103/5 48/98/5

v 0.1 0.12 -0.875
vt -34.4488 4.72441
f 49/103/5 2/97/5 50/104/5

f 50/104/5 2/97/5 4/96/5

f 50/104/5 4/96/5 6/15/5

f 50/104/5 6/15/5 7/14/5

v 0.1 0.460926 -0.67831
vt -26.7051 18.1467
f 50/104/5 7/14/5 51/105/5

usemtl Brick
vt 3.96665e-028 30.0108
vt -3.93701 31.6167
vn 3.03525e-030 -0.965926 -0.258819
vt -3.93701 30.0108
f 8/106/4 51/107/23 7/108/4

v 0 0.460926 -0.67831
vt 4.19998e-028 31.6167
f 51/107/23 8/106/4 52/109/23

f 8/14/5 11/17/5 52/105/5

v 0 0.46625 -0.71875
vt -28.2972 18.3563
f 52/105/5 11/17/5 53/110/5

v 0 0.460926 -0.75919
vt -29.8894 18.1467
f 53/110/5 11/17/5 54/111/5

v 0 0.445316 -0.796875
vt -31.373 17.5321
f 54/111/5 11/17/5 55/112/5

v 0 0.420485 -0.829235
vt -32.6471 16.5545
f 55/112/5 11/17/5 56/113/5

v 0 0.388125 -0.854066
vt -33.6247 15.2805
f 56/113/5 11/17/5 57/114/5

v 0 0.35044 -0.869676
vt -34.2392 13.7969
f 57/114/5 11/17/5 58/115/5

v 0 0.31 -0.875
vt -34.4488 12.2047
f 58/115/5 11/17/5 59/116/5

v 0 0.12 -0.875
f 59/116/5 11/17/5 60/104/5

v 0 0.06 -0.875
vt -34.4488 2.3622
f 60/104/5 11/17/5 61/117/5

v 0 0 -1
vt -39.3701 0
f 62/118/5 61/117/5 11/17/5

v 0 0.06 -0.5625
vt -22.1457 2.3622
f 62/118/5 63/119/5 61/117/5

f 62/118/5 46/92/5 63/119/5

v 0 0.06 -0.125
f 62/118/5 64/90/5 46/92/5

f 23/29/5 64/90/5 62/118/5

f 64/90/5 23/29/5 24/30/5

f 64/90/5 24/30/5 41/91/5

vt -3.93701 4.72441
f 24/81/21 40/120/21 41/79/21

vt -3.93701 12.2047
f 40/120/21 24/81/21 25/121/21

usemtl Glass
vn -1 -2.45115e-015 1.10241e-023
f 26/28/24 40/91/24 25/30/24

f 40/91/24 26/28/24 39/89/24

f 39/89/24 26/28/24 27/27/24

f 39/89/24 27/27/24 28/26/24

f 39/89/24 28/26/24 29/25/24

f 39/89/24 29/25/24 30/23/24

f 39/89/24 30/23/24 31/22/24

f 39/89/24 31/22/24 32/21/24

f 39/89/24 32/21/24 33/20/24

f 39/89/24 33/20/24 34/19/24

f 39/89/24 34/19/24 35/18/24

f 39/89/24 35/18/24 36/16/24

f 39/89/24 36/16/24 37/13/24

usemtl Brick
vt -1.9685 2.3622
f 41/79/19 44/122/19 64/94/19

vt -1.9685 4.72441
f 44/122/19 41/79/19 43/123/19

vt 1.9685 4.92126
vn 0 -1 -1.08287e-016
f 44/124/25 46/83/25 64/86/25

vt 1.9685 17.2244
f 46/83/25 44/124/25 45/125/25

v 1 0 -1
vt -39.3701 39.3701
vn 0 -1 -0
vt 0 39.3701
f 65/126/26 23/29/26 62/127/26

v 1 0 -0
f 23/29/26 65/126/26 66/118/26

vt 39.3701 0
vn 1 0 -0
v 1 0.625 -0
f 65/128/27 67/24/27 66/29/27

v 1 0.625 -1
vt 39.3701 24.6063
f 67/24/27 65/128/27 68/129/27

f 65/118/21 11/24/21 68/17/21

f 11/24/21 65/118/21 62/29/21

vt 5.55112e-015 39.3701
vn -2.25597e-016 1 2.25597e-016
vt 39.3701 5.55112e-015
vt 39.3701 39.3701
f 11/130/28 67/131/28 68/132/28

vt 5.55112e-015 5.55112e-015
f 67/131/28 11/130/28 18/133/28

f 23/29/19 67/129/19 18/24/19

f 67/129/19 23/29/19 66/128/19

f 63/119/5 46/92/5 47/98/5

v 0 0.12 -0.5625
f 63/119/5 47/98/5 69/103/5

f 47/81/21 49/120/21 69/79/21

f 49/120/21 47/81/21 48/121/21

vt 0 34.4488
vt 0 22.1457
vt 3.93701 22.1457
f 60/134/20 69/135/20 49/136/20

v -0.05 0.12 -0.875
vt -1.9685 34.4488
f 70/137/20 69/135/20 60/134/20

v -0.05 0.12 -0.5625
vt -1.9685 22.1457
f 69/135/20 70/137/20 71/138/20

v -0.05 0.06 -0.5625
f 70/104/5 72/119/5 71/103/5

v -0.05 0.06 -0.875
f 72/119/5 70/104/5 73/117/5

f 70/93/21 61/94/21 73/95/21

f 61/94/21 70/93/21 60/79/21

vt 1.42197e-043 34.4488
vn -6.01966e-044 -1 -1.44382e-016
vt 1.9685 22.1457
vt 1.9685 34.4488
f 61/139/29 72/140/29 73/141/29

vt 1.42197e-043 22.1457
f 72/140/29 61/139/29 63/142/29

f 69/79/19 72/122/19 63/94/19

f 72/122/19 69/79/19 71/123/19

vt 3.93701 34.4488
f 60/134/20 49/136/20 50/143/20

v 0.1 0.31 -0.875
f 74/80/19 60/79/19 50/82/19

f 60/79/19 74/80/19 59/81/19

v 0.1 0.35044 -0.869676
vt 3.93701 9.20972
vn -4.83496e-029 -0.258819 0.965926
vt 1.47724e-029 7.60384
vn 4.25153e-031 -0.130526 0.991445
vt 3.93701 7.60384
f 75/144/30 59/145/31 74/146/31

vt 1.46825e-029 9.20972
f 59/145/31 75/144/30 58/147/30

v 0.1 0.388125 -0.854066
vt 3.93701 1.24975
vn -4.7564e-029 -0.5 0.866025
vt -3.56879e-027 -0.356133
vt 3.93701 -0.356133
f 76/148/32 58/149/30 75/150/30

vt -3.50474e-027 1.24975
f 58/149/30 76/148/32 57/151/32

v 0.1 0.420485 -0.829235
vt 3.93701 -6.74067
vn -3.09997e-029 -0.707107 0.707107
vt 8.404e-029 -8.34655
vt 3.93701 -8.34655
f 77/152/33 57/153/32 76/154/32

vt 8.15967e-029 -6.74067
f 57/153/32 77/152/33 56/155/33

vt 3.93701 -15.8229
vt -3.27005e-027 -14.217
vn -1.18839e-029 -0.866025 0.5
vt -3.40284e-027 -15.8229
f 77/156/33 55/157/34 56/158/33

v 0.1 0.445316 -0.796875
vt 3.93701 -14.217
f 55/157/34 77/156/33 78/159/34

usemtl Glass
f 50/104/5 78/112/5 77/113/5

v 0.1 0.460926 -0.75919
f 50/104/5 79/111/5 78/112/5

v 0.1 0.46625 -0.71875
f 50/104/5 80/110/5 79/111/5

f 50/104/5 51/105/5 80/110/5

usemtl Brick
vt 0 28.8453
vt -3.93701 30.4511
vn 6.86115e-030 -1 7.45058e-009
vt -3.93701 28.8453
f 52/160/23 80/161/35 51/162/23

vt 0 30.4511
f 80/161/35 52/160/23 53/163/35

vt 2.94946e-027 -25.6592
vt 3.93701 -27.2651
vn 2.6977e-029 -0.965926 0.258819
vt 3.93701 -25.6592
f 53/164/35 79/165/36 80/166/35

vt 3.11541e-027 -27.2651
f 79/165/36 53/164/35 54/167/36

vt 3.11541e-027 -20.6698
vt 3.93701 -22.2756
vt 3.93701 -20.6698
f 54/168/36 78/169/34 79/170/36

vt 3.27005e-027 -22.2756
f 78/169/34 54/168/36 55/171/34

usemtl Glass
f 50/104/5 77/113/5 76/114/5

f 50/104/5 76/114/5 75/115/5

f 50/104/5 75/115/5 74/116/5

