# Alias OBJ Model File
# Exported from SketchUp, (c) 2000-2012 Trimble Navigation Limited
# File units = meters

mtllib modularBuildings_054.mtl

g Mesh1 Group1 Model

usemtl Brick
v 0.1 0.5 -0.28125
vt -3.93701 11.0728
vn 0 -1 -0
v 0 0.5 -0.09375
vt 0 3.69094
v 0 0.5 -0.28125
vt 0 11.0728
f 1/1/1 2/2/1 3/3/1

v 0.1 0.5 -0.09375
vt -3.93701 3.69094
f 2/2/1 1/1/1 4/4/1

usemtl Glass
vt -11.0728 19.685
vn -1 0 -0
v 0.1 0.078125 -0.09375
vt -3.69094 3.07579
vt -3.69094 19.685
f 1/5/2 5/6/2 4/7/2

v 0.1 0.078125 -0.28125
vt -11.0728 3.07579
f 5/6/2 1/5/2 6/8/2

usemtl Brick
vt 3.93701 19.685
vn 0 0 1
v 0 0.078125 -0.28125
vt 0 3.07579
vt 3.93701 3.07579
f 1/9/3 7/10/3 6/11/3

vt 0 19.685
f 7/10/3 1/9/3 3/12/3

v 0 0.5 -0.375
vt -14.7638 19.685
f 3/5/2 8/13/2 7/8/2

v 0 0.625 -1
vt -39.3701 24.6063
f 3/5/2 9/14/2 8/13/2

f 2/7/2 9/14/2 3/5/2

v 0 0.625 -0
vt 0 24.6063
f 2/7/2 10/15/2 9/14/2

v 0 0 -0
vt 0 0
f 10/15/2 2/7/2 11/16/2

v 0 0.078125 -0.09375
f 12/6/2 11/16/2 2/7/2

v 0 0 -0.375
vt -14.7638 0
f 11/16/2 12/6/2 13/17/2

f 13/17/2 12/6/2 7/8/2

vt 3.93701 3.69094
vn 0 1 -2.40637e-016
f 5/18/4 7/3/4 12/2/4

vt 3.93701 11.0728
f 7/3/4 5/18/4 6/19/4

vn 0 0 -1
vt -3.93701 3.07579
f 2/12/5 5/20/5 12/10/5

vt -3.93701 19.685
f 5/20/5 2/12/5 4/21/5

f 13/17/2 7/8/2 8/13/2

v 0.1 0 -0.375
vt -3.93701 0
f 8/12/5 14/22/5 13/16/5

v 0.1 0.5 -0.375
f 14/22/5 8/12/5 15/21/5

vt 0 14.7638
v 0.1 0.5 -0.625
vt -3.93701 24.6063
vt -3.93701 14.7638
f 8/23/1 16/24/1 15/25/1

v 0 0.5 -0.625
f 16/24/1 8/23/1 17/15/1

vt -24.6063 19.685
f 8/13/2 9/14/2 17/26/2

v 0 0.5 -0.71875
vt -28.2972 19.685
f 17/26/2 9/14/2 18/27/2

v 0 0.5 -0.90625
vt -35.6791 19.685
f 18/27/2 9/14/2 19/28/2

v 0 0.078125 -0.90625
vt -35.6791 3.07579
f 19/28/2 9/14/2 20/29/2

v 0 0 -1
vt -39.3701 0
f 21/30/2 20/29/2 9/14/2

v 0 0.078125 -0.71875
vt -28.2972 3.07579
f 21/30/2 22/31/2 20/29/2

v 0 0 -0.625
vt -24.6063 0
f 23/32/2 22/31/2 21/30/2

f 22/31/2 23/32/2 18/27/2

f 17/26/2 18/27/2 23/32/2

f 23/16/3 16/9/3 17/12/3

v 0.1 0 -0.625
vt 3.93701 0
f 16/9/3 23/16/3 24/33/3

v 1 0 -1
vt -39.3701 39.3701
f 23/15/1 25/34/1 24/24/1

vt 0 39.3701
f 25/34/1 23/15/1 21/35/1

f 9/15/5 25/30/5 21/16/5

v 1 0.625 -1
f 25/30/5 9/15/5 26/14/5

vt -9.99201e-015 39.3701
vn 4.06075e-016 1 4.06075e-016
v 1 0.625 -0
vt 39.3701 9.99201e-015
vt 39.3701 39.3701
f 9/36/6 27/37/6 26/38/6

vt -9.99201e-015 9.99201e-015
f 27/37/6 9/36/6 10/39/6

vt 39.3701 24.6063
f 11/16/3 27/40/3 10/15/3

v 1 0 -0
vt 39.3701 0
f 27/40/3 11/16/3 28/41/3

f 11/16/1 14/25/1 28/30/1

f 14/25/1 11/16/1 13/23/1

f 28/30/1 14/25/1 25/34/1

f 24/24/1 25/34/1 14/25/1

usemtl Glass
f 14/17/2 16/26/2 24/32/2

f 16/26/2 14/17/2 15/13/2

usemtl Brick
vn 1 0 -0
f 25/41/7 27/15/7 28/16/7

f 27/15/7 25/41/7 26/40/7

v 0.1 0.078125 -0.71875
f 18/12/5 29/20/5 22/10/5

v 0.1 0.5 -0.71875
f 29/20/5 18/12/5 30/21/5

vt 0 28.2972
v 0.1 0.5 -0.90625
vt -3.93701 35.6791
vt -3.93701 28.2972
f 18/42/1 31/43/1 30/44/1

vt 0 35.6791
f 31/43/1 18/42/1 19/45/1

f 20/10/3 31/9/3 19/12/3

v 0.1 0.078125 -0.90625
f 31/9/3 20/10/3 32/11/3

vn 0 1 -0
vt 3.93701 28.2972
vt 3.93701 35.6791
f 20/45/8 29/46/8 32/47/8

f 29/46/8 20/45/8 22/42/8

usemtl Glass
f 29/31/2 31/28/2 32/29/2

f 31/28/2 29/31/2 30/27/2

