# Alias OBJ Model File
# Exported from SketchUp, (c) 2000-2012 Trimble Navigation Limited
# File units = meters

mtllib modularBuildings_007.mtl

g Mesh1 Group1 Model

usemtl Brick
v 0.125 0.10625 -1
vt 39.3701 4.18307
vn 1 0 -0
v 0.125 0.2125 -0.5
vt 19.685 8.36614
v 0.125 0.10625 -0.5
vt 19.685 4.18307
f 1/1/1 2/2/1 3/3/1

v 0.125 0.2125 -1
vt 39.3701 8.36614
f 2/2/1 1/1/1 4/4/1

vt -4.92126 4.18307
vn 7.82287e-015 1.95031e-014 -1
v 0 0.2125 -1
vt 3.07987e-013 8.36614
vt -4.92126 8.36614
f 1/5/2 5/6/2 4/7/2

v 0 0 -1
vt 3.07987e-013 -7.6784e-013
f 1/5/2 6/8/2 5/6/2

v 1 0 -1
vt -39.3701 -7.6784e-013
f 6/8/2 1/5/2 7/9/2

v 0.875 0.10625 -1
vt -34.4488 4.18307
f 8/10/2 7/9/2 1/5/2

v 1 0.2125 -1
vt -39.3701 8.36614
f 7/9/2 8/10/2 9/11/2

v 0.875 0.2125 -1
vt -34.4488 8.36614
f 9/11/2 8/10/2 10/12/2

v 0.875 0.10625 -0.875
vn -1 9.02389e-017 -0
vt -39.3701 4.18307
f 11/10/3 10/11/3 8/13/3

v 0.875 0.2125 -0.875
f 10/11/3 11/10/3 12/12/3

vt 34.4488 4.18307
vn 0 9.02389e-017 1
v 1 0.2125 -0.875
vt 34.4488 8.36614
f 11/14/4 13/4/4 12/15/4

v 1 0.10625 -0.875
f 13/4/4 11/14/4 14/1/4

vt 34.4488 34.4488
vn -2.01995e-017 1 2.01995e-017
v 1 0.10625 -0.125
vt 39.3701 4.92126
vt 39.3701 34.4488
f 11/16/5 15/17/5 14/18/5

v 0.5 0.10625 -0.125
vt 19.685 4.92126
f 15/17/5 11/16/5 16/19/5

vt 34.4488 39.3701
f 8/20/5 16/19/5 11/16/5

vt 4.92126 39.3701
f 1/21/5 16/19/5 8/20/5

vt 4.92126 19.685
f 16/19/5 1/21/5 3/22/5

vt 10.4396 8.36614
vn 0.707107 0 -0.707107
vt -10.4396 4.18307
vt 10.4396 4.18307
f 2/23/6 16/24/6 3/25/6

v 0.5 0.2125 -0.125
vt -10.4396 8.36614
f 16/24/6 2/23/6 17/26/6

vn 0 1 -0
v 0.5 0.2125 -0
vt 19.685 0
f 2/22/7 18/27/7 17/19/7

v 0 0.2125 -0.5
vt 0 19.685
f 2/22/7 19/28/7 18/27/7

vt 0 39.3701
f 19/28/7 2/22/7 5/29/7

f 4/21/7 5/29/7 2/22/7

vn -1 4.24654e-016 -1.80478e-016
v 0 1.08287e-015 -0.5
vt -19.685 4.26326e-014
vt -19.685 8.36614
f 5/11/8 20/30/8 19/31/8

vt -39.3701 -3.01735e-030
f 20/30/8 5/11/8 6/32/8

vt -39.3701 39.3701
vn -8.31983e-016 -1 6.25723e-016
vt 3.54696e-029 19.685
f 7/33/9 20/34/9 6/29/9

v 0.5 5.41434e-016 -0
vt -19.685 -2.35859e-029
f 20/34/9 7/33/9 21/35/9

v 1 0 -0
vt -39.3701 -2.04957e-029
f 21/35/9 7/33/9 22/36/9

vt 4.92126 4.18307
vn 1 1.85759e-015 -7.72169e-017
vt -3.04004e-015 -7.31335e-014
vt 39.3701 -7.31335e-014
f 15/37/10 22/38/10 7/39/10

v 1 0.2125 -0
vt -3.04004e-015 8.36614
f 22/38/10 15/37/10 23/40/10

v 1 0.2125 -0.125
vt 4.92126 8.36614
f 24/41/10 23/40/10 15/37/10

vt 39.3701 0
f 17/19/7 23/42/7 24/17/7

f 17/19/7 18/27/7 23/42/7

vt 19.685 2.13163e-014
vn 0 0 1
f 21/43/11 23/4/11 18/2/11

f 23/4/11 21/43/11 22/42/11

vt 13.9194 8.36614
vn -0.707107 5.74268e-016 0.707107
vt -13.9194 5.0626e-014
vt 13.9194 2.93098e-014
f 18/44/12 20/45/12 21/46/12

vt -13.9194 8.36614
f 20/45/12 18/44/12 19/47/12

vn 0 0 -1
f 15/13/13 17/31/13 24/11/13

vt -19.685 4.18307
f 17/31/13 15/13/13 16/48/13

f 15/37/10 7/39/10 14/14/10

f 14/14/10 7/39/10 13/15/10

f 13/15/10 7/39/10 9/4/10

vn 9.02389e-017 1 -9.02389e-017
vt 39.3701 39.3701
f 10/20/14 13/18/14 9/49/14

f 13/18/14 10/20/14 12/16/14

