# Alias OBJ Model File
# Exported from SketchUp, (c) 2000-2012 Trimble Navigation Limited
# File units = meters

mtllib modularBuildings_062.mtl

g Mesh1 Group1 Model

usemtl Brick
v 0 0.625 -1
vt 0 24.6063
vn 0 0 -1
v 1 0 -1
vt -39.3701 0
v 0 0 -1
vt 0 0
f 1/1/1 2/2/1 3/3/1

v 1 0.625 -1
vt -39.3701 24.6063
f 2/2/1 1/1/1 4/4/1

vt 3.33067e-015 39.3701
vn -1.35358e-016 1 -1.35358e-016
v 1 0.625 -0
vt 39.3701 -3.33067e-015
vt 39.3701 39.3701
f 1/5/2 5/6/2 4/7/2

v 0 0.625 -0
vt 3.33067e-015 -3.33067e-015
f 5/6/2 1/5/2 6/8/2

v 0 0.5 -0.5625
vt -22.1457 19.685
vn -1 0 -0
f 7/9/3 6/1/3 1/4/3

v 0 0 -0
f 6/1/3 7/9/3 8/3/3

v 0 0.06 -0.5625
vt -22.1457 2.3622
f 9/10/3 8/3/3 7/9/3

f 8/3/3 9/10/3 3/2/3

v 0 0.06 -0.875
vt -34.4488 2.3622
f 3/2/3 9/10/3 10/11/3

usemtl FrontColor
v 0.1 0.06 -0.875
vt -3.93701 34.4488
vn 0 -1 -0
vt 0 22.1457
vt 0 34.4488
f 11/12/4 9/13/4 10/14/4

v 0.1 0.06 -0.5625
vt -3.93701 22.1457
f 9/13/4 11/12/4 12/15/4

vt 34.4488 2.3622
vn 1 0 -0
v 0.1 0.12 -0.5625
vt 22.1457 4.72441
vt 22.1457 2.3622
f 11/16/5 13/17/5 12/18/5

v 0.1 0.12 -0.875
vt 34.4488 4.72441
f 13/17/5 11/16/5 14/19/5

vt -3.93701 2.3622
v 0 0.12 -0.875
vt 0 4.72441
vt -3.93701 4.72441
f 11/20/1 15/21/1 14/22/1

vt 0 2.3622
f 15/21/1 11/20/1 10/23/1

usemtl Brick
v -0.05 0.12 -0.875
vt 1.9685 4.72441
f 10/23/1 16/24/1 15/21/1

v -0.05 0.06 -0.875
vt 1.9685 2.3622
f 16/24/1 10/23/1 17/25/1

v -0.05 0.06 -0.5625
vt 1.9685 22.1457
vt 1.9685 34.4488
f 10/14/4 18/26/4 17/27/4

f 18/26/4 10/14/4 9/13/4

v 0 0.12 -0.5625
vn 0 0 1
vt -1.9685 2.3622
f 19/21/6 18/28/6 9/23/6

v -0.05 0.12 -0.5625
vt -1.9685 4.72441
f 18/28/6 19/21/6 20/29/6

usemtl FrontColor
f 20/26/4 15/14/4 19/13/4

f 15/14/4 20/26/4 16/27/4

usemtl Brick
vt -34.4488 4.72441
vt -22.1457 4.72441
f 16/30/3 18/10/3 20/31/3

f 18/10/3 16/30/3 17/11/3

usemtl FrontColor
f 19/13/4 15/14/4 14/12/4

usemtl Brick
v 0.1 0.5 -0.875
vt 3.93701 19.685
vt 3.93701 4.72441
f 21/32/6 15/21/6 14/33/6

v 0 0.5 -0.875
vt 0 19.685
f 15/21/6 21/32/6 22/34/6

f 21/12/4 7/13/4 22/14/4

v 0.1 0.5 -0.5625
f 7/13/4 21/12/4 23/15/4

usemtl Glass
vt -34.4488 19.685
f 21/35/3 13/31/3 23/9/3

f 13/31/3 21/35/3 14/30/3

usemtl FrontColor
f 19/13/4 14/12/4 13/15/4

usemtl Brick
f 7/34/1 13/22/1 19/21/1

vt -3.93701 19.685
f 13/22/1 7/34/1 23/36/1

usemtl FrontColor
f 9/23/6 13/33/6 19/21/6

vt 3.93701 2.3622
f 13/33/6 9/23/6 12/37/6

usemtl Brick
f 9/10/3 7/9/3 19/31/3

f 7/9/3 1/4/3 22/35/3

f 22/35/3 1/4/3 15/30/3

f 15/30/3 1/4/3 10/11/3

f 3/2/3 10/11/3 1/4/3

vt -39.3701 39.3701
vt 0 39.3701
f 2/38/4 8/3/4 3/39/4

v 1 0 -0
f 8/3/4 2/38/4 24/2/4

vt 39.3701 0
f 2/40/5 5/1/5 24/3/5

vt 39.3701 24.6063
f 5/1/5 2/40/5 4/41/5

f 5/41/6 8/3/6 24/40/6

f 8/3/6 5/41/6 6/1/6

