# Alias OBJ Model File
# Exported from SketchUp, (c) 2000-2012 Trimble Navigation Limited
# File units = meters

mtllib modularBuildings_002.mtl

g Mesh1 Group1 Model

usemtl Brick
v 0 0.2125 -0.0625
vt -2.46063 8.36614
vn -1 0 -0
v 0 0.10625 -0.9375
vt -36.9094 4.18307
v 0 0.10625 -0.0625
vt -2.46063 4.18307
f 1/1/1 2/2/1 3/3/1

v 0 0.2125 -0.9375
vt -36.9094 8.36614
f 2/2/1 1/1/1 4/4/1

v 0.0625 0.2125 -1.44382e-015
vt 2.46063 6.25089e-014
vn 4.85533e-016 1 6.77191e-016
vt -4.06204e-015 36.9094
vt -4.06204e-015 2.46063
f 5/5/2 4/6/2 1/7/2

v 0.0625 0.2125 -1
vt 2.46063 39.3701
f 4/6/2 5/5/2 6/8/2

v 0.9375 0.2125 -1.44382e-015
vt 36.9094 6.25089e-014
f 6/8/2 5/5/2 7/9/2

v 0.0625 0.10625 -0
vt 2.46063 4.18307
vn 8.25042e-016 6.79446e-015 1
vt 36.9094 8.36614
vt 2.46063 8.36614
f 8/10/3 7/11/3 5/12/3

v 0.9375 0.10625 -1.44382e-015
vt 36.9094 4.18307
f 7/11/3 8/10/3 9/13/3

usemtl FrontColor
v 0.0625 0.10625 -1
vn -2.19768e-015 1 2.59377e-015
vt 2.46063 1.08499e-014
vt 36.9094 6.76933e-014
f 10/8/4 8/14/4 9/15/4

vt 9.19304e-015 36.9094
f 2/16/4 8/14/4 10/8/4

vt 9.19304e-015 2.46063
f 8/14/4 2/16/4 3/17/4

usemtl Dark_brick
v 0 0 -1
vt -39.3701 0
f 11/18/1 3/3/1 2/2/1

v 0 0 -1.44382e-015
vt -5.68434e-014 0
f 12/19/1 3/3/1 11/18/1

v 0 0.10625 -0
vt 0 4.18307
f 3/3/1 12/19/1 13/20/1

vt 5.56419e-029 -3.8622e-028
vn 9.78863e-016 -6.79446e-015 1
f 12/21/5 8/10/5 13/20/5

v 1 0.10625 -1.44382e-015
vt 39.3701 4.18307
f 12/21/5 14/22/5 8/10/5

v 1 0 -1.44382e-015
vt 39.3701 -1.24376e-028
f 14/22/5 12/21/5 15/23/5

vt 0 5.68434e-014
vn 0 -1 -0
v 1 0 -1
vt -39.3701 39.3701
vt -39.3701 5.68434e-014
f 12/24/6 16/25/6 15/26/6

vt 0 39.3701
f 16/25/6 12/24/6 11/27/6

v 0 0.10625 -1
vt -3.85379e-014 4.18307
vn -9.78863e-016 -6.79446e-015 -1
vt -39.3701 2.67498e-013
vt -3.85379e-014 2.67498e-013
f 17/28/7 16/29/7 11/30/7

f 16/29/7 17/28/7 10/3/7

vn 0 1 -0
vt 0 36.9094
f 10/8/8 17/27/8 2/31/8

vt -39.3701 4.18307
f 11/18/1 2/2/1 17/32/1

usemtl Brick
vt -26.0989 8.36614
vn -0.707107 0 -0.707107
vt -29.5788 4.18307
vt -26.0989 4.18307
f 4/33/9 10/34/9 2/35/9

vt -29.5788 8.36614
f 10/34/9 4/33/9 6/36/9

vn -8.25042e-016 6.79446e-015 -1
v 0.9375 0.10625 -1
f 6/1/10 18/2/10 10/3/10

v 0.9375 0.2125 -1
f 18/2/10 6/1/10 19/4/10

vt 36.9094 39.3701
f 6/8/2 7/9/2 19/37/2

v 1 0.2125 -0.0625
vt 39.3701 2.46063
f 19/37/2 7/9/2 20/38/2

vt 26.0989 8.36614
vn 0.707107 0 0.707107
v 1 0.10625 -0.0625
vt 29.5788 4.18307
vt 29.5788 8.36614
f 7/39/11 21/40/11 20/41/11

vt 26.0989 4.18307
f 21/40/11 7/39/11 9/42/11

usemtl FrontColor
f 18/37/4 9/15/4 21/38/4

f 10/8/4 9/15/4 18/37/4

usemtl Dark_brick
v 1 0.10625 -1
f 22/32/7 10/3/7 18/2/7

f 16/29/7 10/3/7 22/32/7

v 1 0.10625 -0.9375
vn 1 0 -0
vt 39.3701 0
f 23/13/12 16/43/12 22/22/12

f 21/10/12 16/43/12 23/13/12

vt 5.68434e-014 4.18307
f 14/44/12 16/43/12 21/10/12

vt 5.68434e-014 0
f 16/43/12 14/44/12 15/45/12

vt 36.9094 5.68434e-014
vt 39.3701 5.68434e-014
f 21/38/8 9/46/8 14/47/8

f 8/10/5 14/22/5 9/13/5

usemtl FrontColor
vt 39.3701 36.9094
f 18/37/4 21/38/4 23/48/4

usemtl Brick
f 23/13/12 20/12/12 21/10/12

v 1 0.2125 -0.9375
f 20/12/12 23/13/12 24/11/12

vt -1.73993 4.18307
vn 0.707107 4.08375e-015 -0.707107
vt 1.73993 8.36614
vt -1.73993 8.36614
f 23/49/13 19/50/13 24/51/13

vt 1.73993 4.18307
f 19/50/13 23/49/13 18/52/13

usemtl Dark_brick
vt 39.3701 39.3701
vn 0 1 5.77529e-015
f 22/53/14 18/37/14 23/48/14

usemtl Brick
f 19/37/2 20/38/2 24/48/2

usemtl Dark_brick
vt 2.46063 -2.41585e-014
vn 5.77529e-015 1 -5.77529e-015
vt -2.41585e-014 2.46063
vt -2.41585e-014 -2.41585e-014
f 8/54/15 3/55/15 13/56/15

usemtl Brick
vn -0.707107 8.1675e-015 0.707107
f 5/50/16 3/49/16 8/52/16

f 3/49/16 5/50/16 1/51/16

