# Alias OBJ Model File
# Exported from SketchUp, (c) 2000-2012 Trimble Navigation Limited
# File units = meters

mtllib modularBuildings_050.mtl

g Mesh1 Group1 Model

usemtl Brick
v 3.60956e-016 0.625 -1
vt -39.3701 24.6063
vn -1 2.88765e-016 -3.60956e-016
v 0 5.86553e-016 -0.5
vt -19.685 2.30926e-014
v 3.60956e-016 0.625 -0.5
vt -19.685 24.6063
f 1/1/1 2/2/1 3/3/1

v 3.60956e-016 0 -1
vt -39.3701 -4.90454e-045
f 2/2/1 1/1/1 4/4/1

vt -1.42109e-014 24.6063
vn 0 0 -1
v 1 0 -1
vt -39.3701 0
vt -1.42109e-014 0
f 1/5/2 5/6/2 4/7/2

v 1 0.625 -1
f 5/6/2 1/5/2 6/1/2

vt 5.32907e-015 39.3701
vn 3.60956e-016 1 7.21911e-016
v 0.5 0.625 -0
vt 19.685 1.77636e-014
vt 39.3701 39.3701
f 1/8/3 7/9/3 6/10/3

vt 5.32907e-015 19.685
f 7/9/3 1/8/3 3/11/3

v 0.360485 0.5025 -0.139515
vt 6.15157 19.7835
vn -0.707107 3.98312e-016 0.707107
vt 13.9194 24.6063
vt -13.9194 24.6063
f 8/12/4 7/13/4 3/14/4

v 0.5 4.51195e-017 -0
vt 13.9194 7.32064e-015
f 7/13/4 8/12/4 9/15/4

v 0.360485 0.1225 -0.139515
vt 6.15157 4.82283
f 10/16/4 9/15/4 8/12/4

vt -13.9194 2.86369e-014
f 9/15/4 10/16/4 2/17/4

v 0.139515 0.1225 -0.360485
vt -6.15157 4.82283
f 2/17/4 10/16/4 11/18/4

vt 14.1923 5.4927
vn -3.84665e-016 1 4.86759e-016
v 0.210225 0.1225 -0.431196
vt 8.27658 16.9762
vt 5.4927 14.1923
f 10/19/5 12/20/5 11/21/5

v 0.431196 0.1225 -0.210225
vt 16.9762 8.27658
f 12/20/5 10/19/5 13/22/5

vt -13.9194 4.82283
vn -0.707107 0 -0.707107
v 0.431196 0.5025 -0.210225
vt -17.8564 19.7835
vt -17.8564 4.82283
f 10/23/6 14/24/6 13/25/6

vt -13.9194 19.7835
f 14/24/6 10/23/6 8/26/6

vt -14.1923 5.4927
vn 4.35712e-016 -1 -4.35712e-016
v 0.210225 0.5025 -0.431196
vt -8.27658 16.9762
vt -16.9762 8.27658
f 8/27/7 15/28/7 14/29/7

v 0.139515 0.5025 -0.360485
vt -5.4927 14.1923
f 15/28/7 8/27/7 16/30/7

vt -6.15157 19.7835
f 8/12/4 3/14/4 16/31/4

f 16/31/4 3/14/4 11/18/4

f 2/17/4 11/18/4 3/14/4

vt 17.8564 4.82283
vn 0.707107 6.71669e-016 0.707107
vt 13.9194 19.7835
vt 13.9194 4.82283
f 12/32/8 16/33/8 11/34/8

vt 17.8564 19.7835
f 16/33/8 12/32/8 15/35/8

usemtl Glass
vn -0.707107 -6.1619e-016 0.707107
f 12/18/9 14/12/9 15/31/9

f 14/12/9 12/18/9 13/16/9

usemtl Brick
vt -1.42109e-014 39.3701
vn -1.98526e-016 -1 -1.80478e-017
vt -19.685 1.0259e-031
vt 4.58448e-030 19.685
f 4/36/10 9/37/10 2/38/10

vt -39.3701 39.3701
f 9/37/10 4/36/10 5/39/10

v 1 0 -0
vt -39.3701 1.41061e-031
f 9/37/10 5/39/10 17/40/10

vt 39.3701 0
vn 1 0 -0
v 1 0.625 -0
vt 0 24.6063
vt 0 0
f 5/41/11 18/42/11 17/43/11

vt 39.3701 24.6063
f 18/42/11 5/41/11 6/44/11

vt 39.3701 1.77636e-014
f 6/10/3 7/9/3 18/45/3

vt 19.685 1.77636e-015
vn 0 0 1
vt 19.685 24.6063
f 9/46/12 18/44/12 7/47/12

f 18/44/12 9/46/12 17/41/12

