# Alias OBJ Model File
# Exported from SketchUp, (c) 2000-2012 Trimble Navigation Limited
# File units = meters

mtllib modularBuildings_005.mtl

g Mesh1 Group1 Model

usemtl Brick
v 0 0.2125 -1
vt 2.24491e-031 8.36614
vn 5.70206e-033 -3.39723e-015 -1
v 1 0.10625 -1
vt -39.3701 4.18307
v 3.60956e-016 0.10625 -1
vt -1.42109e-014 4.18307
f 1/1/1 2/2/1 3/3/1

v 1 0.2125 -1
vt -39.3701 8.36614
f 2/2/1 1/1/1 4/4/1

vt -4.52971e-015 39.3701
vn 5.41434e-016 1 5.41434e-016
v 1 0.2125 -0
vt 39.3701 4.52971e-015
vt 39.3701 39.3701
f 1/5/2 5/6/2 4/7/2

v 0 0.2125 -0
vt -4.52971e-015 4.52971e-015
f 5/6/2 1/5/2 6/8/2

vn -1 -3.39723e-015 -1.27223e-032
v 3.60956e-016 0.10625 -0
vt -1.80795e-046 4.18307
vt 0 8.36614
f 1/4/3 7/9/3 6/10/3

f 7/9/3 1/4/3 3/2/3

vt -39.3701 39.3701
vn -5.41434e-016 -1 -5.41434e-016
vt -1.1946e-014 2.26485e-015
vt -1.1946e-014 39.3701
f 2/11/4 7/12/4 3/13/4

v 1 0.10625 -0
vt -39.3701 2.26485e-015
f 7/12/4 2/11/4 8/14/4

usemtl Dark_brick
vt -2.27977e-030 4.18307
vn 1 2.21206e-029 -5.79062e-032
v 1 0 -1
vt 39.3701 -8.70889e-028
vt 39.3701 4.18307
f 8/15/5 9/16/5 2/17/5

v 1 0 -0
vt -2.27977e-030 -8.70889e-028
f 9/16/5 8/15/5 10/18/5

vn 0 0 1
v 0 0 -0
vt 0 0
vt 39.3701 0
f 8/17/6 11/19/6 10/20/6

vt 1.42109e-014 4.18307
f 11/19/6 8/17/6 7/21/6

usemtl Brick
vt 39.3701 8.36614
f 5/22/6 7/21/6 8/17/6

f 7/21/6 5/22/6 6/10/6

vn 1 3.39723e-015 3.68804e-030
vt 1.45198e-028 8.36614
vt 1.45198e-028 4.18307
f 2/17/7 5/23/7 8/24/7

f 5/23/7 2/17/7 4/22/7

usemtl Dark_brick
vn -1 -1.92353e-029 5.79062e-032
vt 8.22897e-046 4.18307
f 3/2/8 11/19/8 7/25/8

v 0 0 -1
vt -39.3701 -4.38521e-059
f 11/19/8 3/2/8 12/26/8

vn 1.15812e-031 -1.92353e-029 -1
vt -39.3701 7.57295e-028
vt 4.55955e-030 7.57295e-028
f 3/3/9 9/27/9 12/28/9

f 9/27/9 3/3/9 2/2/9

vn 0 -1 -0
vt 0 39.3701
f 9/11/10 11/19/10 12/29/10

vt -39.3701 0
f 11/19/10 9/11/10 10/30/10

