# Alias OBJ Model File
# Exported from SketchUp, (c) 2000-2012 Trimble Navigation Limited
# File units = meters

mtllib modularBuildings_017.mtl

g Mesh1 Group1 Model

usemtl Brick
v 1 0 -1
vt -39.3701 39.3701
vn -1.54695e-017 -1 -2.57826e-018
v 0 4.51195e-017 -0.5
vt 2.74794e-032 19.685
v 0 0 -1
vt 0 39.3701
f 1/1/1 2/2/1 3/3/1

v 0.5 0 -0
vt -19.685 7.85126e-034
f 2/2/1 1/1/1 4/4/1

v 1 0 -0
vt -39.3701 1.57025e-033
f 4/4/1 1/1/1 5/5/1

vt 39.3701 0
vn 1 0 -0
v 1 0.10625 -0
vt 0 4.18307
vt 0 0
f 1/6/2 6/7/2 5/8/2

v 1 0.10625 -1
vt 39.3701 4.18307
f 6/7/2 1/6/2 7/9/2

vt -39.3701 0
vn 0 0 -1
v 0 0.10625 -1
vt -39.3701 4.18307
f 1/10/3 8/7/3 7/11/3

f 8/7/3 1/10/3 3/8/3

vt -19.685 1.77636e-015
vn -1 0 -0
f 2/12/4 8/11/4 3/10/4

v 0 0.10625 -0.5
vt -19.685 4.18307
f 8/11/4 2/12/4 9/13/4

vt 13.9194 1.99837e-015
vn -0.707107 1.43567e-016 0.707107
vt -13.9194 4.18307
vt -13.9194 3.77473e-015
f 4/14/5 9/15/5 2/16/5

v 0.5 0.10625 -0
vt 13.9194 4.18307
f 9/15/5 4/14/5 10/17/5

vt 19.685 0
vn 0 0 1
vt 19.685 4.18307
f 4/18/6 6/9/6 10/19/6

f 6/9/6 4/18/6 5/6/6

vt 39.3701 39.3701
vn -3.44299e-032 1 9.02389e-017
vt 19.685 3.77476e-016
vt 39.3701 3.77476e-016
f 7/20/7 10/21/7 6/22/7

vt 1.44023e-031 39.3701
f 8/23/7 10/21/7 7/20/7

vt 1.44023e-031 19.685
f 10/21/7 8/23/7 9/24/7

