# Alias OBJ Model File
# Exported from SketchUp, (c) 2000-2012 Trimble Navigation Limited
# File units = meters

mtllib modularBuildings_004.mtl

g Mesh1 Group1 Model

usemtl Dark_brick
v 1 0 -1
vt -39.3701 39.3701
vn 0 -1 -0
v 0 0 -0
vt 0 0
v 0 0 -1
vt 0 39.3701
f 1/1/1 2/2/1 3/3/1

v 1 0 -0
vt -39.3701 0
f 2/2/1 1/1/1 4/4/1

vt 39.3701 -3.68912
vn 0.9956 0.0937035 5.09507e-017
v 0.99 0.10625 -0.01
vt 0.393701 0.512441
vt 2.0148e-015 -3.68912
f 1/5/2 5/6/2 4/7/2

v 0.99 0.10625 -0.99
vt 38.9764 0.512441
f 5/6/2 1/5/2 6/8/2

vt -39.3701 -3.68912
vn -1.88301e-019 0.0937035 -0.9956
v 0.01 0.10625 -0.99
vt -0.393701 0.512441
vt -38.9764 0.512441
f 1/9/3 7/10/3 6/11/3

vt -7.44617e-018 -3.68912
f 7/10/3 1/9/3 3/12/3

vt -39.3701 -2.2708e-018
vn -0.9956 0.0937035 -6.12833e-019
v 0.01 0.10625 -0.01
vt -0.393701 4.20156
vt -38.9764 4.20156
f 3/13/4 8/14/4 7/15/4

f 8/14/4 3/13/4 2/2/4

vn 5.0646e-017 0.0937035 0.9956
vt 38.9764 4.20156
vt 0.393701 4.20156
f 2/2/5 5/16/5 8/17/5

vt 39.3701 -1.87665e-016
f 5/16/5 2/2/5 4/18/5

vt -0.393701 0.393701
vn -5.52483e-016 -1 -5.52483e-016
vt -38.9764 38.9764
vt -38.9764 0.393701
f 8/19/6 6/20/6 5/21/6

vt -0.393701 38.9764
f 6/20/6 8/19/6 7/22/6

vt -0.393701 4.12777
vn -0.9956 -0.0937035 -1.74606e-019
v 0 0.2125 -1
vt -39.3701 8.32933
vt -38.9764 4.12777
f 8/23/7 9/24/7 7/25/7

v 0 0.2125 -0
vt -2.40741e-035 8.32933
f 9/24/7 8/23/7 10/26/7

vt 0.393701 4.12777
vn -1.02442e-016 -0.0937035 0.9956
v 1 0.2125 -0
vt 39.3701 8.32933
vt 1.2326e-032 8.32933
f 8/27/8 11/28/8 10/29/8

vt 38.9764 4.12777
f 11/28/8 8/27/8 5/30/8

vt 0.393701 7.81689
vn 0.9956 -0.0937035 -1.02281e-016
v 1 0.2125 -1
vt 39.3701 12.0184
vt -4.04462e-015 12.0184
f 5/31/9 12/32/9 11/33/9

vt 38.9764 7.81689
f 12/32/9 5/31/9 6/34/9

vt -38.9764 7.81689
vn -1.88301e-019 -0.0937035 -0.9956
vt -7.44617e-018 12.0184
vt -39.3701 12.0184
f 6/35/10 9/36/10 12/37/10

vt -0.393701 7.81689
f 9/36/10 6/35/10 7/38/10

vt -4.52971e-015 39.3701
vn 5.41434e-016 1 5.41434e-016
vt 39.3701 4.52971e-015
vt 39.3701 39.3701
f 9/39/11 11/40/11 12/41/11

vt -4.52971e-015 4.52971e-015
f 11/40/11 9/39/11 10/42/11

