# Alias OBJ Model File
# Exported from SketchUp, (c) 2000-2012 Trimble Navigation Limited
# File units = meters

mtllib modularBuildings_037.mtl

g Mesh1 Group1 Model

usemtl Brick
v 1 0 -1
vt 39.3701 0
vn 1 0 -0
v 1 0.625 -0
vt 0 24.6063
v 1 0 -0
vt 0 0
f 1/1/1 2/2/1 3/3/1

v 1 0.625 -1
vt 39.3701 24.6063
f 2/2/1 1/1/1 4/4/1

vt -39.3701 0
vn 0 0 -1
v 0 0.625 -1
vt -39.3701 24.6063
f 1/5/2 5/2/2 4/6/2

v 0 0 -1
f 5/2/2 1/5/2 6/3/2

vt -39.3701 39.3701
vn -5.72373e-016 -1 3.55799e-016
v 0 1.08287e-015 -0
vt 2.44017e-029 -1.51686e-029
vt 0 39.3701
f 1/7/3 7/8/3 6/9/3

vt -39.3701 -8.01771e-030
f 7/8/3 1/7/3 3/10/3

vn 0 0 1
vt 0 4.26326e-014
f 2/4/4 7/11/4 3/1/4

v 0.5 0.625 -0
vt 19.685 24.6063
f 7/11/4 2/4/4 8/12/4

vt 39.3701 39.3701
vn 3.60956e-016 1 7.21911e-016
vt 19.685 1.77636e-014
vt 39.3701 1.77636e-014
f 4/13/5 8/14/5 2/15/5

vt -8.88178e-015 39.3701
f 5/16/5 8/14/5 4/13/5

v 0 0.625 -0.5
vt -8.88178e-015 19.685
f 8/14/5 5/16/5 9/17/5

vt -39.3701 -1.18296e-045
vn -1 1.9251e-016 -1.56082e-031
vt -19.685 24.6063
f 6/18/6 9/19/6 5/6/6

f 9/19/6 6/18/6 7/11/6

vt -13.9194 28.2705
vn -0.615457 0.492366 0.615457
vt 0 3.71069e-014
vt 13.9194 28.2705
f 9/20/7 7/21/7 8/22/7

