# Alias OBJ Model File
# Exported from SketchUp, (c) 2000-2012 Trimble Navigation Limited
# File units = meters

mtllib modularBuildings_052.mtl

g Mesh1 Group1 Model

usemtl Roof
v -1.11877 0.0177648 -1
vt 44.046 0.699401
vn 6.59696e-015 -9.67806e-015 -1
v -1 0 -1
vt 39.3701 3.81026e-013
v -1.09055 -0.0424434 -1
vt 42.9349 -1.671
f 1/1/1 2/2/1 3/3/1

v -1.44382e-015 0.46875 -1
vt 3.16566e-013 18.4547
f 2/2/1 1/1/1 4/4/1

v -0.05 0.51875 -1
vt 1.9685 20.4232
f 4/4/1 1/1/1 5/5/1

v -1.11877 0.0177648 -0
vt -6.52583e-014 -39.585
vn -0.424434 0.905459 6.28838e-016
vt -39.3701 6.88591
vt -39.3701 -39.585
f 6/6/2 5/7/2 1/8/2

v -0.05 0.51875 -0
vt -2.91652e-015 6.88591
f 5/7/2 6/6/2 7/9/2

vt -44.046 0.699401
vn -9.08905e-015 2.28068e-014 1
v 0 0.46875 -0
vt 0 18.4547
vt -1.9685 20.4232
f 6/10/3 8/11/3 7/12/3

v -1 0 -0
vt -39.3701 -8.16112e-027
f 6/10/3 9/13/3 8/11/3

v -1.09055 -0.0424434 5.77529e-015
vt -42.9349 -1.671
f 9/13/3 6/10/3 10/14/3

vt -1.27193e-013 19.3279
vn -0.905459 -0.424434 2.61471e-015
vt -39.3701 16.71
vt 1.0339e-013 16.71
f 6/15/4 3/16/4 10/17/4

vt -39.3701 19.3279
f 3/16/4 6/15/4 1/18/4

vt 39.3701 -35.648
vn 0.424434 -0.905459 -1.22538e-015
vt -1.03417e-013 -39.585
vt 39.3701 -39.585
f 2/19/5 10/20/5 3/21/5

vt 1.13665e-013 -35.648
f 10/20/5 2/19/5 9/22/5

usemtl Brick
v -1.44382e-015 0 -1
vt 5.68434e-014 39.3701
vn 0 -1 -0
vt 39.3701 0
vt 39.3701 39.3701
f 11/23/6 9/24/6 2/25/6

v 0 0 -0
vt 0 0
f 9/24/6 11/23/6 12/26/6

vn 1 0 -1.44382e-015
f 11/24/7 8/11/7 12/26/7

v 0 0.51875 -0
vt 0 20.4232
f 8/11/7 11/24/7 13/27/7

v -1.44382e-015 0.51875 -1
vt 39.3701 20.4232
f 13/27/7 11/24/7 14/28/7

vt 39.3701 18.4547
f 14/28/7 11/24/7 4/29/7

vt 5.68434e-014 18.4547
vn 0 0 -1
vt 5.68434e-014 0
f 4/30/8 11/31/8 2/24/8

usemtl Roof
vt 3.16566e-013 20.4232
f 4/4/1 5/5/1 14/32/1

vt -1.9685 39.3701
vn 0 1 -0
vt -5.68434e-014 39.3701
f 5/33/9 13/26/9 14/34/9

vt -1.9685 0
f 13/26/9 5/33/9 7/35/9

f 7/12/3 8/11/3 13/27/3

usemtl Brick
vn 0 0 1
vt -39.3701 0
f 8/11/10 9/36/10 12/26/10

