# Alias OBJ Model File
# Exported from SketchUp, (c) 2000-2012 Trimble Navigation Limited
# File units = meters

mtllib modularBuildings_049.mtl

g Mesh1 Group1 Model

usemtl Brick
v 0.5 0.625 -0
vt 19.685 2.18744e-014
vn 1.53182e-016 1 8.88976e-016
v 0.431196 0.625 -0.210225
vt 16.9762 8.27658
v 0.360485 0.625 -0.139515
vt 14.1923 5.4927
f 1/1/1 2/2/1 3/3/1

v 1 0.625 -1
vt 39.3701 39.3701
f 4/4/1 2/2/1 1/1/1

v 0.210225 0.625 -0.431196
vt 8.27658 16.9762
f 4/4/1 5/5/1 2/2/1

v 0 0.625 -1
vt -3.76924e-015 39.3701
f 6/6/1 5/5/1 4/4/1

v 0.139515 0.625 -0.360485
vt 5.4927 14.1923
f 6/6/1 7/7/1 5/5/1

v 0 0.625 -0.5
vt -3.76924e-015 19.685
f 7/7/1 6/6/1 8/8/1

vt -39.3701 24.6063
vn -1 2.88765e-016 -3.60956e-016
v 0 5.86553e-016 -0.5
vt -19.685 2.30926e-014
vt -19.685 24.6063
f 6/9/2 9/10/2 8/11/2

v 0 0 -1
vt -39.3701 -4.10359e-030
f 9/10/2 6/9/2 10/12/2

vt 0 24.6063
vn 0 0 -1
v 1 0 -1
vt -39.3701 0
vt 0 0
f 6/13/3 11/14/3 10/15/3

f 11/14/3 6/13/3 4/9/3

v 1 0.625 -0
vn 1 0 -0
vt 39.3701 0
vt 39.3701 24.6063
f 12/13/4 11/16/4 4/17/4

v 1 0 -0
f 11/16/4 12/13/4 13/15/4

vn 0 0 1
v 0.5 4.51195e-017 -0
vt 19.685 1.77636e-015
f 12/17/5 14/18/5 13/16/5

vt 19.685 24.6063
f 14/18/5 12/17/5 1/19/5

vt 39.3701 2.18744e-014
f 4/4/1 1/1/1 12/20/1

vt 6.15157 24.6063
vn -0.707107 3.98312e-016 0.707107
vt 13.9194 7.32064e-015
vt 13.9194 24.6063
f 3/21/6 14/22/6 1/23/6

v 0.360485 4.17355e-016 -0.139515
vt 6.15157 2.19756e-014
f 14/22/6 3/21/6 15/24/6

vt -17.8564 24.6063
vn -0.707107 0 -0.707107
vt -13.9194 1.64313e-014
vt -13.9194 24.6063
f 2/25/7 15/26/7 3/27/7

v 0.431196 4.17355e-016 -0.210225
vt -17.8564 1.64313e-014
f 15/26/7 2/25/7 16/28/7

usemtl Glass
vn -0.707107 -6.1619e-016 0.707107
v 0.210225 4.39915e-016 -0.431196
vt -6.15157 6.31652e-015
vt 6.15157 5.42835e-015
f 2/21/8 17/29/8 16/30/8

vt -6.15157 24.6063
f 17/29/8 2/21/8 5/31/8

usemtl Brick
vn 0.707107 8.1737e-016 0.707107
vt 17.8564 2.23476e-014
vt 17.8564 24.6063
f 7/23/9 17/32/9 5/33/9

v 0.139515 4.39915e-016 -0.360485
vt 13.9194 2.23476e-014
f 17/32/9 7/23/9 18/34/9

vn -0.707107 -8.13221e-016 0.707107
vt -6.15157 5.99991e-015
f 8/27/10 18/35/10 7/31/10

vt -13.9194 1.17731e-014
f 18/35/10 8/27/10 9/36/10

vt 9.06317e-030 19.685
vn -3.9247e-016 -1 1.802e-016
vt -8.27658 16.9762
vt -5.4927 14.1923
f 9/37/11 17/38/11 18/39/11

vt -39.3701 39.3701
f 9/37/11 11/40/11 17/38/11

vt 0 39.3701
f 11/40/11 9/37/11 10/41/11

vt -16.9762 8.27658
f 17/38/11 11/40/11 16/42/11

vt -19.685 -1.71229e-030
f 16/42/11 11/40/11 14/43/11

vt -39.3701 -2.78438e-030
f 14/43/11 11/40/11 13/44/11

vt -14.1923 5.4927
f 14/43/11 15/45/11 16/42/11

