# Alias OBJ Model File
# Exported from SketchUp, (c) 2000-2012 Trimble Navigation Limited
# File units = meters

mtllib modularBuildings_100.mtl

g Mesh1 Group1 Model

usemtl Wood
v 0 0.625 -0.0398466
vt -1.56876 24.6063
vn -1 -1.80478e-015 -0
v 0 0 -0
vt 0 0
v 0 0.625 -0
vt 0 24.6063
f 1/1/1 2/2/1 3/3/1

v 0 0 -0.0398466
vt -1.56876 0
f 2/2/1 1/1/1 4/4/1

vn 0 -2.26466e-015 -1
v 0.05 0 -0.0398466
vt -1.9685 3.55271e-015
vt 0 3.55271e-015
f 1/3/2 5/5/2 4/6/2

v 0.05 0.625 -0.0398466
vt -1.9685 24.6063
f 5/5/2 1/3/2 6/7/2

vt 4.44089e-014 1.56876
vn -1.80478e-015 1 -2.26466e-015
v 0.05 0.625 -0
vt 1.9685 -5.57248e-014
vt 1.9685 1.56876
f 1/8/3 7/9/3 6/10/3

vt 4.44089e-014 -5.57248e-014
f 7/9/3 1/8/3 3/11/3

vn -8.17441e-030 2.26466e-015 1
v 0.05 1.80478e-016 -0
vt 1.9685 7.10543e-015
vt 1.9685 24.6063
f 3/3/4 8/12/4 7/13/4

f 8/12/4 3/3/4 2/2/4

vn 1.80478e-015 -1 2.26466e-015
vt -1.9685 1.56876
vt -1.9685 -8.04568e-030
f 2/2/5 5/14/5 8/15/5

vt 0 1.56876
f 5/14/5 2/2/5 4/16/5

vt 1.56876 -3.55271e-015
vn 1 1.80478e-015 -8.17441e-030
vt -1.60914e-029 24.6063
vt -1.60914e-029 3.55271e-015
f 5/17/6 7/18/6 8/19/6

vt 1.56876 24.6063
f 7/18/6 5/17/6 6/20/6

g Mesh2 Group1 Model

v 0.05 0 -0.3125
vt 12.3031 -3.55271e-015
v 0.05 0.625 -0.272653
vt 10.7344 24.6063
v 0.05 1.80478e-016 -0.272653
vt 10.7344 3.55271e-015
f 9/21/6 10/22/6 11/23/6

v 0.05 0.625 -0.3125
vt 12.3031 24.6063
f 10/22/6 9/21/6 12/24/6

vt -1.9685 2.78624e-014
v 0 0.625 -0.3125
f 9/25/2 13/3/2 12/7/2

v 0 0 -0.3125
vt 0 2.78624e-014
f 13/3/2 9/25/2 14/26/2

vt -1.9685 12.3031
v 0 0 -0.272653
vt 0 10.7344
vt 0 12.3031
f 9/27/5 15/28/5 14/29/5

vt -1.9685 10.7344
f 15/28/5 9/27/5 11/30/5

vt 1.9685 3.14151e-014
v 0 0.625 -0.272653
vt -8.77472e-029 24.6063
vt -8.77472e-029 2.43097e-014
f 11/31/4 16/32/4 15/33/4

f 16/32/4 11/31/4 10/13/4

vt 1.9685 10.7344
vt 4.44089e-014 12.3031
vt 4.44089e-014 10.7344
f 10/34/3 13/35/3 16/36/3

vt 1.9685 12.3031
f 13/35/3 10/34/3 12/37/3

vt -12.3031 24.6063
vt -10.7344 0
vt -10.7344 24.6063
f 13/38/1 15/39/1 16/40/1

vt -12.3031 0
f 15/39/1 13/38/1 14/41/1

