# Alias OBJ Model File
# Exported from SketchUp, (c) 2000-2012 Trimble Navigation Limited
# File units = meters

mtllib modularBuildings_022.mtl

g Mesh1 Group1 Model

usemtl Brick
v 0.1 0.31 -0.4375
vt 3.93701 12.2047
vn 0 0 1
v 0 1.80478e-016 -0.4375
vt 0 7.10543e-015
v 0.1 1.80478e-016 -0.4375
vt 3.93701 7.10543e-015
f 1/1/1 2/2/1 3/3/1

v 0 0.31 -0.4375
vt 0 12.2047
f 2/2/1 1/1/1 4/4/1

v 0.1 0.35044 -0.432176
vt 3.93701 11.458
vn 5.59392e-019 -0.258819 0.965926
vt 1.92704e-017 9.85207
vn 1.10921e-018 -0.130526 0.991445
vt 3.93701 9.85207
f 5/5/2 4/6/3 1/7/3

v 0 0.35044 -0.432176
vt 1.90359e-017 11.458
f 4/6/3 5/5/2 6/8/2

v 0.1 0.388125 -0.416566
vt 3.93701 7.84125
vn 0 -0.5 0.866025
vt 0 6.23536
vt 3.93701 6.23536
f 7/9/4 6/10/2 5/11/2

v 0 0.388125 -0.416566
vt 0 7.84125
f 6/10/2 7/9/4 8/12/4

v 0.1 0.420485 -0.391735
vt 3.93701 3.74489
vn 0 -0.707107 0.707107
vt 0 2.139
vt 3.93701 2.139
f 9/13/5 8/14/4 7/15/4

v 0 0.420485 -0.391735
vt 0 3.74489
f 8/14/4 9/13/5 10/16/5

vt 3.93701 -2.15785
v 0 0.445316 -0.359375
vt 0 -0.551963
vn 0 -0.866025 0.5
vt 0 -2.15785
f 9/17/5 11/18/6 10/19/5

v 0.1 0.445316 -0.359375
vt 3.93701 -0.551963
f 11/18/6 9/17/5 12/20/6

usemtl Glass
vt -17.2244 -2.54476e-015
vn -1 -2.45115e-015 1.10241e-023
vt -14.1486 17.5321
vt -15.4227 16.5545
f 3/21/7 12/22/7 9/23/7

v 0.1 0.460926 -0.32169
vt -12.665 18.1467
f 3/21/7 13/24/7 12/22/7

v 0.1 0.46625 -0.28125
vt -11.0728 18.3563
f 3/21/7 14/25/7 13/24/7

v 0.1 0.460926 -0.24081
vt -9.48069 18.1467
f 3/21/7 15/26/7 14/25/7

v 0.1 0.445316 -0.203125
vt -7.99705 17.5321
f 3/21/7 16/27/7 15/26/7

v 0.1 0.420485 -0.170765
vt -6.72301 16.5545
f 3/21/7 17/28/7 16/27/7

v 0.1 0.388125 -0.145934
vt -5.74541 15.2805
f 3/21/7 18/29/7 17/28/7

v 0.1 0.35044 -0.130324
vt -5.13087 13.7969
f 3/21/7 19/30/7 18/29/7

v 0.1 1.80478e-016 -0.125
vt -4.92126 -2.54476e-015
f 20/31/7 19/30/7 3/21/7

v 0.1 0.31 -0.125
vt -4.92126 12.2047
f 19/30/7 20/31/7 21/32/7

usemtl Brick
vt -3.93701 7.10543e-015
vn 0 0 -1
v 0 0.31 -0.125
vt -3.93701 12.2047
f 20/33/8 22/4/8 21/34/8

v 0 1.80478e-016 -0.125
f 22/4/8 20/33/8 23/2/8

vt -3.93701 4.92126
vn -1.21383e-016 -1 -6.65924e-018
v 0 0 -0
vt 0 0
vt 8.62481e-031 4.92126
f 20/35/9 24/36/9 23/37/9

v 1 0 -0
vt -39.3701 3.18237e-032
f 24/36/9 20/35/9 25/38/9

v 1 0 -1
vt -39.3701 39.3701
f 25/38/9 20/35/9 26/39/9

vt -3.93701 17.2244
f 3/40/9 26/39/9 20/35/9

v 0.1 1.57918e-016 -0.5625
vt -3.93701 22.1457
f 27/41/9 26/39/9 3/40/9

v 0.1 1.57918e-016 -0.875
vt -3.93701 34.4488
f 28/42/9 26/39/9 27/41/9

v 0 1.57918e-016 -0.875
vt 7.54671e-031 34.4488
f 29/43/9 26/39/9 28/42/9

v 0 0 -1
vt 0 39.3701
f 26/39/9 29/43/9 30/44/9

vt -34.4488 6.21725e-015
vn -1 0 -0
v 0 0.625 -1
vt -39.3701 24.6063
vt -39.3701 0
f 29/45/10 31/46/10 30/47/10

v 0 0.31 -0.875
vt -34.4488 12.2047
f 32/48/10 31/46/10 29/45/10

v 0 0.35044 -0.869676
vt -34.2392 13.7969
f 33/49/10 31/46/10 32/48/10

v 0 0.388125 -0.854066
vt -33.6247 15.2805
f 34/50/10 31/46/10 33/49/10

v 0 0.420485 -0.829235
vt -32.6471 16.5545
f 35/51/10 31/46/10 34/50/10

v 0 0.445316 -0.796875
vt -31.373 17.5321
f 36/52/10 31/46/10 35/51/10

v 0 0.460926 -0.75919
vt -29.8894 18.1467
f 37/53/10 31/46/10 36/52/10

v 0 0.46625 -0.71875
vt -28.2972 18.3563
f 38/54/10 31/46/10 37/53/10

v 0 0.460926 -0.67831
vt -26.7051 18.1467
f 39/55/10 31/46/10 38/54/10

v 0 0.445316 -0.640625
vt -25.2215 17.5321
f 40/56/10 31/46/10 39/55/10

vt -17.0148 13.7969
f 6/57/10 31/46/10 40/56/10

vt -16.4003 15.2805
f 8/58/10 31/46/10 6/57/10

f 10/23/10 31/46/10 8/58/10

f 11/22/10 31/46/10 10/23/10

v 0 0.460926 -0.32169
f 41/24/10 31/46/10 11/22/10

v 0 0.46625 -0.28125
f 42/25/10 31/46/10 41/24/10

v 0 0.460926 -0.24081
f 43/26/10 31/46/10 42/25/10

v 0 0.625 -0
vt 0 24.6063
f 43/26/10 44/59/10 31/46/10

v 0 0.445316 -0.203125
f 45/27/10 44/59/10 43/26/10

v 0 0.420485 -0.170765
f 46/28/10 44/59/10 45/27/10

v 0 0.388125 -0.145934
f 47/29/10 44/59/10 46/28/10

v 0 0.35044 -0.130324
f 48/30/10 44/59/10 47/29/10

f 44/59/10 48/30/10 24/36/10

f 24/36/10 48/30/10 22/32/10

vt -3.93643e-018 14.3485
vn -3.83603e-019 -0.258819 -0.965926
vt -3.93701 12.7427
vn -7.60641e-019 -0.130526 -0.991445
vt -3.77562e-018 12.7427
f 48/60/11 21/61/12 22/62/12

vt -3.93701 14.3485
f 21/61/12 48/60/11 19/63/11

vt 0 16.316
vn 0 -0.5 -0.866025
vt -3.93701 14.7101
vt 0 14.7101
f 47/64/13 19/65/11 48/66/11

vt -3.93701 16.316
f 19/65/11 47/64/13 18/67/13

vt 0 17.2263
vn 0 -0.707107 -0.707107
vt -3.93701 15.6204
vt 0 15.6204
f 46/68/14 18/69/13 47/70/13

vt -3.93701 17.2263
f 18/69/13 46/68/14 17/71/14

vt 0 15.4115
vt -3.93701 17.0174
vn 0 -0.866025 -0.5
vt -3.93701 15.4115
f 46/72/14 16/73/15 17/74/14

vt 0 17.0174
f 16/73/15 46/72/14 45/75/15

vt 0 14.0976
vt -3.93701 15.7035
vn 0 -0.965926 -0.258819
vt -3.93701 14.0976
f 45/76/15 15/77/16 16/78/15

vt 0 15.7035
f 15/77/16 45/76/15 43/79/16

vt 0 11.7682
vt -3.93701 13.3741
vn 0 -1 7.45058e-009
vt -3.93701 11.7682
f 43/80/16 14/81/17 15/82/16

vt 0 13.3741
f 14/81/17 43/80/16 42/83/17

vt 0 -8.58213
vt 3.93701 -10.188
vn 0 -0.965926 0.258819
vt 3.93701 -8.58213
f 42/84/17 13/85/18 14/86/17

vt 0 -10.188
f 13/85/18 42/84/17 41/87/18

vt 0 -4.75648
vt 3.93701 -6.36236
vt 3.93701 -4.75648
f 41/88/18 12/89/6 13/90/18

vt 0 -6.36236
f 12/89/6 41/88/18 11/91/6

vt -4.92126 7.10543e-015
f 23/92/10 24/36/10 22/32/10

v 1 0.625 -0
vt 39.3701 24.6063
f 24/36/1 49/93/1 44/59/1

vt 39.3701 0
f 49/93/1 24/36/1 25/94/1

vn 1 0 -0
f 26/94/19 49/59/19 25/36/19

v 1 0.625 -1
f 49/59/19 26/94/19 50/93/19

f 26/47/8 31/59/8 50/46/8

f 31/59/8 26/47/8 30/36/8

vt 2.22045e-015 39.3701
vn -9.02389e-017 1 9.02389e-017
vt 39.3701 2.22045e-015
vt 39.3701 39.3701
f 31/95/20 49/96/20 50/97/20

vt 2.22045e-015 2.22045e-015
f 49/96/20 31/95/20 44/98/20

vt -17.2244 12.2047
f 6/57/10 40/56/10 4/99/10

v 0 0.420485 -0.608265
vt -23.9474 16.5545
f 4/99/10 40/56/10 51/100/10

v 0.1 0.445316 -0.640625
vt -3.93701 30.6824
vt 0 29.0765
vt 0 30.6824
f 52/101/15 51/102/14 40/103/15

v 0.1 0.420485 -0.608265
vt -3.93701 29.0765
f 51/102/14 52/101/15 53/104/14

usemtl Glass
f 28/45/10 53/100/10 52/56/10

v 0.1 0.388125 -0.583434
vt -22.9698 15.2805
f 28/45/10 54/105/10 53/100/10

v 0.1 0.35044 -0.567824
vt -22.3553 13.7969
f 28/45/10 55/106/10 54/105/10

vt -22.1457 6.21725e-015
f 27/107/10 55/106/10 28/45/10

v 0.1 0.31 -0.5625
vt -22.1457 12.2047
f 55/106/10 27/107/10 56/108/10

usemtl Brick
vt -3.93701 6.21725e-015
v 0 0.31 -0.5625
f 27/109/8 57/4/8 56/34/8

v 0 1.57918e-016 -0.5625
vt 0 6.21725e-015
f 57/4/8 27/109/8 58/110/8

vt 8.62481e-031 17.2244
vt 7.54671e-031 22.1457
f 27/41/9 2/111/9 58/112/9

f 2/111/9 27/41/9 3/40/9

vt -17.2244 7.10543e-015
f 58/107/10 2/113/10 57/108/10

v 0 0.35044 -0.567824
f 2/113/10 59/106/10 57/108/10

f 4/99/10 59/106/10 2/113/10

v 0 0.388125 -0.583434
f 4/99/10 60/105/10 59/106/10

f 4/99/10 51/100/10 60/105/10

vt 0 27.7119
vt -3.93701 26.106
vt 0 26.106
f 51/114/14 54/115/13 60/116/13

vt -3.93701 27.7119
f 54/115/13 51/114/14 53/117/14

vt -3.93701 21.3016
vn 8.95339e-019 -0.258819 -0.965926
vt 0 22.9075
vt -3.93701 22.9075
f 55/118/21 60/119/13 54/120/13

vt 0 21.3016
f 60/119/13 55/118/21 59/121/21

vt -3.93701 14.9909
vn 1.77536e-018 -0.130526 -0.991445
vt 4.00311e-017 16.5968
vt -3.93701 16.5968
f 56/122/22 59/123/21 55/124/21

vt 3.96558e-017 14.9909
f 59/123/21 56/122/22 57/125/22

usemtl Glass
v 0.1 0.460926 -0.67831
f 28/45/10 52/56/10 61/55/10

usemtl Brick
vt 0 30.0108
vt -3.93701 31.6167
vt -3.93701 30.0108
f 40/126/15 61/127/16 52/128/15

vt 0 31.6167
f 61/127/16 40/126/15 39/129/16

vt 0 28.8453
v 0.1 0.46625 -0.71875
vt -3.93701 30.4511
vt -3.93701 28.8453
f 39/130/16 62/131/17 61/132/16

vt 0 30.4511
f 62/131/17 39/130/16 38/133/17

vt 0 -25.6592
v 0.1 0.460926 -0.75919
vt 3.93701 -27.2651
vt 3.93701 -25.6592
f 38/134/17 63/135/18 62/136/17

vt 0 -27.2651
f 63/135/18 38/134/17 37/137/18

vt 0 -20.6698
v 0.1 0.445316 -0.796875
vt 3.93701 -22.2756
vt 3.93701 -20.6698
f 37/138/18 64/139/6 63/140/18

vt 0 -22.2756
f 64/139/6 37/138/18 36/141/6

vt 0 -14.217
v 0.1 0.420485 -0.829235
vt 3.93701 -15.8229
vt 3.93701 -14.217
f 36/142/6 65/143/5 64/144/6

vt 0 -15.8229
f 65/143/5 36/142/6 35/145/5

vt 0 -8.34655
vt 3.93701 -6.74067
vt 0 -6.74067
f 34/146/4 65/147/5 35/148/5

v 0.1 0.388125 -0.854066
vt 3.93701 -8.34655
f 65/147/5 34/146/4 66/149/4

vt 0 -0.356133
vn 2.14411e-031 -0.258819 0.965926
vt 3.93701 1.24975
vt 0 1.24975
f 33/150/23 66/151/4 34/152/4

v 0.1 0.35044 -0.869676
vt 3.93701 -0.356133
f 66/151/4 33/150/23 67/153/23

vt 1.47724e-029 7.60384
vn 4.25153e-031 -0.130526 0.991445
vt 3.93701 9.20972
vt 1.46825e-029 9.20972
f 32/154/24 67/155/23 33/156/23

v 0.1 0.31 -0.875
vt 3.93701 7.60384
f 67/155/23 32/154/24 68/157/24

f 29/110/1 68/1/1 32/4/1

vt 3.93701 6.21725e-015
f 68/1/1 29/110/1 28/158/1

usemtl Glass
f 28/45/10 67/49/10 68/48/10

f 28/45/10 66/50/10 67/49/10

f 28/45/10 65/51/10 66/50/10

f 28/45/10 64/52/10 65/51/10

f 28/45/10 63/53/10 64/52/10

f 28/45/10 62/54/10 63/53/10

f 28/45/10 61/55/10 62/54/10

f 3/21/7 9/23/7 7/58/7

f 3/21/7 7/58/7 5/57/7

f 3/21/7 5/57/7 1/99/7

