# Alias OBJ Model File
# Exported from SketchUp, (c) 2000-2012 Trimble Navigation Limited
# File units = meters

mtllib modularBuildings_010.mtl

g Mesh1 Group1 Model

usemtl Wood
v -0.223075 0.0277368 -1
vt -39.3701 0.481348
vn -0.990433 0.137992 -0
v -0.225 0 -0.8
vt -31.4961 -0.61328
vn -0.997601 0.0692324 -0
v -0.223075 0.0277368 -0.8
vt -31.4961 0.481348
f 1/1/1 2/2/2 3/3/1

v -0.225 0 -1
vt -39.3701 -0.61328
f 2/2/2 1/1/1 4/4/2

usemtl Green
vt 8.78248 1.092
vn 3.06377e-015 -1.98675e-015 -1
v 0 9.02389e-017 -1
vt 1.20621e-013 8.17713e-014
vt 8.85827 7.82186e-014
f 1/5/3 5/6/3 4/7/3

v 0 0.2125 -1
vt 1.20621e-013 8.36614
f 5/6/3 1/5/3 6/8/3

v -0.217333 0.054999 -1
vt 8.55643 2.16532
f 6/8/3 1/5/3 7/9/3

usemtl Wood
vt -31.4961 -0.74144
vt -39.3701 0.355423
vn -0.962068 0.272809 -0
vt -39.3701 -0.74144
f 3/10/1 7/11/4 1/12/1

v -0.217333 0.054999 -0.8
vt -31.4961 0.355423
f 7/11/4 3/10/1 8/13/4

usemtl Green
v -0.223075 0.0277368 -0.6
vt -23.622 -0.74144
vn -0.990433 0.137992 -1.3952e-016
vn -0.962068 0.272809 -1.93864e-016
f 9/14/5 8/13/6 3/10/5

v -0.217333 0.054999 -0.6
vt -23.622 0.355423
f 8/13/6 9/14/5 10/15/6

usemtl Wood
v -0.223075 0.0277368 -0.4
vt -15.748 -0.74144
vn -0.990433 0.137992 9.36491e-017
vn -0.962068 0.272809 7.02843e-017
f 11/16/7 10/15/8 9/14/7

v -0.217333 0.054999 -0.4
vt -15.748 0.355423
f 10/15/8 11/16/7 12/17/8

usemtl Green
v -0.223075 0.0277368 -0.2
vt -7.87402 -0.74144
vn -0.990433 0.137992 4.58711e-017
vn -0.962068 0.272809 1.2358e-016
f 13/18/9 12/17/10 11/16/9

v -0.217333 0.054999 -0.2
vt -7.87402 0.355423
f 12/17/10 13/18/9 14/19/10

usemtl Wood
v -0.223075 0.0277368 -0
vt 2.91476e-015 -0.74144
vn -0.990433 0.137992 -2.254e-016
vn -0.962068 0.272809 -3.91037e-016
f 15/20/11 14/19/12 13/18/11

v -0.217333 0.054999 -0
vt 2.83974e-015 0.355423
f 14/19/12 15/20/11 16/21/12

vt -8.78248 1.092
vn 0 0 1
v 0 0.2125 -0
vt 0 8.36614
vt -8.55643 2.16532
f 15/22/13 17/23/13 16/24/13

v -0.225 4.51195e-016 -0
vt -8.85827 1.77636e-014
f 18/25/13 17/23/13 15/22/13

v 0 0 -0
vt 0 0
f 17/23/13 18/25/13 19/26/13

vt 8.85827 -8.41557e-030
vn -1.40372e-015 -1 1.57918e-015
v 0 -1.80478e-016 -0.2
vt -9.97401e-030 7.87402
f 18/27/14 20/28/14 19/26/14

v -0.225 0 -0.2
vt 8.85827 7.87402
f 20/28/14 18/27/14 21/29/14

vt 1.10963e-015 -0.61328
vn -0.997601 0.0692324 -1.24965e-016
vt -7.87402 0.481348
vt -7.87402 -0.61328
f 18/30/15 13/31/11 21/32/15

vt 1.10014e-015 0.481348
f 13/31/11 18/30/15 15/33/11

usemtl Green
vt -15.748 0.481348
f 11/34/9 21/32/2 13/31/9

v -0.225 0 -0.4
vt -15.748 -0.61328
f 21/32/2 11/34/9 22/35/2

usemtl Wood
vt -23.622 0.481348
vn -0.997601 0.0692324 4.66139e-017
f 9/36/7 22/35/16 11/34/7

v -0.225 0 -0.6
vt -23.622 -0.61328
f 22/35/16 9/36/7 23/37/16

usemtl Green
vn -0.997601 0.0692324 -4.66139e-017
f 3/3/5 23/37/17 9/36/5

f 23/37/17 3/3/5 2/2/17

v 0 -1.80478e-016 -0.8
vt -5.69943e-030 31.4961
vn -8.02124e-016 -1 -0
vt 8.85827 23.622
vt 8.85827 31.4961
f 24/38/18 23/39/18 2/40/18

v 0 -1.80478e-016 -0.6
vt -5.69943e-030 23.622
f 23/39/18 24/38/18 25/41/18

v 0 0.2125 -0.6
vt 23.622 8.36614
vn 1 0 -0
vt 23.622 -7.10543e-015
vt 31.4961 -7.10543e-015
f 26/42/19 25/43/19 24/44/19

v 0 0.2125 -0.4
vt 15.748 8.36614
f 27/45/19 25/43/19 26/42/19

v 0 -1.80478e-016 -0.4
vt 15.748 -7.10543e-015
f 27/45/19 28/46/19 25/43/19

v 0 0.2125 -0.2
vt 7.87402 8.36614
f 29/47/19 28/46/19 27/45/19

vt 7.87402 -7.10543e-015
f 29/47/19 20/48/19 28/46/19

f 17/23/19 20/48/19 29/47/19

f 20/48/19 17/23/19 19/26/19

usemtl Dark_brick
v 1 0.2125 -0
vt 39.3701 8.36614
f 19/26/13 30/49/13 17/23/13

v 1 0 -0
vt 39.3701 0
f 30/49/13 19/26/13 31/50/13

vn 1.05279e-016 -1 -3.75996e-017
v 1 0 -1
vt -39.3701 39.3701
vt -39.3701 -1.55844e-031
f 19/26/20 32/51/20 31/52/20

vt 7.48051e-031 7.87402
f 20/53/20 32/51/20 19/26/20

vt 7.48051e-031 15.748
f 28/54/20 32/51/20 20/53/20

vt 7.48051e-031 23.622
f 25/55/20 32/51/20 28/54/20

vt 7.48051e-031 31.4961
f 24/56/20 32/51/20 25/55/20

vt -3.74025e-031 39.3701
f 32/51/20 24/56/20 5/57/20

usemtl Wood
vn -2.00531e-016 -1 -6.76792e-016
vt 7.12429e-031 39.3701
vt -1.42486e-030 31.4961
f 2/40/21 5/58/21 24/59/21

vt 8.85827 39.3701
f 5/58/21 2/40/21 4/60/21

usemtl Green
v 0 0.2125 -0.8
vt 31.4961 8.36614
vt 39.3701 3.55271e-015
f 33/61/19 24/44/19 5/62/19

f 26/42/19 24/44/19 33/61/19

usemtl Dark_brick
vt -5.03301e-016 23.622
vn 6.01593e-017 1 -1.80478e-016
vt 39.3701 -1.5099e-015
vt -5.03301e-016 31.4961
f 26/63/22 30/64/22 33/65/22

vt -5.03301e-016 15.748
f 27/66/22 30/64/22 26/63/22

vt -5.03301e-016 7.87402
f 29/67/22 30/64/22 27/66/22

vt -5.03301e-016 -1.5099e-015
f 30/64/22 29/67/22 17/68/22

usemtl Wood
v -0.0293684 0.210682 -0.2
vt -7.87402 -0.641556
vn -0.123445 0.992351 -4.47359e-016
vt -7.88861e-031 0.516893
vn -0.0617839 0.99809 -4.50389e-016
vt -7.87402 0.516893
f 34/69/23 17/70/24 29/71/24

v -0.0293684 0.210682 -0
vt 8.42867e-015 -0.641556
f 17/70/24 34/69/23 35/72/23

v -0.0582343 0.205259 -0.2
vt -7.87402 -0.761248
vn -0.245437 0.969413 -7.59915e-016
vt 2.77181e-015 0.395084
vt -7.87402 0.395084
f 36/73/25 35/74/23 34/75/23

v -0.0582343 0.205259 -0
vt 5.4962e-015 -0.761248
f 35/74/23 36/73/25 37/76/25

v -0.0861038 0.196324 -0.2
vt -7.87402 -0.868394
vn -0.364465 0.931217 -1.05053e-015
vt 8.06762e-015 0.283839
vt -7.87402 0.283839
f 38/77/26 37/78/25 36/79/25

v -0.0861038 0.196324 -0
vt 1.19286e-014 -0.868394
f 37/78/25 38/77/26 39/80/26

v -0.1125 0.18403 -0.2
vt -7.87402 -0.956043
vn -0.478906 0.877866 -1.08594e-015
vt 8.21098e-015 0.190366
vt -7.87402 0.190366
f 40/81/27 39/82/26 38/83/26

v -0.1125 0.18403 -0
vt 1.07282e-014 -0.956043
f 39/82/26 40/81/27 41/84/27

v -0.136971 0.168588 -0.2
vt -7.87402 -1.01825
vn -0.586992 0.809592 -1.27011e-015
vt 9.50144e-015 0.120986
vt -7.87402 0.120986
f 42/85/28 41/86/27 40/87/27

v -0.136971 0.168588 -0
vt 1.15682e-014 -1.01825
f 41/86/27 42/85/28 43/88/28

v -0.159099 0.15026 -0.2
vt -7.87402 -1.05046
vn -0.686801 0.726846 -1.31196e-015
vt 1.17519e-014 0.0807217
vt -7.87402 0.0807217
f 44/89/29 43/90/28 42/91/28

v -0.159099 0.15026 -0
vt 1.36505e-014 -1.05046
f 43/90/28 44/89/29 45/92/29

vt -7.87402 0.0728951
v -0.178505 0.129362 -0
vt 1.17789e-014 -1.04989
vn -0.776281 0.630387 -1.13785e-015
vt 1.04984e-014 0.0728951
f 44/93/29 46/94/30 45/95/29

v -0.178505 0.129362 -0.2
vt -7.87402 -1.04989
f 46/94/30 44/93/29 47/96/30

usemtl Green
v -0.159099 0.15026 -0.4
vt -15.748 0.0728951
vn -0.686801 0.726846 1.53855e-016
vn -0.776281 0.630387 2.84463e-016
f 48/97/31 47/96/32 44/93/31

v -0.178505 0.129362 -0.4
vt -15.748 -1.04989
f 47/96/32 48/97/31 49/98/32

usemtl Wood
v -0.159099 0.15026 -0.6
vt -23.622 0.0728951
vn -0.686801 0.726846 6.7626e-016
vn -0.776281 0.630387 4.15061e-016
f 50/99/33 49/98/34 48/97/33

v -0.178505 0.129362 -0.6
vt -23.622 -1.04989
f 49/98/34 50/99/33 51/100/34

usemtl Green
v -0.159099 0.15026 -0.8
vt -31.4961 0.0728951
vn -0.686801 0.726846 -8.30115e-016
vn -0.776281 0.630387 -6.99524e-016
f 52/101/35 51/100/36 50/99/35

v -0.178505 0.129362 -0.8
vt -31.4961 -1.04989
f 51/100/36 52/101/35 53/102/36

usemtl Wood
v -0.159099 0.15026 -1
vt -39.3701 0.0728951
vn -0.686801 0.726846 -0
vn -0.776281 0.630387 -0
f 54/103/37 53/102/38 52/101/37

v -0.178505 0.129362 -1
vt -39.3701 -1.04989
f 53/102/38 54/103/37 55/104/38

usemtl Green
vt 7.02774 5.09298
vt 6.26374 5.91576
f 6/8/3 55/105/3 54/106/3

v -0.194856 0.10625 -1
vt 7.67148 4.18307
f 6/8/3 56/107/3 55/105/3

v -0.207873 0.0813202 -1
vt 8.18397 3.20158
f 6/8/3 57/108/3 56/107/3

f 6/8/3 7/9/3 57/108/3

usemtl Wood
vt -31.4961 -0.856416
vt -39.3701 0.244754
vn -0.915869 0.401477 -0
vt -39.3701 -0.856416
f 8/109/4 57/110/39 7/111/4

v -0.207873 0.0813202 -0.8
vt -31.4961 0.244754
f 57/110/39 8/109/4 58/112/39

usemtl Green
vt -23.622 -0.856416
vn -0.915869 0.401477 -2.87055e-016
f 10/113/6 58/112/40 8/109/6

v -0.207873 0.0813202 -0.6
vt -23.622 0.244754
f 58/112/40 10/113/6 59/114/40

usemtl Wood
vt -15.748 -0.856416
vn -0.915869 0.401477 2.09349e-016
f 12/115/8 59/114/41 10/113/8

v -0.207873 0.0813202 -0.4
vt -15.748 0.244754
f 59/114/41 12/115/8 60/116/41

usemtl Green
vt -7.87402 -0.856416
vn -0.915869 0.401477 7.77065e-017
f 14/117/10 60/116/42 12/115/10

v -0.207873 0.0813202 -0.2
vt -7.87402 0.244754
f 60/116/42 14/117/10 61/118/42

usemtl Wood
vt 4.14126e-015 -0.856416
vn -0.915869 0.401477 -5.42286e-016
f 16/119/12 61/118/43 14/117/12

v -0.207873 0.0813202 -0
vt 3.961e-015 0.244754
f 61/118/43 16/119/12 62/120/43

vt -8.18397 3.20158
f 16/24/13 17/23/13 62/121/13

v -0.194856 0.10625 -0
vt -7.67148 4.18307
f 62/121/13 17/23/13 63/122/13

vt -7.02774 5.09298
f 63/122/13 17/23/13 46/123/13

vt -6.26374 5.91576
f 46/123/13 17/23/13 45/124/13

vt -5.39257 6.63731
f 45/124/13 17/23/13 43/125/13

vt -4.42913 7.24529
f 43/125/13 17/23/13 41/126/13

vt -3.38991 7.72931
f 41/126/13 17/23/13 39/127/13

vt -2.29269 8.08107
f 39/127/13 17/23/13 37/128/13

vt -1.15624 8.29457
f 37/128/13 17/23/13 35/129/13

vt -7.87402 0.0987611
vt 9.79656e-015 -1.01585
vn -0.853322 0.521384 -8.36432e-016
vt 8.97449e-015 0.0987611
f 47/130/30 63/131/44 46/132/30

v -0.194856 0.10625 -0.2
vt -7.87402 -1.01585
f 63/131/44 47/130/30 64/133/44

usemtl Green
vt -15.748 0.0987611
vn -0.853322 0.521384 1.30606e-016
f 49/134/32 64/133/45 47/130/32

v -0.194856 0.10625 -0.4
vt -15.748 -1.01585
f 64/133/45 49/134/32 65/135/45

usemtl Wood
vt -23.622 0.0987611
vn -0.853322 0.521384 4.7055e-016
f 51/136/34 65/135/46 49/134/34

v -0.194856 0.10625 -0.6
vt -23.622 -1.01585
f 65/135/46 51/136/34 66/137/46

usemtl Green
vt -31.4961 0.0987611
vn -0.853322 0.521384 -6.01157e-016
f 53/138/36 66/137/47 51/136/36

v -0.194856 0.10625 -0.8
vt -31.4961 -1.01585
f 66/137/47 53/138/36 67/139/47

usemtl Wood
vt -39.3701 0.0987611
vn -0.853322 0.521384 -0
f 55/140/38 67/139/48 53/138/38

vt -39.3701 -1.01585
f 67/139/48 55/140/38 56/141/48

vt -39.3701 0.157231
vt -31.4961 -0.95
vt -31.4961 0.157231
f 56/142/48 58/143/39 67/144/48

vt -39.3701 -0.95
f 58/143/39 56/142/48 57/145/39

usemtl Green
vt -23.622 -0.95
f 59/146/40 67/144/47 58/143/40

vt -23.622 0.157231
f 67/144/47 59/146/40 66/147/47

usemtl Wood
vt -15.748 -0.95
f 60/148/41 66/147/46 59/146/41

vt -15.748 0.157231
f 66/147/46 60/148/41 65/149/46

usemtl Green
vt -7.87402 -0.95
f 61/150/42 65/149/45 60/148/42

vt -7.87402 0.157231
f 65/149/45 61/150/42 64/151/45

usemtl Wood
vt 5.78498e-015 -0.95
f 62/152/43 64/151/44 61/150/43

vt 5.42272e-015 0.157231
f 64/151/44 62/152/43 63/153/44

usemtl Green
v -0.136971 0.168588 -1
vt 5.39257 6.63731
f 6/8/3 54/106/3 68/154/3

usemtl Wood
vt -39.3701 -1.05046
v -0.136971 0.168588 -0.8
vt -31.4961 0.0807217
vn -0.586992 0.809592 -0
vt -39.3701 0.0807217
f 54/155/37 69/156/49 68/157/49

vt -31.4961 -1.05046
f 69/156/49 54/155/37 52/158/37

usemtl Green
v -0.136971 0.168588 -0.6
vt -23.622 0.0807217
vn -0.586992 0.809592 -9.04783e-016
f 52/158/35 70/159/50 69/156/50

vt -23.622 -1.05046
f 70/159/50 52/158/35 50/160/35

usemtl Wood
v -0.136971 0.168588 -0.4
vt -15.748 0.0807217
vn -0.586992 0.809592 9.04783e-016
f 50/160/33 71/161/51 70/159/51

vt -15.748 -1.05046
f 71/161/51 50/160/33 48/162/33

usemtl Green
f 48/162/31 42/91/49 71/161/49

f 42/91/49 48/162/31 44/89/31

vn -0.478906 0.877866 -0
vt -15.748 -1.01825
f 40/87/52 71/163/49 42/85/49

v -0.1125 0.18403 -0.4
vt -15.748 0.120986
f 71/163/49 40/87/52 72/164/52

vn -0.364465 0.931217 -0
vt -15.748 -0.956043
f 38/83/53 72/165/52 40/81/52

v -0.0861038 0.196324 -0.4
vt -15.748 0.190366
f 72/165/52 38/83/53 73/166/53

vn -0.245437 0.969413 -0
vt -15.748 -0.868394
f 36/79/54 73/167/53 38/77/53

v -0.0582343 0.205259 -0.4
vt -15.748 0.283839
f 73/167/53 36/79/54 74/168/54

vn -0.123445 0.992351 -0
vt -15.748 -0.761248
f 34/75/55 74/169/54 36/73/54

v -0.0293684 0.210682 -0.4
vt -15.748 0.395084
f 74/169/54 34/75/55 75/170/55

vn -0.0617839 0.99809 -0
vt -15.748 -0.641556
f 29/71/56 75/171/55 34/69/55

vt -15.748 0.516893
f 75/171/55 29/71/56 27/172/56

usemtl Wood
v -0.0293684 0.210682 -0.6
vt -23.622 -0.641556
f 27/172/56 76/173/55 75/171/55

vt -23.622 0.516893
f 76/173/55 27/172/56 26/174/56

usemtl Green
vn -0.0617839 0.99809 -6.75583e-016
v -0.0293684 0.210682 -0.8
vt -31.4961 -0.641556
vn -0.123445 0.992351 -3.38441e-016
f 26/174/57 77/175/58 76/173/58

vt -31.4961 0.516893
f 77/175/58 26/174/57 33/176/57

usemtl Wood
vn -0.0617839 0.99809 4.50231e-016
v -0.0293684 0.210682 -1
vt -39.3701 -0.641556
vn -0.123445 0.992351 2.25548e-016
f 33/176/59 78/177/60 77/175/60

vt -39.3701 0.516893
f 78/177/60 33/176/59 6/178/59

usemtl Dark_brick
vt -5.03301e-016 39.3701
f 33/65/22 30/64/22 6/179/22

v 1 0.2125 -1
vt 39.3701 39.3701
f 6/179/22 30/64/22 79/180/22

f 30/23/19 32/50/19 79/49/19

f 32/50/19 30/23/19 31/26/19

vt 0 3.55271e-015
vn 0 0 -1
vt -39.3701 8.36614
vt -39.3701 0
f 5/181/61 79/182/61 32/183/61

f 79/182/61 5/181/61 6/23/61

usemtl Green
f 33/61/19 5/62/19 6/49/19

v -0.0582343 0.205259 -1
vt 2.29269 8.08107
vt 1.15624 8.29457
f 6/8/3 80/184/3 78/185/3

v -0.0861038 0.196324 -1
vt 3.38991 7.72931
f 6/8/3 81/186/3 80/184/3

v -0.1125 0.18403 -1
vt 4.42913 7.24529
f 6/8/3 82/187/3 81/186/3

f 6/8/3 68/154/3 82/187/3

usemtl Wood
vt -39.3701 -1.01825
v -0.1125 0.18403 -0.8
vt -31.4961 0.120986
vt -39.3701 0.120986
f 68/188/49 83/189/52 82/190/52

vt -31.4961 -1.01825
f 83/189/52 68/188/49 69/191/49

usemtl Green
v -0.1125 0.18403 -0.6
vt -23.622 0.120986
vn -0.478906 0.877866 -3.82389e-016
f 69/191/50 84/192/62 83/189/62

vt -23.622 -1.01825
f 84/192/62 69/191/50 70/193/50

usemtl Wood
vn -0.478906 0.877866 3.82389e-016
f 70/193/51 72/164/63 84/192/63

f 72/164/63 70/193/51 71/163/51

vt -23.622 -0.956043
f 73/166/53 84/194/63 72/165/63

v -0.0861038 0.196324 -0.6
vt -23.622 0.190366
f 84/194/63 73/166/53 85/195/53

vt -23.622 -0.868394
f 74/168/54 85/196/53 73/167/53

v -0.0582343 0.205259 -0.6
vt -23.622 0.283839
f 85/196/53 74/168/54 86/197/54

vt -23.622 -0.761248
f 75/170/55 86/198/54 74/169/54

vt -23.622 0.395084
f 86/198/54 75/170/55 76/199/55

usemtl Green
v -0.0582343 0.205259 -0.8
vt -31.4961 -0.761248
f 76/199/58 87/200/54 86/198/54

vt -31.4961 0.395084
f 87/200/54 76/199/58 77/201/58

usemtl Wood
vt -39.3701 -0.761248
f 77/201/60 80/202/54 87/200/54

vt -39.3701 0.395084
f 80/202/54 77/201/60 78/203/60

vt -39.3701 -0.868394
vt -31.4961 0.283839
vt -39.3701 0.283839
f 81/204/53 87/205/54 80/206/54

v -0.0861038 0.196324 -0.8
vt -31.4961 -0.868394
f 87/205/54 81/204/53 88/207/53

vt -39.3701 -0.956043
vt -31.4961 0.190366
vt -39.3701 0.190366
f 82/208/52 88/209/53 81/210/53

vt -31.4961 -0.956043
f 88/209/53 82/208/52 83/211/52

usemtl Green
f 83/211/62 85/195/53 88/209/53

f 85/195/53 83/211/62 84/194/62

f 86/197/54 88/207/53 85/196/53

f 88/207/53 86/197/54 87/205/54

usemtl Wood
vt 8.85827 15.748
vt -5.69943e-030 15.748
f 22/212/18 25/41/18 28/213/18

f 25/41/18 22/212/18 23/39/18

usemtl Green
f 28/213/18 21/29/18 22/212/18

vt -5.69943e-030 7.87402
f 21/29/18 28/213/18 20/214/18

