# Alias OBJ Model File
# Exported from SketchUp, (c) 2000-2012 Trimble Navigation Limited
# File units = meters

mtllib modularBuildings_096.mtl

g Mesh1 Group1 Model

usemtl Metal
v 0 0.23044 -0.307176
vt 0 7.41632
vn 0 0.258819 -0.965926
v 0.05 0.19 -0.3125
vt -1.9685 5.81044
vn 0 0.130526 -0.991445
v 0 0.19 -0.3125
vt 0 5.81044
f 1/1/1 2/2/2 3/3/2

v 0.05 0.23044 -0.307176
vt -1.9685 7.41632
f 2/2/2 1/1/1 4/4/1

v 0 0.268125 -0.291566
vt 0 5.35975
vn 0 0.5 -0.866025
vt -1.9685 3.75386
vt 0 3.75386
f 5/5/3 4/6/1 1/7/1

v 0.05 0.268125 -0.291566
vt -1.9685 5.35975
f 4/6/1 5/5/3 6/8/3

v 0 0.300485 -0.266735
vt 0 2.99263
vn 0 0.707107 -0.707107
vt -1.9685 1.38675
vt 0 1.38675
f 7/9/4 6/10/3 5/11/3

v 0.05 0.300485 -0.266735
vt -1.9685 2.99263
f 6/10/3 7/9/4 8/12/4

vt 0 -1.12959
v 0.05 0.325316 -0.234375
vt -1.9685 0.476296
vn 0 0.866025 -0.5
vt -1.9685 -1.12959
f 7/13/4 9/14/5 8/15/4

v 0 0.325316 -0.234375
vt 0 0.476296
f 9/14/5 7/13/4 10/16/5

v 0 0.272066 -0.238316
vt -9.38254 10.7113
vn -1 0 -0
vt -9.22736 12.8077
vt -10.5014 11.8301
f 11/17/6 10/18/6 7/19/6

v 0 0.290511 -0.21428
vt -8.43621 11.4374
f 12/20/6 10/18/6 11/17/6

v 0 0.340926 -0.19669
vt -7.74372 13.4223
f 12/20/6 13/21/6 10/18/6

v 0 0.302105 -0.186288
vt -7.33419 11.8939
f 14/22/6 13/21/6 12/20/6

v 0 0.34625 -0.15625
vt -6.15157 13.6319
f 14/22/6 15/23/6 13/21/6

v 0 0.30606 -0.15625
vt -6.15157 12.0496
f 16/24/6 15/23/6 14/22/6

v 0 0.302105 -0.126212
vt -4.96896 11.8939
f 17/25/6 15/23/6 16/24/6

v 0 0.340926 -0.11581
vt -4.55943 13.4223
f 17/25/6 18/26/6 15/23/6

v 0 0.290511 -0.0982202
vt -3.86694 11.4374
f 19/27/6 18/26/6 17/25/6

v 0 0.325316 -0.078125
vt -3.07579 12.8077
f 19/27/6 20/28/6 18/26/6

v 0 0.272066 -0.0741835
vt -2.92061 10.7113
f 21/29/6 20/28/6 19/27/6

v 0 0.24803 -0.0557395
vt -2.19447 9.76495
f 22/30/6 20/28/6 21/29/6

v 0 0.300485 -0.0457646
vt -1.80175 11.8301
f 22/30/6 23/31/6 20/28/6

v 0 0.220038 -0.0441451
vt -1.738 8.66293
f 24/32/6 23/31/6 22/30/6

v 0 0.187388 -0.0398466
vt -1.56876 7.37749
f 25/33/6 23/31/6 24/32/6

v 0 0.268125 -0.0209335
vt -0.824155 10.5561
f 23/31/6 25/33/6 26/34/6

v 0 0.0398466 -0.0398466
vt -1.56876 1.56876
f 27/35/6 26/34/6 25/33/6

v 0 0.23044 -0.00532409
vt -0.20961 9.07246
f 27/35/6 28/36/6 26/34/6

v 0 0 -0
vt 0 0
f 29/37/6 28/36/6 27/35/6

v 0 0.19 -0
vt 0 7.48031
f 28/36/6 29/37/6 30/38/6

vn 0 0 1
v 0.05 0.19 -0
vt 1.9685 7.48031
f 29/37/7 31/39/7 30/38/7

v 0.05 0 -0
vt 1.9685 0
f 31/39/7 29/37/7 32/40/7

vn 0 -1 -0
v 0.05 0 -0.3125
vt -1.9685 12.3031
vt -1.9685 0
f 29/37/8 33/41/8 32/42/8

v 0 0 -0.3125
vt 0 12.3031
f 33/41/8 29/37/8 34/43/8

vt -12.3031 0
f 29/37/6 27/35/6 34/44/6

v 0 0.0398466 -0.272653
vt -10.7344 1.56876
f 34/44/6 27/35/6 35/45/6

v 0.05 0.0398466 -0.0398466
vt 1.9685 1.56876
vn -2.22822e-031 1 -0
vt 3.49556e-031 10.7344
vt 3.49556e-031 1.56876
f 36/46/9 35/47/9 27/48/9

v 0.05 0.0398466 -0.272653
vt 1.9685 10.7344
f 35/47/9 36/46/9 37/49/9

vt 1.56876 1.56876
vn 1 0 -0
vt 12.3031 0
vt 10.7344 1.56876
f 36/50/10 33/51/10 37/52/10

f 36/50/10 32/37/10 33/51/10

f 32/37/10 36/50/10 31/38/10

v 0.05 0.23044 -0.00532409
vt 0.20961 9.07246
f 31/38/10 36/50/10 38/53/10

v 0.05 0.268125 -0.0209335
vt 0.824155 10.5561
f 38/53/10 36/50/10 39/54/10

v 0.05 0.187388 -0.0398466
vt 1.56876 7.37749
f 40/55/10 39/54/10 36/50/10

v 0.05 0.300485 -0.0457646
vt 1.80175 11.8301
f 39/54/10 40/55/10 41/56/10

v 0.05 0.220038 -0.0441451
vt 1.738 8.66293
f 41/56/10 40/55/10 42/57/10

vt -1.9685 7.51914
vn 0 -0.130526 -0.991445
vt 0 8.81567
vn 0 -0.258819 -0.965926
vt -1.9685 8.81567
f 40/58/11 24/59/12 42/60/12

vt 0 7.51914
f 24/59/12 40/58/11 25/61/11

vt -1.9685 1.56876
vn 0 0 -1
vt 0 7.37749
vt -1.9685 7.37749
f 36/62/13 25/63/13 40/64/13

vt 0 1.56876
f 25/63/13 36/62/13 27/65/13

vt 0 9.86143
vn -6.51246e-028 -0.5 -0.866025
vt -1.9685 8.66861
vt 0 8.66861
f 22/66/14 42/67/12 24/68/12

v 0.05 0.24803 -0.0557395
vt -1.9685 9.86143
f 42/67/12 22/66/14 43/69/14

vt -4.75391e-027 10.2758
vn -4.39801e-018 -0.707107 -0.707107
vt -1.9685 9.08296
vt -3.57196e-027 9.08296
f 21/70/15 43/71/14 22/72/14

v 0.05 0.272066 -0.0741835
vt -1.9685 10.2758
f 43/71/14 21/70/15 44/73/15

vt -4.1839e-017 8.83769
v 0.05 0.290511 -0.0982202
vt -1.9685 10.0305
vn -4.39801e-018 -0.866025 -0.5
vt -1.9685 8.83769
f 21/74/15 45/75/16 44/76/15

vt -5.53956e-017 10.0305
f 45/75/16 21/74/15 19/77/16

vt -6.44889e-027 7.9495
v 0.05 0.302105 -0.126212
vt -1.9685 9.14232
vn -3.21854e-028 -0.965926 -0.258819
vt -1.9685 7.9495
f 19/78/16 46/79/17 45/80/16

vt -8.28673e-027 9.14232
f 46/79/17 19/78/16 17/81/17

vt 0 6.47891
v 0.05 0.30606 -0.15625
vt -1.9685 7.67173
vn -1.09778e-028 -1 7.45057e-009
vt -1.9685 6.47891
f 17/82/17 47/83/18 46/84/17

vt 0 7.67173
f 47/83/18 17/82/17 16/85/18

vt -1.0259e-026 -4.52616
v 0.05 0.302105 -0.186288
vt 1.9685 -5.71898
vn -4.31632e-028 -0.965926 0.258819
vt 1.9685 -4.52616
f 16/86/18 48/87/19 47/88/18

vt -1.22312e-026 -5.71898
f 48/87/19 16/86/18 14/89/19

vt -1.22312e-026 -2.22431
v 0.05 0.290511 -0.21428
vt 1.9685 -3.41713
vn 1.90142e-028 -0.866025 0.5
vt 1.9685 -2.22431
f 14/90/19 49/91/20 48/92/19

vt -1.40691e-026 -3.41713
f 49/91/20 14/90/19 12/93/20

vt 1.40691e-026 0.269765
v 0.05 0.272066 -0.238316
vt 1.9685 -0.923055
vn -1.5525e-028 -0.707107 0.707107
vt 1.9685 0.269765
f 12/94/20 50/95/21 49/96/20

vt 1.56473e-026 -0.923055
f 50/95/21 12/94/20 11/97/21

v 0 0.24803 -0.256761
vt -1.68582e-026 1.59328
vn 1.19836e-028 -0.5 0.866025
vt 1.9685 2.7861
vt -1.56473e-026 2.7861
f 51/98/22 50/99/21 11/100/21

v 0.05 0.24803 -0.256761
vt 1.9685 1.59328
f 50/99/21 51/98/22 52/101/22

v 0 0.220038 -0.268355
vt 1.78476e-026 3.96039
vn -4.67675e-029 -0.258819 0.965926
vt 1.9685 5.15321
vt 1.70765e-026 5.15321
f 53/102/23 52/103/22 51/104/22

v 0.05 0.220038 -0.268355
vt 1.9685 3.96039
f 52/103/22 53/102/23 54/105/23

v 0 0.187388 -0.272653
vt -1.79017e-026 5.91326
vn -1.65343e-027 -0.130526 0.991445
vt 1.9685 7.20979
vt -1.76195e-026 7.20979
f 55/106/24 54/107/23 53/108/23

v 0.05 0.187388 -0.272653
vt 1.9685 5.91326
f 54/107/23 55/106/24 56/109/24

vt 1.9685 7.37749
f 35/65/7 56/110/7 55/63/7

f 56/110/7 35/65/7 37/46/7

vt 10.7344 7.37749
f 37/52/10 33/51/10 56/111/10

vt 11.479 10.5561
f 56/111/10 33/51/10 6/112/10

vt 12.0935 9.07246
f 6/112/10 33/51/10 4/113/10

vt 12.3031 7.48031
f 4/113/10 33/51/10 2/114/10

vt -1.9685 7.48031
f 33/42/13 3/38/13 2/115/13

f 3/38/13 33/42/13 34/37/13

vt -12.0935 9.07246
vt -12.3031 7.48031
f 34/44/6 1/116/6 3/117/6

vt -11.479 10.5561
f 34/44/6 5/118/6 1/116/6

f 34/44/6 35/45/6 5/118/6

vt -10.7344 7.37749
f 55/119/6 5/118/6 35/45/6

vt -10.5652 8.66293
f 53/120/6 5/118/6 55/119/6

f 53/120/6 7/19/6 5/118/6

vt -10.1087 9.76495
f 51/121/6 7/19/6 53/120/6

f 11/17/6 7/19/6 51/121/6

vt 10.5652 8.66293
f 6/112/10 54/122/10 56/111/10

vt 10.5014 11.8301
f 8/123/10 54/122/10 6/112/10

vt 10.1087 9.76495
f 8/123/10 52/124/10 54/122/10

vt 9.38254 10.7113
f 8/123/10 50/125/10 52/124/10

vt 9.22736 12.8077
f 9/126/10 50/125/10 8/123/10

vt 8.43621 11.4374
f 9/126/10 49/127/10 50/125/10

v 0.05 0.340926 -0.19669
vt 7.74372 13.4223
f 57/128/10 49/127/10 9/126/10

vt 7.33419 11.8939
f 57/128/10 48/129/10 49/127/10

v 0.05 0.34625 -0.15625
vt 6.15157 13.6319
f 58/130/10 48/129/10 57/128/10

vt 6.15157 12.0496
f 58/130/10 47/131/10 48/129/10

vt 4.96896 11.8939
f 58/130/10 46/132/10 47/131/10

v 0.05 0.340926 -0.11581
vt 4.55943 13.4223
f 59/133/10 46/132/10 58/130/10

vt 3.86694 11.4374
f 59/133/10 45/134/10 46/132/10

v 0.05 0.325316 -0.078125
vt 3.07579 12.8077
f 60/135/10 45/134/10 59/133/10

vt 2.92061 10.7113
f 60/135/10 44/136/10 45/134/10

vt 2.19447 9.76495
f 60/135/10 43/137/10 44/136/10

f 41/56/10 43/137/10 60/135/10

f 41/56/10 42/57/10 43/137/10

vt 0 10.237
vn 0 0.866025 0.5
vt 1.9685 8.63116
vn 0 0.707107 0.707107
vt 1.9685 10.237
f 20/138/25 41/139/26 60/140/25

vt 0 8.63116
f 41/139/26 20/138/25 23/141/26

vt 0 8.87643
vn 0 0.5 0.866025
vt 1.9685 10.4823
vt 0 10.4823
f 26/142/27 41/143/26 23/144/26

vt 1.9685 8.87643
f 41/143/26 26/142/27 39/145/27

vt 0 8.46207
vn 0 0.258819 0.965926
vt 1.9685 10.068
vt 0 10.068
f 28/146/28 39/147/27 26/148/27

vt 1.9685 8.46207
f 39/147/27 28/146/28 38/149/28

vn 0 0.130526 0.991445
vt 1.9685 9.0222
vt 0 9.0222
f 30/1/29 38/150/28 28/151/28

vt 1.9685 7.41632
f 38/150/28 30/1/29 31/152/29

vt 1.9685 7.74296
vt 0 9.34885
vn 0 0.965926 0.258819
vt 0 7.74296
f 60/153/25 18/154/30 20/155/25

vt 1.9685 9.34885
f 18/154/30 60/153/25 59/156/30

vt 1.9685 6.27238
vt 0 7.87827
vn 0 1 -7.45058e-009
vt 0 6.27238
f 59/157/30 15/158/31 18/159/30

vt 1.9685 7.87827
f 15/158/31 59/157/30 58/160/31

vt -1.9685 -4.31963
vt 0 -5.92551
vn 0 0.965926 -0.258819
vt 0 -4.31963
f 58/161/31 13/162/32 15/163/31

vt -1.9685 -5.92551
f 13/162/32 58/161/31 57/164/32

vt -1.9685 -2.01778
vt 0 -3.62366
vt 0 -2.01778
f 57/165/32 10/166/5 13/167/32

vt -1.9685 -3.62366
f 10/166/5 57/165/32 9/168/5

