# Alias OBJ Model File
# Exported from SketchUp, (c) 2000-2012 Trimble Navigation Limited
# File units = meters

mtllib modularBuildings_011.mtl

g Mesh1 Group1 Model

usemtl Brick
v 0.125 0.10625 -0.875
vt 34.4488 4.18307
vn 1 0 -0
v 0.125 0.2125 -0.125
vt 4.92126 8.36614
v 0.125 0.10625 -0.125
vt 4.92126 4.18307
f 1/1/1 2/2/1 3/3/1

v 0.125 0.2125 -0.875
vt 34.4488 8.36614
f 2/2/1 1/1/1 4/4/1

vn 0 0 1
v 0.875 0.2125 -0.875
f 1/3/2 5/4/2 4/2/2

v 0.875 0.10625 -0.875
f 5/4/2 1/3/2 6/1/2

vt 4.92126 34.4488
vn 0 1 -0
v 0.875 0.10625 -0.125
vt 34.4488 4.92126
vt 34.4488 34.4488
f 1/5/3 7/6/3 6/7/3

vt 4.92126 4.92126
f 7/6/3 1/5/3 3/8/3

vt -4.92126 8.36614
vn 0 0 -1
vt -34.4488 4.18307
vt -4.92126 4.18307
f 2/9/4 7/10/4 3/11/4

v 0.875 0.2125 -0.125
vt -34.4488 8.36614
f 7/10/4 2/9/4 8/12/4

v 1 0.2125 -0
vt 39.3701 0
f 2/8/3 9/13/3 8/6/3

v 0 0.2125 -0
vt 0 0
f 2/8/3 10/14/3 9/13/3

v 0 0.2125 -1
vt 0 39.3701
f 10/14/3 2/8/3 11/15/3

f 4/5/3 11/15/3 2/8/3

v 1 0.2125 -1
vt 39.3701 39.3701
f 11/15/3 4/5/3 12/16/3

f 12/16/3 4/5/3 5/7/3

f 12/16/3 5/7/3 9/13/3

f 8/6/3 9/13/3 5/7/3

vn -1 0 -0
f 5/12/5 7/11/5 8/9/5

f 7/11/5 5/12/5 6/10/5

vt 7.59317e-046 8.36614
vn 1 -4.24654e-016 1.92866e-047
v 1 0 -1
vt 39.3701 1.67187e-014
vt 39.3701 8.36614
f 9/17/6 13/18/6 12/19/6

v 1 0 -0
vt 7.59317e-046 1.67187e-014
f 13/18/6 9/17/6 14/20/6

v 0 0 -0
f 9/19/2 15/14/2 14/13/2

vt 0 8.36614
f 15/14/2 9/19/2 10/21/2

vt -39.3701 8.36614
f 11/22/5 15/14/5 10/21/5

v 0 0 -1
vt -39.3701 0
f 15/14/5 11/22/5 16/23/5

f 11/21/4 13/23/4 16/14/4

f 13/23/4 11/21/4 12/22/4

vt -39.3701 39.3701
vn 0 -1 -0
f 13/24/7 15/14/7 16/15/7

f 15/14/7 13/24/7 14/23/7

