# Alias OBJ Model File
# Exported from SketchUp, (c) 2000-2012 Trimble Navigation Limited
# File units = meters

mtllib modularBuildings_029.mtl

g Mesh1 Group1 Model

usemtl Brick
v 0 0.31 -0.5625
vt 0 12.2047
vn 0 0 -1
v 0.1 0.12 -0.5625
vt -3.93701 4.72441
v 0 0.12 -0.5625
vt 0 4.72441
f 1/1/1 2/2/1 3/3/1

v 0.1 0.31 -0.5625
vt -3.93701 12.2047
f 2/2/1 1/1/1 4/4/1

v 0 0.35044 -0.567824
vt 4.00311e-017 16.5968
vn 8.95339e-019 -0.258819 -0.965926
vt -3.93701 14.9909
vn 1.77536e-018 -0.130526 -0.991445
vt 3.96558e-017 14.9909
f 5/5/2 4/6/3 1/7/3

v 0.1 0.35044 -0.567824
vt -3.93701 16.5968
f 4/6/3 5/5/2 6/8/2

v 0 0.388125 -0.583434
vt 0 22.9075
vn 0 -0.5 -0.866025
vt -3.93701 21.3016
vt 0 21.3016
f 7/9/4 6/10/2 5/11/2

v 0.1 0.388125 -0.583434
vt -3.93701 22.9075
f 6/10/2 7/9/4 8/12/4

v 0 0.420485 -0.608265
vt 0 27.7119
vn 0 -0.707107 -0.707107
vt -3.93701 26.106
vt 0 26.106
f 9/13/5 8/14/4 7/15/4

v 0.1 0.420485 -0.608265
vt -3.93701 27.7119
f 8/14/4 9/13/5 10/16/5

vt 0 29.0765
v 0.1 0.445316 -0.640625
vt -3.93701 30.6824
vn 0 -0.866025 -0.5
vt -3.93701 29.0765
f 9/17/5 11/18/6 10/19/5

v 0 0.445316 -0.640625
vt 0 30.6824
f 11/18/6 9/17/5 12/20/6

v 0 0.31 -0.4375
vt -17.2244 12.2047
vn -1 0 -0
vt -25.2215 17.5321
vt -23.9474 16.5545
f 13/21/7 12/22/7 9/23/7

v 0 0.35044 -0.432176
vt -17.0148 13.7969
f 14/24/7 12/22/7 13/21/7

v 0 0.625 -1
vt -39.3701 24.6063
f 14/24/7 15/25/7 12/22/7

v 0 0.388125 -0.416566
vt -16.4003 15.2805
f 16/26/7 15/25/7 14/24/7

v 0 0.420485 -0.391735
vt -15.4227 16.5545
f 17/27/7 15/25/7 16/26/7

v 0 0.445316 -0.359375
vt -14.1486 17.5321
f 18/28/7 15/25/7 17/27/7

v 0 0.460926 -0.32169
vt -12.665 18.1467
f 19/29/7 15/25/7 18/28/7

v 0 0.46625 -0.28125
vt -11.0728 18.3563
f 20/30/7 15/25/7 19/29/7

v 0 0.460926 -0.24081
vt -9.48069 18.1467
f 21/31/7 15/25/7 20/30/7

v 0 0.625 -0
vt 0 24.6063
f 21/31/7 22/32/7 15/25/7

v 0 0.445316 -0.203125
vt -7.99705 17.5321
f 23/33/7 22/32/7 21/31/7

v 0 0.420485 -0.170765
vt -6.72301 16.5545
f 24/34/7 22/32/7 23/33/7

v 0 0.388125 -0.145934
vt -5.74541 15.2805
f 25/35/7 22/32/7 24/34/7

v 0 0.35044 -0.130324
vt -5.13087 13.7969
f 26/36/7 22/32/7 25/35/7

v 0 0 -0
vt 0 0
f 22/32/7 26/36/7 27/37/7

v 0 0.31 -0.125
vt -4.92126 12.2047
f 27/37/7 26/36/7 28/38/7

vt -3.93643e-018 14.3485
vn -3.83603e-019 -0.258819 -0.965926
v 0.1 0.31 -0.125
vt -3.93701 12.7427
vn -7.60641e-019 -0.130526 -0.991445
vt -3.77562e-018 12.7427
f 26/39/8 29/40/9 28/41/9

v 0.1 0.35044 -0.130324
vt -3.93701 14.3485
f 29/40/9 26/39/8 30/42/8

vt 0 16.316
vt -3.93701 14.7101
vt 0 14.7101
f 25/43/4 30/44/8 26/45/8

v 0.1 0.388125 -0.145934
vt -3.93701 16.316
f 30/44/8 25/43/4 31/46/4

vt 0 17.2263
vt -3.93701 15.6204
vt 0 15.6204
f 24/47/5 31/48/4 25/49/4

v 0.1 0.420485 -0.170765
vt -3.93701 17.2263
f 31/48/4 24/47/5 32/50/5

vt 0 15.4115
v 0.1 0.445316 -0.203125
vt -3.93701 17.0174
vt -3.93701 15.4115
f 24/51/5 33/52/6 32/53/5

vt 0 17.0174
f 33/52/6 24/51/5 23/54/6

vt 0 14.0976
v 0.1 0.460926 -0.24081
vt -3.93701 15.7035
vn 0 -0.965926 -0.258819
vt -3.93701 14.0976
f 23/55/6 34/56/10 33/57/6

vt 0 15.7035
f 34/56/10 23/55/6 21/58/10

vt 0 11.7682
v 0.1 0.46625 -0.28125
vt -3.93701 13.3741
vn 0 -1 7.45058e-009
vt -3.93701 11.7682
f 21/59/10 35/60/11 34/61/10

vt 0 13.3741
f 35/60/11 21/59/10 20/62/11

vt 0 -8.58213
v 0.1 0.460926 -0.32169
vt 3.93701 -10.188
vn 0 -0.965926 0.258819
vt 3.93701 -8.58213
f 20/63/11 36/64/12 35/65/11

vt 0 -10.188
f 36/64/12 20/63/11 19/66/12

vt 0 -4.75648
v 0.1 0.445316 -0.359375
vt 3.93701 -6.36236
vn 0 -0.866025 0.5
vt 3.93701 -4.75648
f 19/67/12 37/68/13 36/69/12

vt 0 -6.36236
f 37/68/13 19/67/12 18/70/13

vt 0 -0.551963
v 0.1 0.420485 -0.391735
vt 3.93701 -2.15785
vn 0 -0.707107 0.707107
vt 3.93701 -0.551963
f 18/71/13 38/72/14 37/73/13

vt 0 -2.15785
f 38/72/14 18/71/13 17/74/14

vt 0 2.139
vn 0 -0.5 0.866025
vt 3.93701 3.74489
vt 0 3.74489
f 16/75/15 38/76/14 17/77/14

v 0.1 0.388125 -0.416566
vt 3.93701 2.139
f 38/76/14 16/75/15 39/78/15

vt 0 6.23536
vn 5.59392e-019 -0.258819 0.965926
vt 3.93701 7.84125
vt 0 7.84125
f 14/79/16 39/80/15 16/81/15

v 0.1 0.35044 -0.432176
vt 3.93701 6.23536
f 39/80/15 14/79/16 40/82/16

vt 1.92704e-017 9.85207
vn 1.10921e-018 -0.130526 0.991445
vt 3.93701 11.458
vt 1.90359e-017 11.458
f 13/83/17 40/84/16 14/85/16

v 0.1 0.31 -0.4375
vt 3.93701 9.85207
f 40/84/16 13/83/17 41/86/17

v 0 0.12 -0.4375
vn 0 0 1
vt 3.93701 12.2047
f 42/3/18 41/87/18 13/1/18

v 0.1 0.12 -0.4375
vt 3.93701 4.72441
f 41/87/18 42/3/18 43/88/18

vt 0 17.2244
vn 0 1 -0
v 0.1 0.12 -0.125
vt 3.93701 4.92126
vt 3.93701 17.2244
f 42/89/19 44/90/19 43/91/19

v 0 0.12 -0.125
vt 0 4.92126
f 44/90/19 42/89/19 45/92/19

v 0 0 -1
vt -39.3701 0
vt -4.92126 4.72441
vt -17.2244 4.72441
f 46/93/7 45/94/7 42/95/7

f 27/37/7 45/94/7 46/93/7

f 45/94/7 27/37/7 28/38/7

f 28/1/1 44/2/1 45/3/1

f 44/2/1 28/1/1 29/4/1

usemtl Glass
vn -1 -2.45115e-015 1.10241e-023
f 30/36/20 44/94/20 29/38/20

f 44/94/20 30/36/20 43/95/20

f 43/95/20 30/36/20 31/35/20

f 43/95/20 31/35/20 32/34/20

f 43/95/20 32/34/20 33/33/20

f 43/95/20 33/33/20 34/31/20

f 43/95/20 34/31/20 35/30/20

f 43/95/20 35/30/20 36/29/20

f 43/95/20 36/29/20 37/28/20

f 43/95/20 37/28/20 38/27/20

f 43/95/20 38/27/20 39/26/20

f 43/95/20 39/26/20 40/24/20

f 43/95/20 40/24/20 41/21/20

usemtl Brick
v 1 0 -1
vt -39.3701 39.3701
vn 0 -1 -0
vt 0 39.3701
f 47/96/21 27/37/21 46/97/21

v 1 0 -0
f 27/37/21 47/96/21 48/93/21

vt 39.3701 0
vn 1 0 -0
v 1 0.625 -0
f 47/98/22 49/32/22 48/37/22

v 1 0.625 -1
vt 39.3701 24.6063
f 49/32/22 47/98/22 50/99/22

f 47/93/1 15/32/1 50/25/1

f 15/32/1 47/93/1 46/37/1

v 0 0.12 -0.875
vt -34.4488 4.72441
f 46/93/7 51/100/7 15/25/7

vt -22.1457 4.72441
f 46/93/7 3/101/7 51/100/7

f 46/93/7 42/95/7 3/101/7

vt -22.1457 12.2047
f 3/101/7 42/95/7 1/102/7

vt -22.3553 13.7969
f 42/95/7 5/103/7 1/102/7

vt -22.9698 15.2805
f 42/95/7 7/104/7 5/103/7

f 13/21/7 7/104/7 42/95/7

f 13/21/7 9/23/7 7/104/7

vt 3.93701 22.1457
vt 0 34.4488
vt 0 22.1457
f 2/105/19 51/106/19 3/107/19

v 0.1 0.12 -0.875
vt 3.93701 34.4488
f 51/106/19 2/105/19 52/108/19

usemtl Glass
f 2/101/7 6/103/7 52/100/7

f 6/103/7 2/101/7 4/102/7

f 52/100/7 6/103/7 8/104/7

f 52/100/7 8/104/7 10/23/7

f 52/100/7 10/23/7 11/22/7

v 0.1 0.460926 -0.67831
vt -26.7051 18.1467
f 52/100/7 11/22/7 53/109/7

usemtl Brick
vt 0 30.0108
vt -3.93701 31.6167
vt -3.93701 30.0108
f 12/110/6 53/111/10 11/112/6

v 0 0.460926 -0.67831
vt 0 31.6167
f 53/111/10 12/110/6 54/113/10

f 12/22/7 15/25/7 54/109/7

v 0 0.46625 -0.71875
vt -28.2972 18.3563
f 54/109/7 15/25/7 55/114/7

v 0 0.460926 -0.75919
vt -29.8894 18.1467
f 55/114/7 15/25/7 56/115/7

v 0 0.445316 -0.796875
vt -31.373 17.5321
f 56/115/7 15/25/7 57/116/7

v 0 0.420485 -0.829235
vt -32.6471 16.5545
f 57/116/7 15/25/7 58/117/7

v 0 0.388125 -0.854066
vt -33.6247 15.2805
f 58/117/7 15/25/7 59/118/7

v 0 0.35044 -0.869676
vt -34.2392 13.7969
f 59/118/7 15/25/7 60/119/7

v 0 0.31 -0.875
vt -34.4488 12.2047
f 60/119/7 15/25/7 61/120/7

f 61/120/7 15/25/7 51/100/7

v 0.1 0.31 -0.875
f 51/3/18 62/87/18 61/1/18

f 62/87/18 51/3/18 52/88/18

usemtl Glass
v 0.1 0.35044 -0.869676
f 52/100/7 63/119/7 62/120/7

v 0.1 0.388125 -0.854066
f 52/100/7 64/118/7 63/119/7

v 0.1 0.420485 -0.829235
f 52/100/7 65/117/7 64/118/7

v 0.1 0.445316 -0.796875
f 52/100/7 66/116/7 65/117/7

v 0.1 0.460926 -0.75919
f 52/100/7 67/115/7 66/116/7

v 0.1 0.46625 -0.71875
f 52/100/7 68/114/7 67/115/7

f 52/100/7 53/109/7 68/114/7

usemtl Brick
vt 0 28.8453
vt -3.93701 30.4511
vt -3.93701 28.8453
f 54/121/10 68/122/11 53/123/10

vt 0 30.4511
f 68/122/11 54/121/10 55/124/11

vt 0 -25.6592
vt 3.93701 -27.2651
vt 3.93701 -25.6592
f 55/125/11 67/126/12 68/127/11

vt 0 -27.2651
f 67/126/12 55/125/11 56/128/12

vt 0 -20.6698
vt 3.93701 -22.2756
vt 3.93701 -20.6698
f 56/129/12 66/130/13 67/131/12

vt 0 -22.2756
f 66/130/13 56/129/12 57/132/13

vt 0 -14.217
vt 3.93701 -15.8229
vt 3.93701 -14.217
f 57/133/13 65/134/14 66/135/13

vt 0 -15.8229
f 65/134/14 57/133/13 58/136/14

vt 0 -8.34655
vt 3.93701 -6.74067
vt 0 -6.74067
f 59/137/15 65/138/14 58/139/14

vt 3.93701 -8.34655
f 65/138/14 59/137/15 64/140/15

vt 0 -0.356133
vn 2.14411e-031 -0.258819 0.965926
vt 3.93701 1.24975
vt 0 1.24975
f 60/141/23 64/142/15 59/143/15

vt 3.93701 -0.356133
f 64/142/15 60/141/23 63/144/23

vt 1.47724e-029 7.60384
vn 4.25153e-031 -0.130526 0.991445
vt 3.93701 9.20972
vt 1.46825e-029 9.20972
f 61/145/24 63/146/23 60/147/23

vt 3.93701 7.60384
f 63/146/23 61/145/24 62/148/24

vt 2.22045e-015 39.3701
vn -9.02389e-017 1 9.02389e-017
vt 39.3701 2.22045e-015
vt 39.3701 39.3701
f 15/149/25 49/150/25 50/151/25

vt 2.22045e-015 2.22045e-015
f 49/150/25 15/149/25 22/152/25

f 27/37/18 49/99/18 22/32/18

f 49/99/18 27/37/18 48/98/18

