# Alias OBJ Model File
# Exported from SketchUp, (c) 2000-2012 Trimble Navigation Limited
# File units = meters

mtllib modularBuildings_084.mtl

g Mesh1 Group1 Model

usemtl Metal
v 0.05 0.166129 -0.264758
vt 1.9685 6.54052
vn 0 0 1
v 0 0.0477417 -0.264758
vt 0 1.87959
v 0.05 0.0477417 -0.264758
vt 1.9685 1.87959
f 1/1/1 2/2/1 3/3/1

v 0 0.452258 -0.264758
vt 0 17.8054
f 2/2/1 1/1/1 4/4/1

v 0.05 0.213871 -0.264758
vt 1.9685 8.42011
f 4/4/1 1/1/1 5/5/1

vt 10.4236 6.54052
vn 1 3.60956e-016 -0
v 0.05 0 -0.3125
vt 12.3031 -7.10543e-016
vt 10.4236 8.42011
f 1/6/2 6/7/2 5/8/2

vt 10.4236 1.87959
f 3/9/2 6/7/2 1/6/2

v 0.05 0.0477417 -0.0477417
vt 1.87959 1.87959
f 7/10/2 6/7/2 3/9/2

v 0.05 0 -0
vt 0 -7.10543e-016
f 7/10/2 8/11/2 6/7/2

v 0.05 0.5 -0
vt 0 19.685
f 8/11/2 7/10/2 9/12/2

v 0.05 0.452258 -0.0477417
vt 1.87959 17.8054
f 10/13/2 9/12/2 7/10/2

v 0.05 0.5 -0.3125
vt 12.3031 19.685
f 9/12/2 10/13/2 11/14/2

v 0.05 0.452258 -0.264758
vt 10.4236 17.8054
f 11/14/2 10/13/2 12/15/2

v 0 0.452258 -0.0477417
vn 0 -1 -0
vt -1.9685 10.4236
vt -1.9685 1.87959
f 13/2/3 12/16/3 10/17/3

vt 0 10.4236
f 12/16/3 13/2/3 4/18/3

vt -1.87959 17.8054
vn -1 -3.60956e-016 -0
v 0 0.5 -0.3125
vt -12.3031 19.685
vt -10.4236 17.8054
f 13/19/4 14/20/4 4/21/4

v 0 0.5 -0
f 13/19/4 15/12/4 14/20/4

v 0 0 -0
vt 0 0
f 15/12/4 13/19/4 16/22/4

v 0 0.0477417 -0.0477417
vt -1.87959 1.87959
f 17/23/4 16/22/4 13/19/4

v 0 0 -0.3125
vt -12.3031 0
f 16/22/4 17/23/4 18/24/4

vt -10.4236 1.87959
f 18/24/4 17/23/4 2/25/4

vn 0 1 -0
f 7/3/5 2/18/5 17/2/5

vt 1.9685 10.4236
f 2/18/5 7/3/5 3/26/5

vn 0 0 -1
f 13/4/6 7/17/6 17/2/6

v 0.05 0.166129 -0.0477417
vt -1.9685 6.54052
f 7/17/6 13/4/6 19/27/6

v 0.05 0.213871 -0.0477417
vt -1.9685 8.42011
f 19/27/6 13/4/6 20/28/6

vt -1.9685 17.8054
f 20/28/6 13/4/6 10/29/6

vt 1.87959 6.54052
vt 1.87959 8.42011
f 10/13/2 19/30/2 20/31/2

f 10/13/2 7/10/2 19/30/2

f 18/24/4 2/25/4 14/20/4

f 4/21/4 14/20/4 2/25/4

vt -1.9685 0
f 14/12/6 6/32/6 18/22/6

vt -1.9685 19.685
f 6/32/6 14/12/6 11/33/6

vt 0 12.3031
vt 1.9685 0
vt 1.9685 12.3031
f 14/34/5 9/35/5 11/36/5

f 9/35/5 14/34/5 15/22/5

vt 1.9685 19.685
f 16/22/1 9/37/1 15/12/1

f 9/37/1 16/22/1 8/35/1

vt -1.9685 12.3031
f 16/22/3 6/38/3 8/32/3

f 6/38/3 16/22/3 18/34/3

f 11/14/2 12/15/2 6/7/2

f 5/8/2 6/7/2 12/15/2

vt 1.9685 17.8054
f 4/4/1 5/5/1 12/39/1

