# Alias OBJ Model File
# Exported from SketchUp, (c) 2000-2012 Trimble Navigation Limited
# File units = meters

mtllib modularBuildings_020.mtl

g Mesh1 Group1 Model

usemtl Dark_brick
v 1 0 -1
vt 39.3701 0
vn 1 0 -0
v 1 0.2125 -0
vt 0 8.36614
v 1 0 -0
vt 0 0
f 1/1/1 2/2/1 3/3/1

v 1 0.2125 -1
vt 39.3701 8.36614
f 2/2/1 1/1/1 4/4/1

v 0 9.02389e-017 -1
vt 0 3.55271e-015
vn 0 0 -1
vt -39.3701 8.36614
vt -39.3701 0
f 5/5/2 4/6/2 1/7/2

v 0 0.2125 -1
f 4/6/2 5/5/2 6/2/2

usemtl Green
v -0.11 0.2125 -1
vt 4.33071 8.36614
f 5/5/2 7/8/2 6/2/2

v -0.11 9.02389e-017 -1
vt 4.33071 3.55271e-015
f 7/8/2 5/5/2 8/9/2

vt 0 39.3701
vn 0 -1 -9.02389e-017
v -0.11 0 -0
vt 4.33071 0
vt 4.33071 39.3701
f 5/10/3 9/11/3 8/12/3

v 0 0 -0
f 9/11/3 5/10/3 10/3/3

usemtl Dark_brick
vt -39.3701 39.3701
vn -4.51195e-017 -1 -4.51195e-017
vt 1.60297e-031 39.3701
f 1/13/4 10/3/4 5/14/4

vt -39.3701 8.01483e-032
f 10/3/4 1/13/4 3/15/4

vn 0 0 1
f 2/4/5 10/3/5 3/1/5

v 0 0.2125 -0
f 10/3/5 2/4/5 11/2/5

vt 39.3701 -1.5099e-015
vn 1.80478e-016 1 -1.80478e-016
vt -1.5099e-015 39.3701
vt -1.5099e-015 -1.5099e-015
f 2/16/6 6/17/6 11/18/6

vt 39.3701 39.3701
f 6/17/6 2/16/6 4/19/6

usemtl Green
vt -4.33071 39.3701
vn -4.92212e-015 1 -3.60956e-016
vt 4.11792e-014 -3.01981e-015
vt 4.11792e-014 39.3701
f 7/20/7 11/21/7 6/22/7

v -0.11 0.2125 -0
vt -4.33071 -3.01981e-015
f 11/21/7 7/20/7 12/23/7

vn -1 0 -0
f 7/6/8 9/3/8 12/2/8

vt -39.3701 3.55271e-015
f 9/3/8 7/6/8 8/24/8

vt -4.33071 0
vt -4.33071 8.36614
f 9/25/5 11/2/5 12/26/5

f 11/2/5 9/25/5 10/3/5

usemtl Brick
f 6/6/8 10/3/8 11/2/8

f 10/3/8 6/6/8 5/24/8

