# Alias OBJ Model File
# Exported from SketchUp, (c) 2000-2012 Trimble Navigation Limited
# File units = meters

mtllib modularBuildings_025.mtl

g Mesh1 Group1 Model

usemtl Brick
v 0 0.8375 -1
vt 0 32.9724
vn 0 0 -1
v 1 0.2125 -1
vt -39.3701 8.36614
v 0 0.2125 -1
vt 0 8.36614
f 1/1/1 2/2/1 3/3/1

v 1 0.8375 -1
vt -39.3701 32.9724
f 2/2/1 1/1/1 4/4/1

vt -1.19016e-014 39.3701
vn 3.60956e-016 1 3.60956e-016
v 1 0.8375 -0
vt 39.3701 1.19016e-014
vt 39.3701 39.3701
f 1/5/2 5/6/2 4/7/2

v 0 0.8375 -0
vt -1.19016e-014 1.19016e-014
f 5/6/2 1/5/2 6/8/2

v 0 0.709306 -0.163236
vt -6.4266 27.9254
vn -1 0 -0
f 7/9/3 6/1/3 1/4/3

v 0 0.69994 -0.140625
vt -5.53642 27.5567
f 8/10/3 6/1/3 7/9/3

v 0 0.685041 -0.121209
vt -4.772 26.9701
f 9/11/3 6/1/3 8/10/3

v 0 0.665625 -0.10631
vt -4.18544 26.2057
f 10/12/3 6/1/3 9/11/3

v 0 0.643014 -0.0969445
vt -3.81671 25.3155
f 11/13/3 6/1/3 10/12/3

v 0 0.2125 -0
f 6/1/3 11/13/3 12/3/3

v 0 0.61875 -0.09375
vt -3.69094 24.3602
f 12/3/3 11/13/3 13/14/3

vt 0 25.5971
vn 0 -0.258819 -0.965926
v 0.1 0.61875 -0.09375
vt -3.93701 24.6336
vn 0 -0.130526 -0.991445
vt 0 24.6336
f 11/15/4 14/16/5 13/17/5

v 0.1 0.643014 -0.0969445
vt -3.93701 25.5971
f 14/16/5 11/15/4 15/18/4

vt 0 25.8126
vn 0 -0.5 -0.866025
vt -3.93701 24.8491
vt 0 24.8491
f 10/19/6 15/20/4 11/21/4

v 0.1 0.665625 -0.10631
vt -3.93701 25.8126
f 15/20/4 10/19/6 16/22/6

vt 0 24.3018
vn 0 -0.707107 -0.707107
vt -3.93701 23.3383
vt 0 23.3383
f 9/23/7 16/24/6 10/25/6

v 0.1 0.685041 -0.121209
vt -3.93701 24.3018
f 16/24/6 9/23/7 17/26/7

vt 0 20.2043
v 0.1 0.69994 -0.140625
vt -3.93701 21.1678
vn 0 -0.866025 -0.5
vt -3.93701 20.2043
f 9/27/7 18/28/8 17/29/7

vt 0 21.1678
f 18/28/8 9/27/7 8/30/8

vt 0 15.6605
v 0.1 0.709306 -0.163236
vt -3.93701 16.624
vn 0 -0.965926 -0.258819
vt -3.93701 15.6605
f 8/31/8 19/32/9 18/33/8

vt 0 16.624
f 19/32/9 8/31/8 7/34/9

vt 0 10.0166
v 0.1 0.7125 -0.1875
vt -3.93701 10.9802
vn 0 -1 -0
vt -3.93701 10.0166
f 7/35/9 20/36/10 19/37/9

v 0 0.7125 -0.1875
vt 0 10.9802
f 20/36/10 7/35/9 21/38/10

vt -7.38189 28.0512
f 7/9/3 1/4/3 21/39/3

v 0 0.709306 -0.211764
vt -8.33718 27.9254
f 21/39/3 1/4/3 22/40/3

v 0 0.69994 -0.234375
vt -9.22736 27.5567
f 22/40/3 1/4/3 23/41/3

v 0 0.7125 -0.375
vt -14.7638 28.0512
f 23/41/3 1/4/3 24/42/3

v 0 0.7125 -0.625
vt -24.6063 28.0512
f 24/42/3 1/4/3 25/43/3

v 0 0.69994 -0.765625
vt -30.1427 27.5567
f 25/43/3 1/4/3 26/44/3

v 0 0.709306 -0.788236
vt -31.0329 27.9254
f 26/44/3 1/4/3 27/45/3

v 0 0.7125 -0.8125
vt -31.9882 28.0512
f 27/45/3 1/4/3 28/46/3

v 0 0.709306 -0.836764
vt -32.9435 27.9254
f 28/46/3 1/4/3 29/47/3

v 0 0.69994 -0.859375
vt -33.8337 27.5567
f 29/47/3 1/4/3 30/48/3

v 0 0.685041 -0.878791
vt -34.5981 26.9701
f 30/48/3 1/4/3 31/49/3

v 0 0.665625 -0.89369
vt -35.1846 26.2057
f 31/49/3 1/4/3 32/50/3

v 0 0.643014 -0.903056
vt -35.5534 25.3155
f 32/50/3 1/4/3 33/51/3

v 0 0.61875 -0.90625
vt -35.6791 24.3602
f 33/51/3 1/4/3 34/52/3

v 0 0.290625 -0.90625
vt -35.6791 11.4419
f 34/52/3 1/4/3 35/53/3

f 3/2/3 35/53/3 1/4/3

v 0 0.290625 -0.71875
vt -28.2972 11.4419
f 3/2/3 36/54/3 35/53/3

v 0 0.2125 -0.625
vt -24.6063 8.36614
f 37/55/3 36/54/3 3/2/3

v 0 0.61875 -0.71875
vt -28.2972 24.3602
f 36/54/3 37/55/3 38/56/3

v 0 0.643014 -0.721944
vt -28.423 25.3155
f 37/55/3 39/57/3 38/56/3

f 25/43/3 39/57/3 37/55/3

v 0 0.665625 -0.73131
vt -28.7917 26.2057
f 25/43/3 40/58/3 39/57/3

v 0 0.685041 -0.746209
vt -29.3783 26.9701
f 25/43/3 41/59/3 40/58/3

f 25/43/3 26/44/3 41/59/3

v 0.1 0.69994 -0.765625
vt -3.93701 40.6893
vt 0 39.7257
vt 0 40.6893
f 42/60/8 41/61/7 26/62/8

v 0.1 0.685041 -0.746209
vt -3.93701 39.7257
f 41/61/7 42/60/8 43/63/7

usemtl Glass
v 0.1 0.290625 -0.90625
f 44/53/3 43/59/3 42/44/3

v 0.1 0.665625 -0.73131
f 44/53/3 45/58/3 43/59/3

v 0.1 0.643014 -0.721944
f 44/53/3 46/57/3 45/58/3

v 0.1 0.290625 -0.71875
f 47/54/3 46/57/3 44/53/3

v 0.1 0.61875 -0.71875
f 46/57/3 47/54/3 48/56/3

usemtl Brick
vt -3.93701 11.4419
vt 0 24.3602
vt -3.93701 24.3602
f 47/64/1 38/65/1 48/66/1

vt 0 11.4419
f 38/65/1 47/64/1 36/67/1

vt 3.93701 28.2972
vn 0 1 -0
vt 0 35.6791
vt 0 28.2972
f 47/68/11 35/69/11 36/70/11

vt 3.93701 35.6791
f 35/69/11 47/68/11 44/71/11

v 0.1 0.61875 -0.90625
vt 3.93701 24.3602
vn 0 0 1
vt 3.93701 11.4419
f 49/72/12 35/67/12 44/73/12

f 35/67/12 49/72/12 34/65/12

v 0.1 0.643014 -0.903056
vt 3.93701 20.4583
vn 0 -0.258819 0.965926
vt 0 19.4948
vn 0 -0.130526 0.991445
vt 3.93701 19.4948
f 50/74/13 34/75/14 49/76/14

vt 0 20.4583
f 34/75/14 50/74/13 33/77/13

v 0.1 0.665625 -0.89369
vt 3.93701 10.7463
vn 0 -0.5 0.866025
vt 0 9.78281
vt 3.93701 9.78281
f 51/78/15 33/79/13 50/80/13

vt 0 10.7463
f 33/79/13 51/78/15 32/81/15

v 0.1 0.685041 -0.878791
vt 3.93701 0.334864
vn 0 -0.707107 0.707107
vt 0 -0.628666
vt 3.93701 -0.628666
f 52/82/16 32/83/15 51/84/15

vt 0 0.334864
f 32/83/15 52/82/16 31/85/16

vt 3.93701 -11.0301
vt 0 -10.0666
vn 0 -0.866025 0.5
vt 0 -11.0301
f 52/86/16 30/87/17 31/88/16

v 0.1 0.69994 -0.859375
vt 3.93701 -10.0666
f 30/87/17 52/86/16 53/89/17

usemtl Glass
f 44/53/3 53/48/3 52/49/3

v 0.1 0.709306 -0.836764
f 44/53/3 54/47/3 53/48/3

v 0.1 0.7125 -0.8125
f 44/53/3 55/46/3 54/47/3

v 0.1 0.709306 -0.788236
f 44/53/3 56/45/3 55/46/3

f 44/53/3 42/44/3 56/45/3

usemtl Brick
vt 0 38.3937
vt -3.93701 39.3573
vt -3.93701 38.3937
f 26/90/8 56/91/9 42/92/8

vt 0 39.3573
f 56/91/9 26/90/8 27/93/9

vt 0 34.4124
vt -3.93701 35.3759
vt -3.93701 34.4124
f 27/94/9 55/95/10 56/96/9

vt 0 35.3759
f 55/95/10 27/94/9 28/97/10

vt 0 -28.0531
vt 3.93701 -29.0166
vn 0 -0.965926 0.258819
vt 3.93701 -28.0531
f 28/98/10 54/99/18 55/100/10

vt 0 -29.0166
f 54/99/18 28/98/10 29/101/18

vt 0 -19.7492
vt 3.93701 -20.7127
vt 3.93701 -19.7492
f 29/102/18 53/103/17 54/104/18

vt 0 -20.7127
f 53/103/17 29/102/18 30/105/17

usemtl Glass
f 44/53/3 52/49/3 51/50/3

f 44/53/3 51/50/3 50/51/3

f 44/53/3 50/51/3 49/52/3

usemtl Brick
vt 0 28.8089
vt -3.93701 27.8454
vt 0 27.8454
f 39/106/4 48/107/5 38/108/5

vt -3.93701 28.8089
f 48/107/5 39/106/4 46/109/4

vt 0 35.229
vt -3.93701 34.2655
vt 0 34.2655
f 40/110/6 46/111/4 39/112/4

vt -3.93701 35.229
f 46/111/4 40/110/6 45/113/6

vt 0 39.2812
vt -3.93701 38.3177
vt 0 38.3177
f 41/114/7 45/115/6 40/116/6

vt -3.93701 39.2812
f 45/115/6 41/114/7 43/117/7

v 0.1 0.7125 -0.625
vt 3.93701 28.0512
vt 0 28.0512
f 37/3/12 57/118/12 25/119/12

v 0.1 0.2125 -0.625
vt 3.93701 8.36614
f 57/118/12 37/3/12 58/120/12

usemtl Dark_brick
vt 0 24.6063
v 0.1 0.2125 -0.375
vt 3.93701 14.7638
vt 3.93701 24.6063
f 37/121/11 59/122/11 58/123/11

v 0 0.2125 -0.375
vt 0 14.7638
f 37/121/11 60/124/11 59/122/11

v -0.1 0.2125 -0.625
vt -3.93701 24.6063
f 61/125/11 60/124/11 37/121/11

v -0.1 0.2125 -0.375
vt -3.93701 14.7638
f 60/124/11 61/125/11 62/126/11

v -0.1 0.10625 -0.375
vt -14.7638 4.18307
vt -14.7638 8.36614
f 61/55/3 63/127/3 62/128/3

v -0.1 0.10625 -0.625
vt -24.6063 4.18307
f 63/127/3 61/55/3 64/129/3

vt 3.93701 4.18307
f 37/3/1 64/130/1 61/120/1

v 0 0 -0.625
vt 0 0
f 65/131/1 64/130/1 37/3/1

v -0.2 0.10625 -0.625
vt 7.87402 4.18307
f 65/131/1 66/132/1 64/130/1

v -0.2 0 -0.625
vt 7.87402 0
f 66/132/1 65/131/1 67/133/1

v -0.2 0 -0.375
vt 7.87402 14.7638
vt 7.87402 24.6063
f 65/121/10 68/134/10 67/135/10

v 0 0 -0.375
f 68/134/10 65/121/10 69/124/10

v 1 0 -1
vt -39.3701 39.3701
f 65/121/10 70/136/10 69/124/10

v 0 0 -1
vt 0 39.3701
f 70/136/10 65/121/10 71/137/10

vt -24.6063 0
vt -39.3701 0
f 65/138/3 3/2/3 71/139/3

f 3/2/3 65/138/3 37/55/3

f 3/3/1 70/139/1 71/131/1

f 70/139/1 3/3/1 2/2/1

v 1 0.2125 -0
vn 1 0 -0
vt 39.3701 0
vt 39.3701 8.36614
f 72/3/19 70/140/19 2/141/19

v 1 0 -0
f 70/140/19 72/3/19 73/131/19

v 0 0 -0
f 72/141/12 74/131/12 73/140/12

f 74/131/12 72/141/12 12/3/12

usemtl Brick
vt 39.3701 32.9724
f 5/142/12 12/3/12 72/141/12

f 12/3/12 5/142/12 6/1/12

f 2/141/19 5/1/19 72/3/19

f 5/1/19 2/141/19 4/142/19

usemtl Dark_brick
f 60/128/3 74/131/3 12/3/3

vt -14.7638 0
f 74/131/3 60/128/3 69/143/3

vt -7.87402 0
f 60/3/12 68/144/12 69/131/12

vt -3.93701 4.18307
f 68/144/12 60/3/12 63/145/12

vt -3.93701 8.36614
f 63/145/12 60/3/12 62/146/12

v -0.2 0.10625 -0.375
vt -7.87402 4.18307
f 75/147/12 68/144/12 63/145/12

f 66/129/3 68/143/3 75/127/3

f 68/143/3 66/129/3 67/138/3

vt -7.87402 24.6063
vt -7.87402 14.7638
f 63/126/11 66/148/11 75/149/11

f 66/148/11 63/126/11 64/125/11

f 69/124/10 70/136/10 74/131/10

f 74/131/10 70/136/10 73/139/10

usemtl Brick
v 0 0.290625 -0.09375
vt -3.69094 11.4419
f 12/3/3 76/150/3 60/128/3

f 76/150/3 12/3/3 13/14/3

v 0.1 0.290625 -0.09375
f 13/65/1 77/64/1 76/67/1

f 77/64/1 13/65/1 14/66/1

usemtl Glass
f 15/13/3 77/150/3 14/14/3

v 0.1 0.290625 -0.28125
vt -11.0728 11.4419
f 77/150/3 15/13/3 78/151/3

f 78/151/3 15/13/3 16/12/3

f 78/151/3 16/12/3 17/11/3

f 78/151/3 17/11/3 18/10/3

f 78/151/3 18/10/3 19/9/3

f 78/151/3 19/9/3 20/39/3

v 0.1 0.709306 -0.211764
f 78/151/3 20/39/3 79/40/3

usemtl Brick
vt 0 -3.65732
vt 3.93701 -4.62085
vt 3.93701 -3.65732
f 21/152/10 79/153/18 20/154/10

vt 0 -4.62085
f 79/153/18 21/152/10 22/155/18

vt 0 2.98405
v 0.1 0.69994 -0.234375
vt 3.93701 2.02052
vt 3.93701 2.98405
f 22/156/18 80/157/17 79/158/18

vt 0 2.02052
f 80/157/17 22/156/18 23/159/17

vt 0 9.45489
v 0.1 0.685041 -0.253791
vt 3.93701 8.49136
vt 3.93701 9.45489
f 23/160/17 81/161/16 80/162/17

v 0 0.685041 -0.253791
vt 0 8.49136
f 81/161/16 23/160/17 82/163/16

vt -9.99178 26.9701
f 23/41/3 24/42/3 82/164/3

v 0 0.665625 -0.26869
vt -10.5783 26.2057
f 82/164/3 24/42/3 83/165/3

v 0 0.643014 -0.278056
vt -10.9471 25.3155
f 83/165/3 24/42/3 84/166/3

v 0 0.61875 -0.28125
vt -11.0728 24.3602
f 84/166/3 24/42/3 85/167/3

v 0 0.290625 -0.28125
f 85/167/3 24/42/3 86/151/3

f 60/128/3 86/151/3 24/42/3

f 60/128/3 76/150/3 86/151/3

vt 3.93701 3.69094
vn 0 1 -2.40637e-016
vt 0 11.0728
vt 0 3.69094
f 77/168/20 86/169/20 76/170/20

vt 3.93701 11.0728
f 86/169/20 77/168/20 78/171/20

v 0.1 0.61875 -0.28125
f 87/72/12 86/67/12 78/73/12

f 86/67/12 87/72/12 85/65/12

v 0.1 0.643014 -0.278056
vt 3.93701 23.6701
vt 0 22.7065
vt 3.93701 22.7065
f 88/172/13 85/173/14 87/174/14

vt 0 23.6701
f 85/173/14 88/172/13 84/175/13

v 0.1 0.665625 -0.26869
vt 3.93701 20.1628
vt 0 19.1992
vt 3.93701 19.1992
f 89/176/15 84/177/13 88/178/13

vt 0 20.1628
f 84/177/13 89/176/15 83/179/15

vt 3.93701 15.3142
vt 0 14.3507
vt 3.93701 14.3507
f 81/180/16 83/181/15 89/182/15

vt 0 15.3142
f 83/181/15 81/180/16 82/183/16

usemtl Glass
f 78/151/3 81/164/3 89/165/3

f 78/151/3 80/41/3 81/164/3

f 78/151/3 79/40/3 80/41/3

f 78/151/3 89/165/3 88/166/3

f 78/151/3 88/166/3 87/167/3

usemtl Brick
f 24/119/1 59/146/1 60/3/1

v 0.1 0.7125 -0.375
vt -3.93701 28.0512
f 59/146/1 24/119/1 90/184/1

f 24/124/10 57/125/10 90/126/10

f 57/125/10 24/124/10 25/121/10

usemtl Glass
f 57/43/3 59/128/3 90/42/3

f 59/128/3 57/43/3 58/55/3

