# Alias OBJ Model File
# Exported from SketchUp, (c) 2000-2012 Trimble Navigation Limited
# File units = meters

mtllib modularBuildings_024.mtl

g Mesh1 Group1 Model

usemtl Brick
v 0.1 0.7125 -0.625
vt -3.93701 24.6063
vn 0 -1 -0
v 0 0.7125 -0.375
vt 0 14.7638
v 0 0.7125 -0.625
vt 0 24.6063
f 1/1/1 2/2/1 3/3/1

v 0.1 0.7125 -0.375
vt -3.93701 14.7638
f 2/2/1 1/1/1 4/4/1

usemtl Glass
vt -24.6063 28.0512
vn -1 0 -0
v 0.1 0.2125 -0.375
vt -14.7638 8.36614
vt -14.7638 28.0512
f 1/5/2 5/6/2 4/7/2

v 0.1 0.2125 -0.625
vt -24.6063 8.36614
f 5/6/2 1/5/2 6/8/2

usemtl Brick
vt 3.93701 28.0512
vn 0 0 1
v 0 0.2125 -0.625
vt 0 8.36614
vt 3.93701 8.36614
f 1/9/3 7/10/3 6/11/3

vt 0 28.0512
f 7/10/3 1/9/3 3/12/3

v 0 0.7125 -0.71875
vt -28.2972 28.0512
f 3/5/2 8/13/2 7/8/2

v 0 0.8375 -1
vt -39.3701 32.9724
f 3/5/2 9/14/2 8/13/2

f 2/7/2 9/14/2 3/5/2

v 0 0.7125 -0.28125
vt -11.0728 28.0512
f 10/15/2 9/14/2 2/7/2

v 0 0.7125 -0.09375
vt -3.69094 28.0512
f 11/16/2 9/14/2 10/15/2

v 0 0.8375 -0
vt 0 32.9724
f 11/16/2 12/17/2 9/14/2

v 0 0.2125 -0
f 12/17/2 11/16/2 13/10/2

v 0 0.290625 -0.09375
vt -3.69094 11.4419
f 14/18/2 13/10/2 11/16/2

v 0 0.2125 -0.375
f 13/10/2 14/18/2 15/6/2

v 0 0.290625 -0.28125
vt -11.0728 11.4419
f 15/6/2 14/18/2 16/19/2

v 0.1 0.290625 -0.09375
vt 3.93701 3.69094
vn 0 1 -2.40637e-016
vt 0 11.0728
vt 0 3.69094
f 17/20/4 16/21/4 14/22/4

v 0.1 0.290625 -0.28125
vt 3.93701 11.0728
f 16/21/4 17/20/4 18/23/4

usemtl Glass
v 0.1 0.7125 -0.28125
f 17/18/2 19/15/2 18/19/2

v 0.1 0.7125 -0.09375
f 19/15/2 17/18/2 20/16/2

usemtl Brick
vt -3.93701 11.4419
vn 0 0 -1
vt -3.93701 28.0512
f 17/24/5 11/12/5 20/25/5

vt 0 11.4419
f 11/12/5 17/24/5 14/26/5

vt -3.93701 11.0728
vt -3.93701 3.69094
f 11/22/1 19/27/1 20/28/1

f 19/27/1 11/22/1 10/21/1

f 16/26/3 19/9/3 10/12/3

vt 3.93701 11.4419
f 19/9/3 16/26/3 18/29/3

f 10/15/2 2/7/2 16/19/2

f 15/6/2 16/19/2 2/7/2

vt -3.93701 8.36614
f 2/12/5 5/30/5 15/10/5

f 5/30/5 2/12/5 4/25/5

usemtl Dark_brick
vn 0 1 -0
vt 3.93701 14.7638
f 7/3/6 15/2/6 5/31/6

v -0.1 0.2125 -0.625
f 21/1/6 15/2/6 7/3/6

v -0.1 0.2125 -0.375
f 15/2/6 21/1/6 22/4/6

v -0.1 0.10625 -0.375
vt -14.7638 4.18307
f 21/8/2 23/32/2 22/6/2

v -0.1 0.10625 -0.625
vt -24.6063 4.18307
f 23/32/2 21/8/2 24/33/2

vt 3.93701 4.18307
f 7/10/5 24/34/5 21/11/5

v 0 0 -0.625
vt 0 0
f 25/35/5 24/34/5 7/10/5

v -0.2 0.10625 -0.625
vt 7.87402 4.18307
f 25/35/5 26/36/5 24/34/5

v -0.2 0 -0.625
vt 7.87402 0
f 26/36/5 25/35/5 27/37/5

v -0.2 0 -0.375
vt 7.87402 14.7638
vt 7.87402 24.6063
f 25/3/1 28/38/1 27/39/1

v 0 0 -0.375
f 28/38/1 25/3/1 29/2/1

v 1 0 -1
vt -39.3701 39.3701
f 25/3/1 30/40/1 29/2/1

v 0 0 -1
vt 0 39.3701
f 30/40/1 25/3/1 31/41/1

vt -24.6063 0
v 0 0.2125 -1
vt -39.3701 8.36614
vt -39.3701 0
f 25/42/2 32/43/2 31/44/2

f 32/43/2 25/42/2 7/8/2

usemtl Brick
v 0 0.290625 -0.71875
vt -28.2972 11.4419
f 7/8/2 33/45/2 32/43/2

f 33/45/2 7/8/2 8/13/2

v 0.1 0.290625 -0.71875
f 8/12/5 34/24/5 33/26/5

v 0.1 0.7125 -0.71875
f 34/24/5 8/12/5 35/25/5

vt 0 28.2972
v 0.1 0.7125 -0.90625
vt -3.93701 35.6791
vt -3.93701 28.2972
f 8/46/1 36/47/1 35/48/1

v 0 0.7125 -0.90625
vt 0 35.6791
f 36/47/1 8/46/1 37/49/1

vt -35.6791 28.0512
f 8/13/2 9/14/2 37/50/2

v 0 0.290625 -0.90625
vt -35.6791 11.4419
f 37/50/2 9/14/2 38/51/2

f 32/43/2 38/51/2 9/14/2

f 32/43/2 33/45/2 38/51/2

vt 3.93701 28.2972
f 34/52/6 38/49/6 33/46/6

v 0.1 0.290625 -0.90625
vt 3.93701 35.6791
f 38/49/6 34/52/6 39/53/6

usemtl Glass
f 34/45/2 36/50/2 39/51/2

f 36/50/2 34/45/2 35/13/2

usemtl Brick
f 36/9/3 38/26/3 39/29/3

f 38/26/3 36/9/3 37/12/3

v 1 0.2125 -1
f 9/17/5 40/43/5 32/10/5

v 1 0.8375 -1
f 40/43/5 9/17/5 41/14/5

vt -1.19016e-014 39.3701
vn 3.60956e-016 1 3.60956e-016
v 1 0.8375 -0
vt 39.3701 1.19016e-014
vt 39.3701 39.3701
f 9/54/7 42/55/7 41/56/7

vt -1.19016e-014 1.19016e-014
f 42/55/7 9/54/7 12/57/7

vt 39.3701 32.9724
f 13/10/3 42/58/3 12/17/3

v 1 0.2125 -0
vt 39.3701 8.36614
f 42/58/3 13/10/3 43/59/3

usemtl Dark_brick
v 0 0 -0
f 44/35/3 43/59/3 13/10/3

v 1 0 -0
vt 39.3701 0
f 43/59/3 44/35/3 45/60/3

f 44/35/1 30/40/1 45/44/1

f 29/2/1 30/40/1 44/35/1

vt -14.7638 0
f 44/35/2 15/6/2 29/61/2

f 15/6/2 44/35/2 13/10/2

vt -3.93701 4.18307
f 23/62/3 29/35/3 15/10/3

vt -7.87402 0
f 29/35/3 23/62/3 28/63/3

v -0.2 0.10625 -0.375
vt -7.87402 4.18307
f 46/64/3 28/63/3 23/62/3

f 26/33/2 28/61/2 46/32/2

f 28/61/2 26/33/2 27/42/2

vt -7.87402 24.6063
vt -7.87402 14.7638
f 23/4/6 26/65/6 46/66/6

f 26/65/6 23/4/6 24/1/6

f 23/62/3 15/10/3 22/30/3

vn 1 0 -0
f 30/60/8 43/10/8 45/35/8

f 43/10/8 30/60/8 40/59/8

f 30/44/5 32/10/5 40/43/5

f 32/10/5 30/44/5 31/35/5

usemtl Brick
f 40/59/8 42/17/8 43/10/8

f 42/17/8 40/59/8 41/58/8

usemtl Dark_brick
vt 3.93701 24.6063
f 7/3/6 5/31/6 6/67/6

