# Alias OBJ Model File
# Exported from SketchUp, (c) 2000-2012 Trimble Navigation Limited
# File units = meters

mtllib modularBuildings_081.mtl

g Mesh1 Group1 Model

usemtl Metal
v 0 0.332258 -0.0477417
vt 0 13.081
vn 0 0 -1
v 0.05 0.0477417 -0.0477417
vt -1.9685 1.87959
v 0 0.0477417 -0.0477417
vt 0 1.87959
f 1/1/1 2/2/1 3/3/1

v 0.05 0.166129 -0.0477417
vt -1.9685 6.54052
f 2/2/1 1/1/1 4/4/1

v 0.05 0.213871 -0.0477417
vt -1.9685 8.42011
f 4/4/1 1/1/1 5/5/1

v 0.05 0.332258 -0.0477417
vt -1.9685 13.081
f 5/5/1 1/1/1 6/6/1

vn 0 -1 -0
v 0.05 0.332258 -0.264758
vt -1.9685 10.4236
f 1/3/2 7/7/2 6/2/2

v 0 0.332258 -0.264758
vt 0 10.4236
f 7/7/2 1/3/2 8/8/2

vt -1.87959 13.081
vn -1 0 -0
v 0 0.38 -0.3125
vt -12.3031 14.9606
vt -10.4236 13.081
f 1/9/3 9/10/3 8/11/3

v 0 0.38 -0
vt 0 14.9606
f 1/9/3 10/12/3 9/10/3

v 0 0 -0
vt 0 0
f 10/12/3 1/9/3 11/13/3

vt -1.87959 1.87959
f 3/14/3 11/13/3 1/9/3

v 0 0 -0.3125
vt -12.3031 0
f 11/13/3 3/14/3 12/15/3

v 0 0.0477417 -0.264758
vt -10.4236 1.87959
f 12/15/3 3/14/3 13/16/3

vt 1.9685 1.87959
vn 0 1 -0
f 2/17/4 13/8/4 3/3/4

v 0.05 0.0477417 -0.264758
vt 1.9685 10.4236
f 13/8/4 2/17/4 14/18/4

vt 1.87959 1.87959
vn 1 0 -0
v 0.05 0 -0.3125
vt 12.3031 0
vt 10.4236 1.87959
f 2/19/5 15/20/5 14/21/5

v 0.05 0 -0
f 2/19/5 16/13/5 15/20/5

v 0.05 0.38 -0
f 16/13/5 2/19/5 17/12/5

vt 1.87959 13.081
f 6/22/5 17/12/5 2/19/5

v 0.05 0.38 -0.3125
vt 12.3031 14.9606
f 17/12/5 6/22/5 18/23/5

vt 10.4236 13.081
f 18/23/5 6/22/5 7/24/5

f 18/23/5 7/24/5 15/20/5

v 0.05 0.213871 -0.264758
vt 10.4236 8.42011
f 19/25/5 15/20/5 7/24/5

v 0.05 0.166129 -0.264758
vt 10.4236 6.54052
f 20/26/5 15/20/5 19/25/5

f 14/21/5 15/20/5 20/26/5

vt 1.9685 6.54052
vn 0 0 1
f 20/27/6 13/3/6 14/17/6

f 13/3/6 20/27/6 8/1/6

vt 1.9685 8.42011
f 8/1/6 20/27/6 19/28/6

vt 1.9685 13.081
f 8/1/6 19/28/6 7/29/6

f 8/11/3 9/10/3 13/16/3

f 12/15/3 13/16/3 9/10/3

vt -1.9685 0
f 9/12/1 15/30/1 12/13/1

vt -1.9685 14.9606
f 15/30/1 9/12/1 18/31/1

vt 0 12.3031
vt 1.9685 0
vt 1.9685 12.3031
f 9/32/4 17/33/4 18/34/4

f 17/33/4 9/32/4 10/13/4

vt 1.9685 14.9606
f 11/13/6 17/35/6 10/12/6

f 17/35/6 11/13/6 16/33/6

vt -1.9685 12.3031
f 11/13/2 15/36/2 16/30/2

f 15/36/2 11/13/2 12/32/2

vt 1.87959 6.54052
f 6/22/5 2/19/5 4/37/5

vt 1.87959 8.42011
f 6/22/5 4/37/5 5/38/5

