# Alias OBJ Model File
# Exported from SketchUp, (c) 2000-2012 Trimble Navigation Limited
# File units = meters

mtllib modularBuildings_053.mtl

g Mesh1 Group1 Model

usemtl Brick
v 1 0 -1
vt 39.3701 0
vn 1 0 -0
v 1 0.625 -0
vt 0 24.6063
v 1 0 -0
vt 0 0
f 1/1/1 2/2/1 3/3/1

v 1 0.625 -1
vt 39.3701 24.6063
f 2/2/1 1/1/1 4/4/1

vt -39.3701 0
vn 0 0 -1
v 0 0.625 -1
vt -39.3701 24.6063
f 1/5/2 5/2/2 4/6/2

v 0 0 -1
f 5/2/2 1/5/2 6/3/2

vt -39.3701 39.3701
vn 0 -1 -0
v 0 0 -0.625
vt 0 39.3701
f 1/7/3 7/2/3 6/8/3

v 0.1 0 -0.625
vt -3.93701 24.6063
f 7/2/3 1/7/3 8/9/3

v 0.1 0 -0.375
vt -3.93701 14.7638
f 8/9/3 1/7/3 9/10/3

f 3/5/3 9/10/3 1/7/3

v 0 0 -0
f 10/3/3 9/10/3 3/5/3

v 0 0 -0.375
vt 0 14.7638
f 9/10/3 10/3/3 11/11/3

vn -1 0 -0
v 0 0.078125 -0.09375
vt -3.69094 3.07579
vt -14.7638 0
f 10/3/4 12/12/4 11/13/4

v 0 0.40625 -0.09375
vt -3.69094 15.9941
f 12/12/4 10/3/4 13/14/4

v 0 0.430514 -0.0969445
vt -3.81671 16.9494
f 10/3/4 14/15/4 13/14/4

v 0 0.625 -0
f 15/2/4 14/15/4 10/3/4

v 0 0.453125 -0.10631
vt -4.18544 17.8396
f 14/15/4 15/2/4 16/16/4

v 0 0.472541 -0.121209
vt -4.772 18.604
f 16/16/4 15/2/4 17/17/4

v 0 0.48744 -0.140625
vt -5.53642 19.1905
f 17/17/4 15/2/4 18/18/4

v 0 0.496806 -0.163236
vt -6.4266 19.5593
f 18/18/4 15/2/4 19/19/4

f 19/19/4 15/2/4 5/6/4

vt 39.3701 9.99201e-015
vn 4.06075e-016 1 4.06075e-016
vt -9.99201e-015 39.3701
vt -9.99201e-015 9.99201e-015
f 2/20/5 5/21/5 15/22/5

vt 39.3701 39.3701
f 5/21/5 2/20/5 4/23/5

vn 0 0 1
f 10/3/6 2/4/6 15/2/6

f 2/4/6 10/3/6 3/1/6

v 0 0.5 -0.1875
vt -7.38189 19.685
f 19/19/4 5/6/4 20/24/4

v 0 0.496806 -0.211764
vt -8.33718 19.5593
f 20/24/4 5/6/4 21/25/4

v 0 0.48744 -0.234375
vt -9.22736 19.1905
f 21/25/4 5/6/4 22/26/4

v 0 0.5 -0.375
vt -14.7638 19.685
f 22/26/4 5/6/4 23/27/4

v 0 0.5 -0.625
vt -24.6063 19.685
f 23/27/4 5/6/4 24/28/4

v 0 0.48744 -0.765625
vt -30.1427 19.1905
f 24/28/4 5/6/4 25/29/4

v 0 0.496806 -0.788236
vt -31.0329 19.5593
f 25/29/4 5/6/4 26/30/4

v 0 0.5 -0.8125
vt -31.9882 19.685
f 26/30/4 5/6/4 27/31/4

v 0 0.496806 -0.836764
vt -32.9435 19.5593
f 27/31/4 5/6/4 28/32/4

v 0 0.48744 -0.859375
vt -33.8337 19.1905
f 28/32/4 5/6/4 29/33/4

v 0 0.472541 -0.878791
vt -34.5981 18.604
f 29/33/4 5/6/4 30/34/4

v 0 0.453125 -0.89369
vt -35.1846 17.8396
f 30/34/4 5/6/4 31/35/4

v 0 0.430514 -0.903056
vt -35.5534 16.9494
f 31/35/4 5/6/4 32/36/4

v 0 0.40625 -0.90625
vt -35.6791 15.9941
f 32/36/4 5/6/4 33/37/4

v 0 0.078125 -0.90625
vt -35.6791 3.07579
f 33/37/4 5/6/4 34/38/4

f 6/5/4 34/38/4 5/6/4

v 0 0.078125 -0.71875
vt -28.2972 3.07579
f 6/5/4 35/39/4 34/38/4

vt -24.6063 0
f 7/40/4 35/39/4 6/5/4

v 0 0.40625 -0.71875
vt -28.2972 15.9941
f 35/39/4 7/40/4 36/41/4

v 0 0.430514 -0.721944
vt -28.423 16.9494
f 7/40/4 37/42/4 36/41/4

f 24/28/4 37/42/4 7/40/4

v 0 0.453125 -0.73131
vt -28.7917 17.8396
f 24/28/4 38/43/4 37/42/4

v 0 0.472541 -0.746209
vt -29.3783 18.604
f 24/28/4 39/44/4 38/43/4

f 24/28/4 25/29/4 39/44/4

v 0.1 0.48744 -0.765625
vt -3.93701 35.5963
vn 0 -0.866025 -0.5
vt 0 34.6328
vn 0 -0.707107 -0.707107
vt 0 35.5963
f 40/45/7 39/46/8 25/47/7

v 0.1 0.472541 -0.746209
vt -3.93701 34.6328
f 39/46/8 40/45/7 41/48/8

usemtl Glass
v 0.1 0.078125 -0.90625
f 42/38/4 41/44/4 40/29/4

v 0.1 0.453125 -0.73131
f 42/38/4 43/43/4 41/44/4

v 0.1 0.430514 -0.721944
f 42/38/4 44/42/4 43/43/4

v 0.1 0.078125 -0.71875
f 45/39/4 44/42/4 42/38/4

v 0.1 0.40625 -0.71875
f 44/42/4 45/39/4 46/41/4

usemtl Brick
vt -3.93701 3.07579
vt 0 15.9941
vt -3.93701 15.9941
f 45/49/2 36/50/2 46/51/2

vt 0 3.07579
f 36/50/2 45/49/2 35/52/2

vt 3.93701 28.2972
vn 0 1 -0
vt 0 35.6791
vt 0 28.2972
f 45/53/9 34/54/9 35/55/9

vt 3.93701 35.6791
f 34/54/9 45/53/9 42/56/9

v 0.1 0.40625 -0.90625
vt 3.93701 15.9941
vt 3.93701 3.07579
f 47/57/6 34/52/6 42/58/6

f 34/52/6 47/57/6 33/50/6

v 0.1 0.430514 -0.903056
vt 3.93701 12.1637
vn 0 -0.258819 0.965926
vt 0 11.2002
vn 0 -0.130526 0.991445
vt 3.93701 11.2002
f 48/59/10 33/60/11 47/61/11

vt 0 12.1637
f 33/60/11 48/59/10 32/62/10

v 0.1 0.453125 -0.89369
vt 3.93701 3.01703
vn 0 -0.5 0.866025
vt 0 2.0535
vt 3.93701 2.0535
f 49/63/12 32/64/10 48/65/10

vt 0 3.01703
f 32/64/10 49/63/12 31/66/12

v 0.1 0.472541 -0.878791
vt 3.93701 -6.30244
vn 0 -0.707107 0.707107
vt 0 -7.26597
vt 3.93701 -7.26597
f 50/67/13 31/68/12 49/69/12

vt 0 -6.30244
f 31/68/12 50/67/13 30/70/13

vt 3.93701 -16.1231
vt 0 -15.1596
vn 0 -0.866025 0.5
vt 0 -16.1231
f 50/71/13 29/72/14 30/73/13

v 0.1 0.48744 -0.859375
vt 3.93701 -15.1596
f 29/72/14 50/71/13 51/74/14

usemtl Glass
f 42/38/4 51/33/4 50/34/4

v 0.1 0.496806 -0.836764
f 42/38/4 52/32/4 51/33/4

v 0.1 0.5 -0.8125
f 42/38/4 53/31/4 52/32/4

v 0.1 0.496806 -0.788236
f 42/38/4 54/30/4 53/31/4

f 42/38/4 40/29/4 54/30/4

usemtl Brick
vt 0 35.1921
vt -3.93701 36.1557
vn 0 -0.965926 -0.258819
vt -3.93701 35.1921
f 25/75/7 54/76/15 40/77/7

vt 0 36.1557
f 54/76/15 25/75/7 26/78/15

vt 0 33.3204
vt -3.93701 34.2839
vt -3.93701 33.3204
f 26/79/15 53/80/3 54/81/15

vt 0 34.2839
f 53/80/3 26/79/15 27/82/3

vt 0 -29.1451
vt 3.93701 -30.1086
vn 0 -0.965926 0.258819
vt 3.93701 -29.1451
f 27/83/3 52/84/16 53/85/3

vt 0 -30.1086
f 52/84/16 27/83/3 28/86/16

vt 0 -22.9508
vt 3.93701 -23.9143
vt 3.93701 -22.9508
f 28/87/16 51/88/14 52/89/16

vt 0 -23.9143
f 51/88/14 28/87/16 29/90/14

usemtl Glass
f 42/38/4 50/34/4 49/35/4

f 42/38/4 49/35/4 48/36/4

f 42/38/4 48/36/4 47/37/4

usemtl Brick
vt 0 20.5143
vn 0 -0.258819 -0.965926
vt -3.93701 19.5508
vn 0 -0.130526 -0.991445
vt 0 19.5508
f 37/91/17 46/92/18 36/93/18

vt -3.93701 20.5143
f 46/92/18 37/91/17 44/94/17

vt 0 27.4997
vn 0 -0.5 -0.866025
vt -3.93701 26.5362
vt 0 26.5362
f 38/95/19 44/96/17 37/97/17

vt -3.93701 27.4997
f 44/96/17 38/95/19 43/98/19

vt 0 32.6439
vt -3.93701 31.6804
vt 0 31.6804
f 39/99/8 43/100/19 38/101/19

vt -3.93701 32.6439
f 43/100/19 39/99/8 41/102/8

v 0.1 0.5 -0.625
vt 3.93701 19.685
vt 0 19.685
f 7/3/6 55/103/6 24/104/6

vt 3.93701 0
f 55/103/6 7/3/6 8/105/6

usemtl Glass
f 9/13/4 55/28/4 8/40/4

v 0.1 0.5 -0.375
f 55/28/4 9/13/4 56/27/4

usemtl Brick
vt -3.93701 0
vt -3.93701 19.685
f 9/106/2 23/104/2 56/107/2

f 23/104/2 9/106/2 11/3/2

v 0 0.078125 -0.28125
vt -11.0728 3.07579
f 11/13/4 57/108/4 23/27/4

f 11/13/4 12/12/4 57/108/4

v 0.1 0.078125 -0.09375
vt 3.93701 3.69094
vn 0 1 -2.40637e-016
vt 0 11.0728
vt 0 3.69094
f 58/109/20 57/110/20 12/111/20

v 0.1 0.078125 -0.28125
vt 3.93701 11.0728
f 57/110/20 58/109/20 59/112/20

usemtl Glass
v 0.1 0.430514 -0.0969445
f 58/12/4 60/15/4 59/108/4

v 0.1 0.40625 -0.09375
f 60/15/4 58/12/4 61/14/4

usemtl Brick
f 58/49/2 13/50/2 61/51/2

f 13/50/2 58/49/2 12/52/2

vt 0 17.3026
vt -3.93701 16.339
vt 0 16.339
f 14/113/17 61/114/18 13/115/18

vt -3.93701 17.3026
f 61/114/18 14/113/17 60/116/17

vt 0 18.0833
vt -3.93701 17.1198
vt 0 17.1198
f 16/117/19 60/118/17 14/119/17

v 0.1 0.453125 -0.10631
vt -3.93701 18.0833
f 60/118/17 16/117/19 62/120/19

vt 0 17.6645
vt -3.93701 16.701
vt 0 16.701
f 17/121/8 62/122/19 16/123/19

v 0.1 0.472541 -0.121209
vt -3.93701 17.6645
f 62/122/19 17/121/8 63/124/8

vt 0 15.1113
v 0.1 0.48744 -0.140625
vt -3.93701 16.0748
vt -3.93701 15.1113
f 17/125/8 64/126/7 63/127/8

vt 0 16.0748
f 64/126/7 17/125/8 18/128/7

vt 0 12.4589
v 0.1 0.496806 -0.163236
vt -3.93701 13.4224
vt -3.93701 12.4589
f 18/129/7 65/130/15 64/131/7

vt 0 13.4224
f 65/130/15 18/129/7 19/132/15

vt 0 8.92462
v 0.1 0.5 -0.1875
vt -3.93701 9.88815
vt -3.93701 8.92462
f 19/133/15 66/134/3 65/135/15

vt 0 9.88815
f 66/134/3 19/133/15 20/136/3

vt 0 -4.74932
v 0.1 0.496806 -0.211764
vt 3.93701 -5.71285
vt 3.93701 -4.74932
f 20/137/3 67/138/16 66/139/3

vt 0 -5.71285
f 67/138/16 20/137/3 21/140/16

vt 0 -0.217537
v 0.1 0.48744 -0.234375
vt 3.93701 -1.18107
vt 3.93701 -0.217537
f 21/141/16 68/142/14 67/143/16

vt 0 -1.18107
f 68/142/14 21/141/16 22/144/14

vt 0 4.36191
v 0.1 0.472541 -0.253791
vt 3.93701 3.39838
vt 3.93701 4.36191
f 22/145/14 69/146/13 68/147/14

v 0 0.472541 -0.253791
vt 0 3.39838
f 69/146/13 22/145/14 70/148/13

vt -9.99178 18.604
f 22/26/4 23/27/4 70/149/4

v 0 0.453125 -0.26869
vt -10.5783 17.8396
f 70/149/4 23/27/4 71/150/4

v 0 0.430514 -0.278056
vt -10.9471 16.9494
f 71/150/4 23/27/4 72/151/4

v 0 0.40625 -0.28125
vt -11.0728 15.9941
f 72/151/4 23/27/4 73/152/4

f 73/152/4 23/27/4 57/108/4

v 0.1 0.40625 -0.28125
f 57/52/6 74/57/6 73/50/6

f 74/57/6 57/52/6 59/58/6

usemtl Glass
v 0.1 0.430514 -0.278056
f 59/108/4 75/151/4 74/152/4

v 0.1 0.453125 -0.26869
f 59/108/4 76/150/4 75/151/4

f 59/108/4 69/149/4 76/150/4

f 59/108/4 68/26/4 69/149/4

f 59/108/4 67/25/4 68/26/4

f 59/108/4 66/24/4 67/25/4

f 59/108/4 65/19/4 66/24/4

f 59/108/4 64/18/4 65/19/4

f 59/108/4 63/17/4 64/18/4

f 59/108/4 62/16/4 63/17/4

f 59/108/4 60/15/4 62/16/4

usemtl Brick
vt 3.93701 8.67692
vt 0 7.71339
vt 3.93701 7.71339
f 69/153/13 71/154/12 76/155/12

vt 0 8.67692
f 71/154/12 69/153/13 70/156/13

vt 0 11.4699
vt 3.93701 12.4335
vt 0 12.4335
f 72/157/10 76/158/12 71/159/12

vt 3.93701 11.4699
f 76/158/12 72/157/10 75/160/10

vt 0 14.412
vt 3.93701 15.3755
vt 0 15.3755
f 73/161/11 75/162/10 72/163/10

vt 3.93701 14.412
f 75/162/10 73/161/11 74/164/11

f 23/11/3 55/9/3 56/10/3

f 55/9/3 23/11/3 24/2/3

