# Alias OBJ Model File
# Exported from SketchUp, (c) 2000-2012 Trimble Navigation Limited
# File units = meters

mtllib modularBuildings_036.mtl

g Mesh1 Group1 Model

usemtl Brick
v 7.21911e-016 0.625 -0
vt 2.00972e-014 21.417
vn -0.615457 -0.492366 0.615457
v 0 5.86553e-016 -0.5
vt -13.9194 -6.85345
v 0.5 4.51195e-017 -0
vt 13.9194 -6.85345
f 1/1/1 2/2/1 3/3/1

v 3.60956e-016 0.625 -1
vt -39.3701 24.6063
vn -1 5.19776e-016 1.44382e-016
vt -19.685 2.30926e-014
vt 4.10359e-030 24.6063
f 4/4/2 2/5/2 1/6/2

v 3.60956e-016 0 -1
vt -39.3701 1.03411e-029
f 2/5/2 4/4/2 5/7/2

vt -1.42109e-014 24.6063
vn 0 0 -1
v 1 0 -1
vt -39.3701 0
vt -1.42109e-014 0
f 4/8/3 6/9/3 5/10/3

v 1 0.625 -1
f 6/9/3 4/8/3 7/4/3

vt 2.46152e-014 2.28389e-014
vn 1.54695e-016 1 9.28172e-016
vt 39.3701 39.3701
vt 1.04044e-014 39.3701
f 1/11/4 7/12/4 4/13/4

v 1 0.625 -0
vt 39.3701 2.28389e-014
f 7/12/4 1/11/4 8/14/4

vt 19.685 1.77636e-015
vn 0 0 1
vt 39.3701 24.6063
vt 2.84217e-014 24.6063
f 3/15/5 8/16/5 1/17/5

v 1 0 -0
vt 39.3701 0
f 8/16/5 3/15/5 9/18/5

vt -19.685 1.0259e-031
vn -1.98526e-016 -1 -1.80478e-017
vt -39.3701 39.3701
vt -39.3701 1.41061e-031
f 3/19/6 6/20/6 9/21/6

vt -1.42109e-014 39.3701
f 3/19/6 5/22/6 6/20/6

vt 4.58448e-030 19.685
f 5/22/6 3/19/6 2/23/6

vn 1 0 -0
vt 0 24.6063
vt 0 0
f 6/18/7 8/24/7 9/25/7

f 8/24/7 6/18/7 7/16/7

