# Alias OBJ Model File
# Exported from SketchUp, (c) 2000-2012 Trimble Navigation Limited
# File units = meters

mtllib modularBuildings_068.mtl

g Mesh1 Group1 Model

usemtl Brick
v 0 0.625 -1
vt 0 24.6063
vn 0 0 -1
v 1 0 -1
vt -39.3701 0
v 0 0 -1
vt 0 0
f 1/1/1 2/2/1 3/3/1

v 1 0.625 -1
vt -39.3701 24.6063
f 2/2/1 1/1/1 4/4/1

vt 3.33067e-015 39.3701
vn -1.35358e-016 1 1.35358e-016
v 1 0.625 -0
vt 39.3701 3.33067e-015
vt 39.3701 39.3701
f 1/5/2 5/6/2 4/7/2

v 0 0.625 -0
vt 3.33067e-015 3.33067e-015
f 5/6/2 1/5/2 6/8/2

v 0 0.5 -0.125
vt -4.92126 19.685
vn -1 0 -0
f 7/9/3 6/1/3 1/4/3

v 0 0 -0
f 6/1/3 7/9/3 8/3/3

v 0 0.12 -0.125
vt -4.92126 4.72441
f 9/10/3 8/3/3 7/9/3

f 8/3/3 9/10/3 3/2/3

v 0 0.12 -0.4375
vt -17.2244 4.72441
f 3/2/3 9/10/3 10/11/3

v 0.1 0.12 -0.125
vt 3.93701 4.92126
vn 0 1 -0
vt 0 17.2244
vt 0 4.92126
f 11/12/4 10/13/4 9/14/4

v 0.1 0.12 -0.4375
vt 3.93701 17.2244
f 10/13/4 11/12/4 12/15/4

usemtl Glass
v 0.1 0.5 -0.4375
vt -17.2244 19.685
f 11/10/3 13/16/3 12/11/3

v 0.1 0.5 -0.125
f 13/16/3 11/10/3 14/9/3

usemtl Brick
vt -3.93701 4.72441
vt 0 19.685
vt -3.93701 19.685
f 11/17/1 7/18/1 14/19/1

vt 0 4.72441
f 7/18/1 11/17/1 9/20/1

vn 0 -1 -0
vt -3.93701 17.2244
vt -3.93701 4.92126
f 7/14/5 13/21/5 14/22/5

v 0 0.5 -0.4375
f 13/21/5 7/14/5 15/13/5

f 7/9/3 1/4/3 15/16/3

f 15/16/3 1/4/3 10/11/3

f 3/2/3 10/11/3 1/4/3

vn 0 0 1
vt 3.93701 19.685
f 10/20/6 13/23/6 15/18/6

vt 3.93701 4.72441
f 13/23/6 10/20/6 12/24/6

vt -39.3701 39.3701
vt 0 39.3701
f 2/25/5 8/3/5 3/26/5

v 1 0 -0
f 8/3/5 2/25/5 16/2/5

vt 39.3701 0
vn 1 0 -0
f 2/27/7 5/1/7 16/3/7

vt 39.3701 24.6063
f 5/1/7 2/27/7 4/28/7

f 5/28/6 8/3/6 16/27/6

f 8/3/6 5/28/6 6/1/6

