# Alias OBJ Model File
# Exported from SketchUp, (c) 2000-2012 Trimble Navigation Limited
# File units = meters

mtllib modularBuildings_093.mtl

g Mesh1 Group1 Model

usemtl Wood
v 0 0.394416 -0.160041
vt 0 8.48364
vn 0 0.707107 -0.707107
v 0.05 0.375 -0.17494
vt -1.9685 7.52011
vn 0 0.5 -0.866025
v 0 0.375 -0.17494
vt 0 7.52011
f 1/1/1 2/2/2 3/3/2

v 0.05 0.394416 -0.160041
vt -1.9685 8.48364
f 2/2/2 1/1/1 4/4/1

vt 0 4.45418
v 0.05 0.409315 -0.140625
vt -1.9685 5.41771
vn 0 0.866025 -0.5
vt -1.9685 4.45418
f 1/5/1 5/6/3 4/7/1

v 0 0.409315 -0.140625
vt 0 5.41771
f 5/6/3 1/5/1 6/8/3

v 0 0 -0.1875
vt -7.38189 0
vn -1 0 -0
vt -5.53642 16.1148
vt -6.30084 15.5282
f 7/9/4 6/10/4 1/11/4

v 0 0.0477417 -0.139758
vt -5.5023 1.87959
f 7/9/4 8/12/4 6/10/4

v 0 0.0477417 -0.0477417
vt -1.87959 1.87959
f 7/9/4 9/13/4 8/12/4

v 0 0 -0
vt 0 0
f 10/14/4 9/13/4 7/9/4

v 0 0.352389 -0.00319445
vt -0.125766 13.8736
f 10/14/4 11/15/4 9/13/4

v 0 0.328125 -0
vt 0 12.9183
f 11/15/4 10/14/4 12/16/4

vn 0 0 1
v 0.05 0.328125 -0
vt 1.9685 12.9183
f 10/14/5 13/17/5 12/16/5

v 0.05 0 -0
vt 1.9685 0
f 13/17/5 10/14/5 14/18/5

vn 0 -1 -0
v 0.05 0 -0.1875
vt -1.9685 7.38189
vt -1.9685 0
f 10/14/6 15/19/6 14/20/6

vt 0 7.38189
f 15/19/6 10/14/6 7/21/6

v 0 0.328125 -0.1875
vn 0 0 -1
f 16/16/7 15/20/7 7/14/7

v 0.05 0.328125 -0.1875
vt -1.9685 12.9183
f 15/20/7 16/16/7 17/22/7

v 0 0.352389 -0.184306
vt 0 12.8078
vn 0 0.258819 -0.965926
vt -1.9685 11.8443
vn 0 0.130526 -0.991445
vt 0 11.8443
f 18/23/8 17/24/9 16/25/9

v 0.05 0.352389 -0.184306
vt -1.9685 12.8078
f 17/24/9 18/23/8 19/26/8

vt 0 11.0043
vt -1.9685 10.0407
vt 0 10.0407
f 3/27/2 19/28/8 18/29/8

vt -1.9685 11.0043
f 19/28/8 3/27/2 2/30/2

vt 6.8874 14.7638
vn 1 0 -0
vt 7.38189 0
vt 7.25612 13.8736
f 2/31/10 15/32/10 19/33/10

vt 6.30084 15.5282
f 4/34/10 15/32/10 2/31/10

vt 5.53642 16.1148
f 5/35/10 15/32/10 4/34/10

v 0.05 0.324996 -0.139758
vt 5.5023 12.7951
f 20/36/10 15/32/10 5/35/10

v 0.05 0.0477417 -0.139758
vt 5.5023 1.87959
f 21/37/10 15/32/10 20/36/10

v 0.05 0.0477417 -0.0477417
vt 1.87959 1.87959
f 22/38/10 15/32/10 21/37/10

f 22/38/10 14/14/10 15/32/10

f 14/14/10 22/38/10 13/16/10

v 0.05 0.352389 -0.00319445
vt 0.125766 13.8736
f 13/16/10 22/38/10 23/39/10

v 0.05 0.375 -0.0125601
vt 0.494493 14.7638
f 23/39/10 22/38/10 24/40/10

v 0.05 0.394416 -0.0274587
vt 1.08105 15.5282
f 24/40/10 22/38/10 25/41/10

v 0.05 0.409315 -0.046875
vt 1.84547 16.1148
f 25/41/10 22/38/10 26/42/10

v 0.05 0.324996 -0.0477417
vt 1.87959 12.7951
f 26/42/10 22/38/10 27/43/10

vt -1.9685 1.87959
vn 0 5.20758e-015 -1
v 0 0.324996 -0.0477417
vt 0 12.7951
vt -1.9685 12.7951
f 22/44/11 28/45/11 27/46/11

vt 0 1.87959
f 28/45/11 22/44/11 9/47/11

vt 1.9685 1.87959
vn 0 1 -0
vt 0 5.5023
f 22/48/12 8/49/12 9/47/12

vt 1.9685 5.5023
f 8/49/12 22/48/12 21/50/12

vt 1.9685 12.7951
f 20/51/5 8/47/5 21/48/5

v 0 0.324996 -0.139758
f 8/47/5 20/51/5 29/45/5

v 0.05 0.339926 -0.137793
vt 1.9685 12.5603
vn 0 -0.258819 0.965926
vt 0 11.9675
vn 0 -0.130526 0.991445
vt 1.9685 11.9675
f 30/52/13 29/53/14 20/54/14

v 0 0.339926 -0.137793
vt 0 12.5603
f 29/53/14 30/52/13 31/55/13

v 0.05 0.350923 -0.133238
vt 1.9685 10.7568
vn 0 -0.5 0.866025
vt 0 10.2882
vt 1.9685 10.2882
f 32/56/15 31/57/13 30/58/13

v 0 0.350923 -0.133238
vt 0 10.7568
f 31/57/13 32/56/15 33/59/15

v 0.05 0.360366 -0.125991
vt 1.9685 8.23619
vn 0 -0.707107 0.707107
vt 0 7.76757
vt 1.9685 7.76757
f 34/60/16 33/61/15 32/62/15

v 0 0.360366 -0.125991
vt 0 8.23619
f 33/61/15 34/60/16 35/63/16

vt 1.9685 4.70163
v 0 0.367613 -0.116548
vt 0 5.17026
vn 0 -0.866025 0.5
vt 0 4.70163
f 34/64/16 36/65/17 35/66/16

v 0.05 0.367613 -0.116548
vt 1.9685 5.17026
f 36/65/17 34/64/16 37/67/17

v 0.05 0.418681 -0.118014
vt 4.64623 16.4835
vt 4.58851 14.4729
vt 4.96029 14.1877
f 38/68/10 37/69/10 34/70/10

v 0.05 0.372168 -0.105551
vt 4.15556 14.6523
f 38/68/10 39/71/10 37/69/10

v 0.05 0.421875 -0.09375
vt 3.69094 16.6093
f 40/72/10 39/71/10 38/68/10

v 0.05 0.373721 -0.09375
vt 3.69094 14.7134
f 40/72/10 41/73/10 39/71/10

v 0.05 0.372168 -0.0819488
vt 3.22633 14.6523
f 40/72/10 42/74/10 41/73/10

v 0.05 0.367613 -0.0709518
vt 2.79338 14.4729
f 40/72/10 43/75/10 42/74/10

v 0.05 0.418681 -0.0694857
vt 2.73566 16.4835
f 44/76/10 43/75/10 40/72/10

v 0.05 0.360366 -0.0615085
vt 2.4216 14.1877
f 44/76/10 45/77/10 43/75/10

v 0.05 0.350923 -0.0542624
vt 2.13632 13.8159
f 44/76/10 46/78/10 45/77/10

v 0.05 0.339926 -0.0497073
vt 1.95698 13.3829
f 44/76/10 47/79/10 46/78/10

f 26/42/10 47/79/10 44/76/10

f 47/79/10 26/42/10 27/43/10

vt -1.9685 12.931
vn 0 -0.130526 -0.991445
v 0 0.339926 -0.0497073
vt 0 13.5239
vn 0 -0.258819 -0.965926
vt -1.9685 13.5239
f 27/80/18 48/81/19 47/82/19

vt 0 12.931
f 48/81/19 27/80/18 28/83/18

v 0 0.409315 -0.046875
vt -1.84547 16.1148
vt -1.95698 13.3829
vt -1.87959 12.7951
f 49/84/4 48/85/4 28/86/4

v 0 0.418681 -0.0694857
vt -2.73566 16.4835
f 48/85/4 49/84/4 50/87/4

vt 1.9685 7.87185
vn 0 0.866025 0.5
vt 0 8.83538
vn 0 0.965926 0.258819
vt 0 7.87185
f 26/88/20 50/89/21 49/90/20

vt 1.9685 8.83538
f 50/89/21 26/88/20 44/91/21

vt 1.9685 4.86378
v 0 0.421875 -0.09375
vt 0 5.82731
vt 0 4.86378
f 44/92/21 51/93/12 50/94/21

vt 1.9685 5.82731
f 51/93/12 44/92/21 40/95/12

vt -1.9685 -1.49143
v 0 0.418681 -0.118014
vt 0 -2.45496
vn 0 0.965926 -0.258819
vt 0 -1.49143
f 40/96/12 52/97/22 51/98/12

vt -1.9685 -2.45496
f 52/97/22 40/96/12 38/99/22

vt -1.9685 2.0154
vt 0 1.05187
vt 0 2.0154
f 38/100/22 6/101/3 52/102/22

vt -1.9685 1.05187
f 6/101/3 38/100/22 5/103/3

f 38/68/10 34/70/10 5/35/10

vt 5.24557 13.8159
f 5/35/10 34/70/10 32/104/10

vt 5.42491 13.3829
f 5/35/10 32/104/10 30/105/10

f 5/35/10 30/105/10 20/36/10

vt -4.96029 14.1877
vt -4.64623 16.4835
f 35/106/4 52/107/4 6/10/4

vt -4.58851 14.4729
f 36/108/4 52/107/4 35/106/4

v 0 0.372168 -0.105551
vt -4.15556 14.6523
f 53/109/4 52/107/4 36/108/4

v 0 0.373721 -0.09375
vt -3.69094 14.7134
f 54/110/4 52/107/4 53/109/4

vt -3.69094 16.6093
f 54/110/4 51/111/4 52/107/4

v 0 0.372168 -0.0819488
vt -3.22633 14.6523
f 55/112/4 51/111/4 54/110/4

v 0 0.367613 -0.0709518
vt -2.79338 14.4729
f 56/113/4 51/111/4 55/112/4

f 56/113/4 50/87/4 51/111/4

v 0 0.360366 -0.0615085
vt -2.4216 14.1877
f 57/114/4 50/87/4 56/113/4

v 0 0.350923 -0.0542624
vt -2.13632 13.8159
f 58/115/4 50/87/4 57/114/4

f 48/85/4 50/87/4 58/115/4

vt 0 13.5817
vn 0 -0.5 -0.866025
vt -1.9685 13.1131
vt 0 13.1131
f 58/116/23 47/117/19 48/118/19

vt -1.9685 13.5817
f 47/117/19 58/116/23 46/119/23

vt 0 12.73
vn 0 -0.707107 -0.707107
vt -1.9685 12.2614
vt 0 12.2614
f 57/120/24 46/121/23 58/122/23

vt -1.9685 12.73
f 46/121/23 57/120/24 45/123/24

vt 0 10.5581
vt -1.9685 11.0267
vn 0 -0.866025 -0.5
vt -1.9685 10.5581
f 57/124/24 43/125/25 45/126/24

vt 0 11.0267
f 43/125/25 57/124/24 56/127/25

vt 0 8.1193
vt -1.9685 8.58792
vn 0 -0.965926 -0.258819
vt -1.9685 8.1193
f 56/128/25 42/129/26 43/130/25

vt 0 8.58792
f 42/129/26 56/128/25 55/131/26

vt 0 5.11123
vt -1.9685 5.57986
vn 0 -1 -4.5632e-015
vt -1.9685 5.11123
f 55/132/26 41/133/27 42/134/26

vt 0 5.57986
f 41/133/27 55/132/26 54/135/27

vt 0 -1.73888
vt 1.9685 -2.2075
vn 0 -0.965926 0.258819
vt 1.9685 -1.73888
f 54/136/27 39/137/28 41/138/27

vt 0 -2.2075
f 39/137/28 54/136/27 53/139/28

vt 0 1.76795
vt 1.9685 1.29932
vt 1.9685 1.76795
f 53/140/28 37/141/17 39/142/28

vt 0 1.29932
f 37/141/17 53/140/28 36/143/17

vt -5.24557 13.8159
f 35/106/4 6/10/4 33/144/4

vt -5.42491 13.3829
f 33/144/4 6/10/4 31/145/4

vt -5.5023 12.7951
f 31/145/4 6/10/4 29/146/4

f 29/146/4 6/10/4 8/12/4

vt 0 11.2742
vt 1.9685 10.3106
vn 0 0.707107 0.707107
vt 1.9685 11.2742
f 49/147/20 25/148/29 26/149/20

v 0 0.394416 -0.0274587
vt 0 10.3106
f 25/148/29 49/147/20 59/150/29

vt -1.08105 15.5282
f 9/13/4 59/151/4 49/84/4

v 0 0.375 -0.0125601
vt -0.494493 14.7638
f 9/13/4 60/152/4 59/151/4

f 9/13/4 11/15/4 60/152/4

vt 0 12.8657
vn 0 0.258819 0.965926
vt 1.9685 13.8292
vn 0 0.5 0.866025
vt 0 13.8292
f 11/153/30 24/154/31 60/155/31

vt 1.9685 12.8657
f 24/154/31 11/153/30 23/156/30

vn 0 0.130526 0.991445
vt 1.9685 13.7713
vt 0 13.7713
f 12/23/32 23/157/30 11/158/30

vt 1.9685 12.8078
f 23/157/30 12/23/32 13/159/32

vt 1.9685 12.9775
vt 0 12.0139
vt 1.9685 12.0139
f 25/160/29 60/161/31 24/162/31

vt 0 12.9775
f 60/161/31 25/160/29 59/163/29

f 9/13/4 49/84/4 28/86/4

vt 7.38189 12.9183
f 19/33/10 15/32/10 17/164/10

vt -6.8874 14.7638
vt -7.25612 13.8736
f 7/9/4 3/165/4 18/166/4

f 7/9/4 1/11/4 3/165/4

vt -7.38189 12.9183
f 7/9/4 18/166/4 16/167/4

