# Alias OBJ Model File
# Exported from SketchUp, (c) 2000-2012 Trimble Navigation Limited
# File units = meters

mtllib modularBuildings_018.mtl

g Mesh1 Group1 Model

usemtl Brick
v 1 0 -1
vt -39.3701 39.3701
vn 0 -1 -0
v 0 0 -0
vt 0 0
v 0 0 -1
vt 0 39.3701
f 1/1/1 2/2/1 3/3/1

v 1 0 -0
vt -39.3701 0
f 2/2/1 1/1/1 4/4/1

vt 39.3701 0
vn 1 0 -0
v 1 0.625 -0
vt 0 24.6063
f 1/5/2 5/6/2 4/2/2

v 1 0.625 -1
vt 39.3701 24.6063
f 5/6/2 1/5/2 6/7/2

vn 0 0 -1
v 0 0.625 -1
vt -39.3701 24.6063
f 1/4/3 7/6/3 6/8/3

f 7/6/3 1/4/3 3/2/3

vn -1 0 -0
f 2/2/4 7/8/4 3/4/4

v 0 0.625 -0
f 7/8/4 2/2/4 8/6/4

vn 0 0 1
f 2/2/5 5/7/5 8/6/5

f 5/7/5 2/2/5 4/5/5

vt 39.3701 1.33227e-014
vn 5.41434e-016 1 5.41434e-016
vt -1.33227e-014 39.3701
vt -1.33227e-014 1.33227e-014
f 5/9/6 7/10/6 8/11/6

vt 39.3701 39.3701
f 7/10/6 5/9/6 6/12/6

