# Alias OBJ Model File
# Exported from SketchUp, (c) 2000-2012 Trimble Navigation Limited
# File units = meters

mtllib modularBuildings_066.mtl

g Mesh1 Group1 Model

usemtl Brick
v 8.2731e-013 0.0734375 -1.53045e-013
vt -6.0254e-012 2.89124
vn -1 1.87108e-013 4.6242e-013
v 1.44382e-015 0 -1
vt -39.3701 3.41704e-024
v 1.44382e-015 1.17311e-015 -2.88765e-015
vt -1.13687e-013 4.61853e-014
f 1/1/1 2/2/1 3/3/1

v 4.909e-014 0.51875 -0.95
vt -37.4016 20.4232
f 2/2/1 1/1/1 4/4/1

usemtl Roof
v 0.95 0.51875 -0.95
vt 37.4016 42.5339
vn 8.07999e-017 0.905459 0.424434
vt 1.9398e-012 42.5339
vt 3.25713e-011 1.22714
f 5/5/2 4/6/2 1/7/2

v 1 0.51875 -1
vt 39.3701 39.3701
vn 0 1 -0
vt 1.93268e-012 37.4016
vt 37.4016 37.4016
f 6/8/3 4/9/3 5/10/3

v 0 0.51875 -1
vt 0 39.3701
f 4/9/3 6/8/3 7/11/3

usemtl Brick
v 1 8.1215e-016 -1
vt -39.3701 3.72336e-011
vn 4.90178e-013 -9.44921e-013 -1
vt 1.92983e-011 20.4232
vt -39.3701 20.4232
f 8/12/4 7/13/4 6/14/4

vt 1.92415e-011 3.72016e-011
f 7/13/4 8/12/4 2/15/4

vt -39.3701 39.3701
vn 2.25597e-016 -1 5.86553e-016
vt -5.68434e-014 1.13687e-013
vt -5.68434e-014 39.3701
f 8/16/5 3/17/5 2/18/5

v 1 8.1215e-016 -2.88765e-015
vt -39.3701 1.13687e-013
f 3/17/5 8/16/5 9/19/5

vt 39.3701 20.4232
vn 1 0 -0
vt 1.13687e-013 3.19744e-014
vt 39.3701 3.19744e-014
f 6/20/6 9/21/6 8/22/6

v 1 0.51875 -0
vt 0 20.4232
f 9/21/6 6/20/6 10/23/6

usemtl Roof
vt 39.3701 0
f 6/8/3 5/10/3 10/24/3

v 0.95 0.51875 -0
vt 37.4016 0
f 10/24/3 5/10/3 11/25/3

vt -37.4016 42.5339
vn -0.424434 0.905459 -1.212e-016
vt -6.0254e-012 1.22714
vt -1.06803e-014 42.5339
f 5/26/7 1/27/7 11/28/7

usemtl Brick
vt 3.25713e-011 2.89124
vn -9.33995e-014 -1.74417e-014 1
vt 37.4016 20.4232
f 1/29/8 10/20/8 11/30/8

vt 5.68434e-014 4.61853e-014
f 3/31/8 10/20/8 1/29/8

f 10/20/8 3/31/8 9/22/8

f 2/2/1 4/4/1 7/14/1

