# Alias OBJ Model File
# Exported from SketchUp, (c) 2000-2012 Trimble Navigation Limited
# File units = meters

mtllib modularBuildings_042.mtl

g Mesh1 Group1 Model

usemtl Brick
v 0.1 0.06 -0.184145
vt 3.93701 7.24979
vn 0 1 -0
v -0.0908554 0.06 -0.815855
vt -3.57698 32.1203
v -0.0908554 0.06 -0.184145
vt -3.57698 7.24979
f 1/1/1 2/2/1 3/3/1

v 0.1 0.06 -0.815855
vt 3.93701 32.1203
f 2/2/1 1/1/1 4/4/1

usemtl Glass
vt -32.1203 2.3622
vn -1 1.48708e-015 2.26865e-031
vt -7.24979 2.3622
v 0.1 0.18 -0.815855
vt -32.1203 7.08661
f 4/5/2 1/6/2 5/7/2

v 0.1 0.5 -0.875
vt -34.4488 19.685
f 1/6/2 6/8/2 5/7/2

v 0.1 0.18 -0.184145
vt -7.24979 7.08661
f 7/9/2 6/8/2 1/6/2

v 0.1 0.18 -0.125
vt -4.92126 7.08661
f 8/10/2 6/8/2 7/9/2

v 0.1 0.5 -0.125
vt -4.92126 19.685
f 6/8/2 8/10/2 9/11/2

usemtl Brick
vt -3.93701 7.08661
vn 0 0 -1
v 0 0.5 -0.125
vt 0 19.685
vt -3.93701 19.685
f 8/12/3 10/13/3 9/14/3

v 0 0.18 -0.125
vt 0 7.08661
f 10/13/3 8/12/3 11/15/3

vt 0 4.92126
vt 3.93701 4.92126
f 7/1/1 11/16/1 8/17/1

v -0.0908554 0.18 -0.184145
f 12/3/1 11/16/1 7/1/1

v -0.15 0.18 -0.125
vt -5.90551 4.92126
f 12/3/1 13/18/1 11/16/1

v -0.15 0.18 -0.875
vt -5.90551 34.4488
f 13/18/1 12/3/1 14/19/1

v -0.0908554 0.18 -0.815855
f 15/2/1 14/19/1 12/3/1

v 0 0.18 -0.875
vt 0 34.4488
f 14/19/1 15/2/1 16/20/1

f 16/20/1 15/2/1 5/4/1

vt -3.57698 2.3622
vn 0 0 1
vt 3.93701 7.08661
vt -3.57698 7.08661
f 2/21/4 5/22/4 15/23/4

vt 3.93701 2.3622
f 5/22/4 2/21/4 4/24/4

vt 7.24979 7.08661
vn 1 0 1.14279e-015
vt 32.1203 2.3622
vt 32.1203 7.08661
f 12/25/5 2/26/5 15/27/5

vt 7.24979 2.3622
f 2/26/5 12/25/5 3/28/5

vt 3.57698 7.08661
vt -3.93701 2.3622
vt 3.57698 2.3622
f 12/29/3 1/30/3 3/31/3

f 1/30/3 12/29/3 7/12/3

v 0.1 0.18 -0.875
vt 3.93701 34.4488
f 16/20/1 5/4/1 17/32/1

usemtl Glass
vt -34.4488 7.08661
f 5/7/2 6/8/2 17/33/2

usemtl Brick
vt 3.93701 19.685
f 6/34/4 16/15/4 17/22/4

v 0 0.5 -0.875
f 16/15/4 6/34/4 18/13/4

vt -3.93701 34.4488
vn 1.00328e-043 -1 -4.81274e-016
vt -1.97495e-042 4.92126
vt -1.97495e-042 34.4488
f 6/35/6 10/36/6 18/37/6

vt -3.93701 4.92126
f 10/36/6 6/35/6 9/38/6

vn -1 0 -0
v 0 0.625 -1
vt -39.3701 24.6063
f 10/11/7 19/39/7 18/8/7

v 0 0.625 -0
vt 0 24.6063
f 10/11/7 20/40/7 19/39/7

v 0 0 -0
vt 0 0
f 20/40/7 10/11/7 21/41/7

v 0 0 -0.125
vt -4.92126 0
f 10/11/7 22/42/7 21/41/7

f 22/42/7 10/11/7 11/10/7

v -0.15 0 -0.125
vt -5.90551 0
f 11/15/4 23/43/4 22/41/4

vt -5.90551 7.08661
f 23/43/4 11/15/4 13/44/4

vn -1 0 -9.62549e-016
f 14/33/8 23/42/8 13/10/8

v -0.15 0 -0.875
vt -34.4488 0
f 23/42/8 14/33/8 24/45/8

vt 5.90551 7.08661
v 0 0 -0.875
vt 5.90551 0
f 14/46/3 25/41/3 24/47/3

f 25/41/3 14/46/3 16/15/3

f 16/33/7 19/39/7 25/45/7

f 18/8/7 19/39/7 16/33/7

v 0 0 -1
vt -39.3701 0
f 25/45/7 19/39/7 26/48/7

v 1 0 -1
f 19/40/3 27/48/3 26/41/3

v 1 0.625 -1
f 27/48/3 19/40/3 28/39/3

vt 8.88178e-015 39.3701
vn -3.60956e-016 1 3.60956e-016
v 1 0.625 -0
vt 39.3701 8.88178e-015
vt 39.3701 39.3701
f 19/49/9 29/50/9 28/51/9

vt 8.88178e-015 8.88178e-015
f 29/50/9 19/49/9 20/52/9

vt 39.3701 24.6063
f 21/41/4 29/53/4 20/40/4

v 1 0 -0
vt 39.3701 0
f 29/53/4 21/41/4 30/54/4

vn 0 -1 -0
vt -39.3701 39.3701
f 21/41/10 27/55/10 30/48/10

f 22/16/10 27/55/10 21/41/10

f 25/20/10 27/55/10 22/16/10

vt 0 39.3701
f 27/55/10 25/20/10 26/56/10

vt 5.90551 34.4488
f 22/16/10 24/57/10 25/20/10

vt 5.90551 4.92126
f 24/57/10 22/16/10 23/58/10

vn 1 0 -0
f 27/54/11 29/40/11 30/41/11

f 29/40/11 27/54/11 28/53/11

