# Alias OBJ Model File
# Exported from SketchUp, (c) 2000-2012 Trimble Navigation Limited
# File units = meters

mtllib modularBuildings_038.mtl

g Mesh1 Group1 Model

usemtl Brick
v 0.210225 0.5025 -0.431196
vt -8.27658 16.9762
vn 4.35712e-016 -1 -4.35712e-016
v 0.360485 0.5025 -0.139515
vt -14.1923 5.4927
v 0.139515 0.5025 -0.360485
vt -5.4927 14.1923
f 1/1/1 2/2/1 3/3/1

v 0.431196 0.5025 -0.210225
vt -16.9762 8.27658
f 2/2/1 1/1/1 4/4/1

usemtl Glass
v 0.210225 4.28635e-016 -0.431196
vt -6.15157 5.87244e-015
vn -0.707107 -6.1619e-016 0.707107
vt 6.15157 19.7835
vt -6.15157 19.7835
f 5/5/2 4/6/2 1/7/2

v 0.431196 4.06075e-016 -0.210225
vt 6.15157 4.98426e-015
f 4/6/2 5/5/2 6/8/2

usemtl Brick
vn -3.88131e-016 -1 1.75862e-016
v 1 0 -1
vt -39.3701 39.3701
f 5/1/3 7/9/3 6/4/3

v 0 5.86553e-016 -0.5
vt 8.96298e-030 19.685
f 8/10/3 7/9/3 5/1/3

v 0 0 -1
vt 0 39.3701
f 7/9/3 8/10/3 9/11/3

vt -19.685 2.30926e-014
vn -1 2.88765e-016 -3.60956e-016
v 0 0.625 -1
vt -39.3701 24.6063
vt -39.3701 -4.10359e-030
f 8/12/4 10/13/4 9/14/4

v 0 0.625 -0.5
vt -19.685 24.6063
f 10/13/4 8/12/4 11/15/4

vt -13.9194 2.00414e-014
vn -0.707107 -2.19209e-016 0.707107
vt -13.9194 24.6063
f 8/16/5 3/7/5 11/17/5

v 0.139515 4.28635e-016 -0.360485
vt -6.15157 1.38241e-014
f 3/7/5 8/16/5 12/18/5

f 8/10/3 5/1/3 12/3/3

vt 17.8564 2.00144e-014
vn 0.707107 5.10279e-016 0.707107
vt 13.9194 19.7835
vt 13.9194 2.00144e-014
f 5/19/6 3/20/6 12/21/6

vt 17.8564 19.7835
f 3/20/6 5/19/6 1/22/6

v 0.5 0.625 -0
vt 13.9194 24.6063
f 11/17/5 3/7/5 13/23/5

f 2/6/5 13/23/5 3/7/5

v 0.360485 4.06075e-016 -0.139515
vt 6.15157 1.29359e-014
f 14/24/5 13/23/5 2/6/5

v 0.5 4.51195e-017 -0
vt 13.9194 -1.27491e-015
f 13/23/5 14/24/5 15/25/5

vt -19.685 -1.65605e-030
f 15/26/3 14/2/3 6/4/3

vt -13.9194 1.6007e-014
vn -0.707107 3.2093e-018 -0.707107
vt -17.8564 19.7835
vt -17.8564 1.6007e-014
f 14/27/7 4/28/7 6/29/7

vt -13.9194 19.7835
f 4/28/7 14/27/7 2/30/7

f 6/4/3 7/9/3 15/26/3

v 1 0 -0
vt -39.3701 -2.6873e-030
f 15/26/3 7/9/3 16/31/3

vt 39.3701 0
vn 1 0 -0
v 1 0.625 -0
vt 0 24.6063
vt 0 0
f 7/32/8 17/33/8 16/34/8

v 1 0.625 -1
vt 39.3701 24.6063
f 17/33/8 7/32/8 18/35/8

vt -39.3701 0
vn 0 0 -1
f 7/36/9 10/33/9 18/13/9

f 10/33/9 7/36/9 9/34/9

vt -8.88178e-015 39.3701
vn 3.60956e-016 1 7.21911e-016
vt 19.685 1.77636e-014
vt 39.3701 39.3701
f 10/37/10 13/38/10 18/39/10

vt -8.88178e-015 19.685
f 13/38/10 10/37/10 11/40/10

vt 39.3701 1.77636e-014
f 18/39/10 13/38/10 17/41/10

vt 19.685 1.77636e-015
vn 0 0 1
vt 19.685 24.6063
f 15/42/11 17/35/11 13/43/11

f 17/35/11 15/42/11 16/32/11

