# Alias OBJ Model File
# Exported from SketchUp, (c) 2000-2012 Trimble Navigation Limited
# File units = meters

mtllib modularBuildings_015.mtl

g Mesh1 Group1 Model

usemtl Brick
v 1 0.2125 -0
vt 39.3701 8.36614
vn 0 0 1
v 0.5 5.41434e-016 -0
vt 19.685 2.13163e-014
v 1 0 -0
vt 39.3701 0
f 1/1/1 2/2/1 3/3/1

v 0.5 0.2125 -0
vt 19.685 8.36614
f 2/2/1 1/1/1 4/4/1

v 0.5 0.2125 -0.125
vt 19.685 4.92126
vn 0 1 -0
vt 19.685 0
f 5/5/2 4/6/2 1/3/2

v 0.125 0.2125 -0.5
vt 4.92126 19.685
f 6/7/2 4/6/2 5/5/2

v 0 0.2125 -0.5
vt 0 19.685
f 6/7/2 7/8/2 4/6/2

v 0 0.2125 -1
vt 0 39.3701
f 7/8/2 6/7/2 8/9/2

v 0.125 0.2125 -0.875
vt 4.92126 34.4488
f 9/10/2 8/9/2 6/7/2

v 1 0.2125 -1
vt 39.3701 39.3701
f 8/9/2 9/10/2 10/11/2

v 0.875 0.2125 -0.875
vt 34.4488 34.4488
f 10/11/2 9/10/2 11/12/2

v 0.125 0.10625 -0.875
vt 4.92126 4.18307
vt 34.4488 8.36614
vt 4.92126 8.36614
f 12/13/1 11/14/1 9/15/1

v 0.875 0.10625 -0.875
vt 34.4488 4.18307
f 11/14/1 12/13/1 13/16/1

v 0.5 0.10625 -0.125
f 12/10/2 14/5/2 13/12/2

v 0.125 0.10625 -0.5
f 14/5/2 12/10/2 15/7/2

vn 1 0 -0
vt 19.685 4.18307
f 12/16/3 6/4/3 15/17/3

f 6/4/3 12/16/3 9/14/3

vt 10.4396 8.36614
vn 0.707107 0 -0.707107
vt -10.4396 4.18307
vt 10.4396 4.18307
f 6/18/4 14/19/4 15/20/4

vt -10.4396 8.36614
f 14/19/4 6/18/4 5/21/4

vt -19.685 8.36614
vn 0 0 -1
v 0.875 0.10625 -0.125
vt -34.4488 4.18307
vt -19.685 4.18307
f 5/22/5 16/23/5 14/24/5

v 0.875 0.2125 -0.125
vt -34.4488 8.36614
f 16/23/5 5/22/5 17/25/5

vt 34.4488 4.92126
f 5/5/2 1/3/2 17/26/2

f 17/26/2 1/3/2 11/12/2

f 10/11/2 11/12/2 1/3/2

vt 7.59317e-046 8.36614
vn 1 -4.24654e-016 1.92866e-047
v 1 0 -1
vt 39.3701 1.67187e-014
f 1/27/6 18/28/6 10/1/6

vt 7.59317e-046 1.67187e-014
f 18/28/6 1/27/6 3/29/6

vt -19.685 -2.35859e-029
vn -8.31983e-016 -1 6.25723e-016
vt -39.3701 39.3701
vt -39.3701 -2.04957e-029
f 2/30/7 18/31/7 3/32/7

v 0 1.08287e-015 -0.5
vt 3.54696e-029 19.685
f 19/33/7 18/31/7 2/30/7

v 0 0 -1
f 18/31/7 19/33/7 20/9/7

vt -19.685 4.26326e-014
vn -1 4.24654e-016 -1.80478e-016
vt -39.3701 8.36614
vt -39.3701 -3.01735e-030
f 19/34/8 8/35/8 20/36/8

f 8/35/8 19/34/8 7/22/8

vt -13.9194 5.0626e-014
vn -0.707107 5.74268e-016 0.707107
vt 13.9194 8.36614
vt -13.9194 8.36614
f 19/37/9 4/38/9 7/39/9

vt 13.9194 2.93098e-014
f 4/38/9 19/37/9 2/40/9

vt 0 8.36614
vt -39.3701 0
vt 0 0
f 8/41/5 18/42/5 20/43/5

f 18/42/5 8/41/5 10/35/5

vn -1 0 -0
vt -4.92126 4.18307
vt -4.92126 8.36614
f 11/25/10 16/44/10 17/45/10

f 16/44/10 11/25/10 13/23/10

f 13/12/2 14/5/2 16/26/2

