# Alias OBJ Model File
# Exported from SketchUp, (c) 2000-2012 Trimble Navigation Limited
# File units = meters

mtllib modularBuildings_071.mtl

g Mesh1 Group1 Model

usemtl Brick
v 0 0.625 -1
vt 0 24.6063
vn 0 0 -1
v 1 0 -1
vt -39.3701 0
v 0 0 -1
vt 0 0
f 1/1/1 2/2/1 3/3/1

v 1 0.625 -1
vt -39.3701 24.6063
f 2/2/1 1/1/1 4/4/1

vt 0 39.3701
vn 0 1 -0
v 1 0.625 -0
vt 39.3701 0
vt 39.3701 39.3701
f 1/5/2 5/6/2 4/7/2

v 0 0.625 -0
f 5/6/2 1/5/2 6/3/2

vn -1 0 -0
v 0 0.5 -2.88765e-015
vt -1.13687e-013 19.685
f 1/4/3 7/8/3 6/1/3

v 0 0.5 -0.875
vt -34.4488 19.685
f 7/8/3 1/4/3 8/9/3

v 0 0 -0.875
vt -34.4488 0
f 8/9/3 1/4/3 9/10/3

f 9/10/3 1/4/3 3/2/3

vt -39.3701 39.3701
vn 0 -1 -0
vt 0 34.4488
f 2/11/4 9/12/4 3/5/4

v 0.1 0 -0.875
vt -3.93701 34.4488
f 9/12/4 2/11/4 10/13/4

v 0.1 0 -2.88765e-015
vt -3.93701 1.13687e-013
f 10/13/4 2/11/4 11/14/4

v 1 0 -0
f 11/14/4 2/11/4 12/2/4

vn 1 0 -0
f 2/6/5 5/1/5 12/3/5

vt 39.3701 24.6063
f 5/1/5 2/6/5 4/15/5

vn -1.35468e-015 -4.29511e-016 1
vt 3.93701 -5.11205e-029
vt 39.3701 -2.29075e-029
f 5/15/6 11/16/6 12/17/6

v 0.1 0.5 -2.88765e-015
vt 3.93701 19.685
f 11/16/6 5/15/6 13/18/6

vt -1.54009e-028 19.685
f 13/18/6 5/15/6 7/19/6

f 7/19/6 5/15/6 6/1/6

vt -8.46408e-043 1.17747e-013
vn 4.29975e-044 -1 -2.0626e-016
v 0.1 0.5 -0.875
vt -3.93701 1.17747e-013
f 7/20/7 14/13/7 13/21/7

vt -8.46408e-043 34.4488
f 14/13/7 7/20/7 8/22/7

vn 0 0 1
vt 0 19.685
f 9/3/8 14/18/8 8/23/8

vt 3.93701 0
f 14/18/8 9/3/8 10/24/8

usemtl Glass
vt -1.13687e-013 0
f 11/25/3 14/9/3 10/10/3

f 14/9/3 11/25/3 13/8/3

