# Alias OBJ Model File
# Exported from SketchUp, (c) 2000-2012 Trimble Navigation Limited
# File units = meters

mtllib modularBuildings_101.mtl

g Mesh1 Group1 Model

usemtl Metal
v 0.05 0.625 -0
vt 1.9685 -5.57248e-014
vn -1.80478e-015 1 -2.26466e-015
v 0 0.625 -0.0398466
vt 4.44089e-014 1.56876
v 0 0.625 -0
vt 4.44089e-014 -5.57248e-014
f 1/1/1 2/2/1 3/3/1

v 0.05 0.625 -0.0398466
vt 1.9685 1.56876
f 2/2/1 1/1/1 4/4/1

vt -1.60914e-029 24.6063
vn 1 1.80478e-015 -8.17441e-030
v 0.05 0 -0.0398466
vt 1.56876 -3.55271e-015
vt 1.56876 24.6063
f 1/5/2 5/6/2 4/7/2

v 0.05 1.80478e-016 -0
vt -1.60914e-029 3.55271e-015
f 5/6/2 1/5/2 6/8/2

vt 0 24.6063
vn -8.17441e-030 2.26466e-015 1
vt 1.9685 7.10543e-015
vt 1.9685 24.6063
f 3/9/3 6/10/3 1/11/3

v 0 0 -0
vt 0 0
f 6/10/3 3/9/3 7/12/3

vt -1.56876 24.6063
vn -1 -1.80478e-015 -0
f 2/13/4 7/12/4 3/9/4

v 0 0 -0.0398466
vt -1.56876 0
f 7/12/4 2/13/4 8/14/4

vn 0 -2.26466e-015 -1
vt -1.9685 3.55271e-015
vt 0 3.55271e-015
f 2/9/5 5/15/5 8/16/5

vt -1.9685 24.6063
f 5/15/5 2/9/5 4/17/5

vt -1.9685 1.56876
vn 1.80478e-015 -1 2.26466e-015
vt 0 1.56876
f 5/18/6 7/12/6 8/19/6

vt -1.9685 -8.04568e-030
f 7/12/6 5/18/6 6/20/6

g Mesh2 Group1 Model

v 0.05 0.625 -0.272653
vt 1.9685 10.7344
v 0 0.625 -0.3125
vt 4.44089e-014 12.3031
v 0 0.625 -0.272653
vt 4.44089e-014 10.7344
f 9/21/1 10/22/1 11/23/1

v 0.05 0.625 -0.3125
vt 1.9685 12.3031
f 10/22/1 9/21/1 12/24/1

vt 10.7344 24.6063
v 0.05 0 -0.3125
vt 12.3031 -3.55271e-015
vt 12.3031 24.6063
f 9/25/2 13/26/2 12/27/2

v 0.05 1.80478e-016 -0.272653
vt 10.7344 3.55271e-015
f 13/26/2 9/25/2 14/28/2

vt -8.77472e-029 24.6063
vt 1.9685 3.14151e-014
f 11/29/3 14/30/3 9/11/3

v 0 0 -0.272653
vt -8.77472e-029 2.43097e-014
f 14/30/3 11/29/3 15/31/3

vt -12.3031 24.6063
vt -10.7344 0
vt -10.7344 24.6063
f 10/32/4 15/33/4 11/34/4

v 0 0 -0.3125
vt -12.3031 0
f 15/33/4 10/32/4 16/35/4

vt -1.9685 2.78624e-014
vt 0 2.78624e-014
f 10/9/5 13/36/5 16/37/5

f 13/36/5 10/9/5 12/17/5

vt -1.9685 12.3031
vt 0 10.7344
vt 0 12.3031
f 13/38/6 15/39/6 16/40/6

vt -1.9685 10.7344
f 15/39/6 13/38/6 14/41/6

