# Alias OBJ Model File
# Exported from SketchUp, (c) 2000-2012 Trimble Navigation Limited
# File units = meters

mtllib modularBuildings_073.mtl

g Mesh1 Group1 Model

usemtl Metal
v 0 0.2 -0
vt 0 7.87402
vn -4.69242e-014 0 1
v -0.1 0 -4.69242e-015
vt -3.93701 0
v 0 0 -0
vt 0 0
f 1/1/1 2/2/1 3/3/1

v -0.1 0.2 -4.69242e-015
vt -3.93701 7.87402
f 2/2/1 1/1/1 4/4/1

vn 0 1 -0
v -0.1 0.2 -0.31
vt -3.93701 12.2047
vt -3.93701 1.84741e-013
f 1/3/2 5/5/2 4/6/2

v 1.44382e-014 0.2 -0.31
vt 5.68434e-013 12.2047
f 5/5/2 1/3/2 6/7/2

vn 1 0 4.65749e-014
v 1.44382e-014 0 -0.31
vt 12.2047 0
vt 12.2047 7.87402
f 1/1/3 7/8/3 6/9/3

f 7/8/3 1/1/3 3/3/3

vn 0 -1 -0
v -0.1 0 -0.31
vt 3.93701 12.2047
vt -5.68434e-013 12.2047
f 3/3/4 8/10/4 7/11/4

vt 3.93701 1.84741e-013
f 8/10/4 3/3/4 2/12/4

vt -1.37524e-015 0
vn -1 0 -4.65749e-014
v -0.1 0.0275556 -0.193089
vt -7.60191 1.08486
vt -12.2047 0
f 2/13/5 9/14/5 8/15/5

v -0.1 0.0350481 -0.175
vt -6.88976 1.37985
f 9/14/5 2/13/5 10/16/5

v -0.1 0.046967 -0.159467
vt -6.27823 1.84909
f 10/16/5 2/13/5 11/17/5

v -0.1 0.0625 -0.147548
vt -5.80898 2.46063
f 11/17/5 2/13/5 12/18/5

v -0.1 0.0805886 -0.140056
vt -5.514 3.17278
f 12/18/5 2/13/5 13/19/5

v -0.1 0.1 -0.1375
vt -5.41339 3.93701
f 13/19/5 2/13/5 14/20/5

v -0.1 0.119411 -0.140056
vt -5.514 4.70124
f 2/13/5 15/21/5 14/20/5

v -0.1 0.1375 -0.147548
vt -5.80898 5.41339
f 2/13/5 16/22/5 15/21/5

v -0.1 0.153033 -0.159467
vt -6.27823 6.02492
f 2/13/5 17/23/5 16/22/5

vt -1.37524e-015 7.87402
f 4/24/5 17/23/5 2/13/5

v -0.1 0.164952 -0.175
vt -6.88976 6.49417
f 17/23/5 4/24/5 18/25/5

v -0.1 0.172444 -0.193089
vt -7.60191 6.78915
f 18/25/5 4/24/5 19/26/5

vt -12.2047 7.87402
f 19/26/5 4/24/5 5/27/5

v -0.1 0.175 -0.2125
vt -8.36614 6.88976
f 19/26/5 5/27/5 20/28/5

v -0.1 0.172444 -0.231911
vt -9.13037 6.78915
f 20/28/5 5/27/5 21/29/5

v -0.1 0.164952 -0.25
vt -9.84252 6.49417
f 21/29/5 5/27/5 22/30/5

v -0.1 0.153033 -0.265533
vt -10.4541 6.02492
f 22/30/5 5/27/5 23/31/5

v -0.1 0.1375 -0.277452
vt -10.9233 5.41339
f 23/31/5 5/27/5 24/32/5

v -0.1 0.119411 -0.284944
vt -11.2183 4.70124
f 24/32/5 5/27/5 25/33/5

v -0.1 0.1 -0.2875
vt -11.3189 3.93701
f 25/33/5 5/27/5 26/34/5

f 8/15/5 26/34/5 5/27/5

v -0.1 0.0805886 -0.284944
vt -11.2183 3.17278
f 8/15/5 27/35/5 26/34/5

v -0.1 0.0625 -0.277452
vt -10.9233 2.46063
f 8/15/5 28/36/5 27/35/5

v -0.1 0.046967 -0.265533
vt -10.4541 1.84909
f 8/15/5 29/37/5 28/36/5

v -0.1 0.0350481 -0.25
vt -9.84252 1.37985
f 8/15/5 30/38/5 29/37/5

v -0.1 0.0275556 -0.231911
vt -9.13037 1.08486
f 8/15/5 31/39/5 30/38/5

v -0.1 0.025 -0.2125
vt -8.36614 0.984252
f 8/15/5 32/40/5 31/39/5

f 8/15/5 9/14/5 32/40/5

usemtl Roof
vn -1 -1.74716e-030 -4.7081e-014
f 9/14/6 20/28/6 32/40/6

f 9/14/6 19/26/6 20/28/6

f 10/16/6 19/26/6 9/14/6

f 10/16/6 18/25/6 19/26/6

f 11/17/6 18/25/6 10/16/6

f 11/17/6 17/23/6 18/25/6

f 12/18/6 17/23/6 11/17/6

f 12/18/6 16/22/6 17/23/6

f 13/19/6 16/22/6 12/18/6

f 13/19/6 15/21/6 16/22/6

f 15/21/6 13/19/6 14/20/6

f 32/40/6 20/28/6 21/29/6

f 32/40/6 21/29/6 31/39/6

f 31/39/6 21/29/6 22/30/6

f 31/39/6 22/30/6 30/38/6

f 30/38/6 22/30/6 23/31/6

f 30/38/6 23/31/6 29/37/6

f 29/37/6 23/31/6 24/32/6

f 29/37/6 24/32/6 28/36/6

f 28/36/6 24/32/6 25/33/6

f 28/36/6 25/33/6 27/35/6

f 27/35/6 25/33/6 26/34/6

usemtl Metal
vt 3.93701 7.87402
vn 5.05338e-014 0 -1
vt 4.83169e-014 0
vt 3.93701 0
f 5/41/7 7/42/7 8/43/7

vt 4.83169e-014 7.87402
f 7/42/7 5/41/7 6/44/7

