# Alias OBJ Model File
# Exported from SketchUp, (c) 2000-2012 Trimble Navigation Limited
# File units = meters

mtllib modularBuildings_026.mtl

g Mesh1 Group1 Model

usemtl Brick
v 0 0.8375 -1
vt 0 32.9724
vn 0 0 -1
v 1 0.2125 -1
vt -39.3701 8.36614
v 0 0.2125 -1
vt 0 8.36614
f 1/1/1 2/2/1 3/3/1

v 1 0.8375 -1
vt -39.3701 32.9724
f 2/2/1 1/1/1 4/4/1

vt -1.19016e-014 39.3701
vn 3.60956e-016 1 3.60956e-016
v 1 0.8375 -0
vt 39.3701 1.19016e-014
vt 39.3701 39.3701
f 1/5/2 5/6/2 4/7/2

v 0 0.8375 -0
vt -1.19016e-014 1.19016e-014
f 5/6/2 1/5/2 6/8/2

v 0 0.7125 -0.375
vt -14.7638 28.0512
vn -1 -4.20287e-032 1.25822e-047
f 7/9/3 6/1/3 1/4/3

v 0 0.2125 -0
f 6/1/3 7/9/3 8/3/3

v 0 0.2125 -0.275
vt -10.8268 8.36614
f 8/3/3 7/9/3 9/10/3

v 0 0.2125 -0.375
vt -14.7638 8.36614
f 10/11/3 9/10/3 7/9/3

usemtl Dark_brick
v 0 0.2125 -0.725
vt 0 28.5433
vn 0 1 -0
vt 0 10.8268
vt 0 14.7638
f 11/12/4 9/13/4 10/14/4

v -0.1 0.2125 -0.725
vt -3.93701 28.5433
f 12/15/4 9/13/4 11/12/4

v -0.1 0.2125 -0.275
vt -3.93701 10.8268
f 9/13/4 12/15/4 13/16/4

vt -28.5433 8.36614
vn -1 0 -0
v -0.1 0.10625 -0.275
vt -10.8268 4.18307
f 12/17/5 14/18/5 13/10/5

v -0.1 0.10625 -0.725
vt -28.5433 4.18307
f 14/18/5 12/17/5 15/19/5

vt 3.93701 8.36614
vn 1.44382e-014 -1.35889e-014 -1
v 0 0.10625 -0.725
vt 4.12115e-013 4.18307
vt 3.93701 4.18307
f 12/20/6 16/21/6 15/22/6

vt 4.12115e-013 8.36614
f 16/21/6 12/20/6 11/23/6

v 0 0.10625 -0.825
vt -32.4803 4.18307
f 11/17/5 17/24/5 16/19/5

f 17/24/5 11/17/5 3/2/5

usemtl Brick
f 11/17/3 1/4/3 3/2/3

v 0 0.2125 -0.625
vt -24.6063 8.36614
f 18/25/3 1/4/3 11/17/3

v 0 0.7125 -0.625
vt -24.6063 28.0512
f 19/26/3 1/4/3 18/25/3

f 7/9/3 1/4/3 19/26/3

v 0.1 0.7125 -0.625
vt -3.93701 24.6063
vn 0 -1 -0
vt 0 24.6063
f 20/27/7 7/14/7 19/28/7

v 0.1 0.7125 -0.375
vt -3.93701 14.7638
f 7/14/7 20/27/7 21/29/7

usemtl Glass
v 0.1 0.2125 -0.375
f 20/26/5 22/11/5 21/9/5

v 0.1 0.2125 -0.625
f 22/11/5 20/26/5 23/25/5

usemtl Brick
vt 3.93701 28.0512
vn 0 0 1
f 20/30/8 18/3/8 23/20/8

vt 0 28.0512
f 18/3/8 20/30/8 19/31/8

usemtl Dark_brick
vt 3.93701 14.7638
vt 3.93701 24.6063
f 18/28/4 22/32/4 23/33/4

f 22/32/4 18/28/4 10/14/4

f 11/12/4 10/14/4 18/28/4

usemtl Brick
vt -3.93701 8.36614
f 7/31/1 22/34/1 10/3/1

vt -3.93701 28.0512
f 22/34/1 7/31/1 21/35/1

usemtl Dark_brick
v 0 -9.05928e-016 -0.825
vt -32.4803 -3.56665e-014
f 17/24/5 3/2/5 24/36/5

v 0 0 -1
vt -39.3701 0
f 24/36/5 3/2/5 25/37/5

v 1 0 -1
vt 0 0
f 3/3/1 26/37/1 25/38/1

f 26/37/1 3/3/1 2/2/1

v 1 0.2125 -0
vn 1 0 -0
vt 39.3701 0
vt 39.3701 8.36614
f 27/3/9 26/39/9 2/40/9

v 1 0 -0
f 26/39/9 27/3/9 28/38/9

v 0 0 -0
f 27/40/8 29/38/8 28/39/8

f 29/38/8 27/40/8 8/3/8

usemtl Brick
vt 39.3701 32.9724
f 5/41/8 8/3/8 27/40/8

f 8/3/8 5/41/8 6/1/8

f 2/40/9 5/1/9 27/3/9

f 5/1/9 2/40/9 4/41/9

usemtl Dark_brick
f 9/10/5 29/38/5 8/3/5

v 0 0.10625 -0.175
vt -6.88976 4.18307
f 29/38/5 9/10/5 30/42/5

v 0 0.10625 -0.275
f 30/42/5 9/10/5 31/18/5

vt -3.93701 4.18307
vt 0 4.18307
f 9/3/8 14/43/8 31/44/8

f 14/43/8 9/3/8 13/34/8

vn -8.20354e-016 1 -9.38485e-016
vt 3.4316e-015 6.88976
vt 3.4316e-015 10.8268
f 14/16/10 30/45/10 31/46/10

v -0.2 0.10625 -0.175
vt -7.87402 6.88976
f 14/16/10 32/47/10 30/45/10

v -0.2 0.10625 -0.825
vt -7.87402 32.4803
f 32/47/10 14/16/10 33/48/10

f 15/15/10 33/48/10 14/16/10

vt 3.4316e-015 32.4803
f 33/48/10 15/15/10 17/49/10

vt 3.4316e-015 28.5433
f 17/49/10 15/15/10 16/50/10

vt 0 -3.56665e-014
vt 7.87402 4.18307
f 24/51/1 33/52/1 17/44/1

v -0.2 -9.05928e-016 -0.825
vt 7.87402 -3.56665e-014
f 33/52/1 24/51/1 34/53/1

vt 1.10152e-029 32.4803
vn 3.08839e-016 -1 4.13957e-016
v -0.2 0 -0.175
vt 7.87402 6.88976
vt 7.87402 32.4803
f 24/54/11 35/55/11 34/56/11

v 0 0 -0.175
vt 0 6.88976
f 35/55/11 24/54/11 36/57/11

vt -39.3701 39.3701
f 24/54/11 26/58/11 36/57/11

vt 0 39.3701
f 26/58/11 24/54/11 25/59/11

f 36/57/11 26/58/11 29/38/11

vt -39.3701 5.03331e-030
f 29/38/11 26/58/11 28/60/11

vt -6.88976 0
f 36/61/5 29/38/5 30/42/5

vt -7.87402 0
f 30/44/8 35/62/8 36/38/8

vt -7.87402 4.18307
f 35/62/8 30/44/8 32/63/8

f 33/24/5 35/61/5 32/42/5

f 35/61/5 33/24/5 34/36/5

