# Alias OBJ Model File
# Exported from SketchUp, (c) 2000-2012 Trimble Navigation Limited
# File units = meters

mtllib modularBuildings_074.mtl

g Mesh1 Group1 Model

usemtl Metal
v 0.05 0.5 -0
vt 1.9685 0
vn 0 1 -0
v 0 0.5 -0.25
vt 0 9.84252
v 0 0.5 -0
vt 0 0
f 1/1/1 2/2/1 3/3/1

v 0.05 0.5 -0.25
vt 1.9685 9.84252
f 2/2/1 1/1/1 4/4/1

vt 0 19.685
vn 1 0 -0
v 0.05 0 -0.25
vt 9.84252 0
vt 9.84252 19.685
f 1/5/2 5/6/2 4/7/2

v 0.05 0 -0
f 5/6/2 1/5/2 6/3/2

vt 1.9685 19.685
vn 0 0 1
v 0 0 -0
f 1/8/3 7/3/3 6/1/3

f 7/3/3 1/8/3 3/5/3

vn -1 0 -0
v 0 0.445764 -0.0542359
vt -2.13527 17.5498
f 3/5/4 8/9/4 7/3/4

vt -9.84252 19.685
f 8/9/4 3/5/4 2/10/4

v 0 0.445764 -0.195764
vt -7.70725 17.5498
f 8/9/4 2/10/4 9/11/4

v 0 0.25 -0.195764
vt -7.70725 9.84252
f 9/11/4 2/10/4 10/12/4

v 0 0 -0.25
vt -9.84252 0
f 11/13/4 10/12/4 2/10/4

v 0 0.25 -0.0542359
vt -2.13527 9.84252
f 11/13/4 12/14/4 10/12/4

f 7/3/4 12/14/4 11/13/4

f 12/14/4 7/3/4 8/9/4

vt 0 17.5498
vn 0 0 -1
v 0.025 0.25 -0.0542359
vt -0.984252 9.84252
f 8/15/5 13/16/5 12/2/5

v 0.025 0.445764 -0.0542359
vt -0.984252 17.5498
f 13/16/5 8/15/5 14/17/5

vt 0 2.13527
vn 0 -1 -0
v 0.025 0.445764 -0.195764
vt -0.984252 7.70725
vt -0.984252 2.13527
f 8/18/6 15/19/6 14/20/6

vt 0 7.70725
f 15/19/6 8/18/6 9/21/6

vt 0.984252 17.5498
f 10/2/3 15/22/3 9/15/3

v 0.025 0.25 -0.195764
vt 0.984252 9.84252
f 15/22/3 10/2/3 16/23/3

vn 0 1 1.59401e-016
vt 0.984252 2.13527
vt 0.984252 7.70725
f 10/21/7 13/24/7 16/25/7

f 13/24/7 10/21/7 12/18/7

usemtl Glass
f 13/14/4 15/11/4 16/12/4

f 15/11/4 13/14/4 14/9/4

usemtl Metal
vt -1.9685 9.84252
f 5/26/6 7/3/6 11/2/6

vt -1.9685 0
f 7/3/6 5/26/6 6/27/6

f 2/5/5 5/27/5 11/3/5

vt -1.9685 19.685
f 5/27/5 2/5/5 4/28/5

