# Alias OBJ Model File
# Exported from SketchUp, (c) 2000-2012 Trimble Navigation Limited
# File units = meters

mtllib modularBuildings_006.mtl

g Mesh1 Group1 Model

usemtl Brick
v 1 0.10625 -1
vt -39.3701 4.18307
vn 4.9826e-016 4.42306e-015 -1
v 1 0 -1
vt -39.3701 -1.74136e-013
v 0.125 0.10625 -1
vt -4.92126 4.18307
f 1/1/1 2/2/1 3/3/1

v 1 0.10625 -0.125
vt 4.92126 4.18307
vn 1 9.93784e-016 -7.34536e-017
vt 39.3701 -3.91254e-014
vt 39.3701 4.18307
f 4/4/2 2/5/2 1/6/2

v 1 0 -0
vt -2.89188e-015 -3.91254e-014
f 4/4/2 5/7/2 2/5/2

v 1 0.2125 -0
vt -2.89188e-015 8.36614
f 5/7/2 4/4/2 6/8/2

v 1 0.2125 -0.125
vt 4.92126 8.36614
f 7/9/2 6/8/2 4/4/2

v 0.5 0.2125 -0.125
vt 19.685 4.92126
vn 0 1 -0
vt 39.3701 0
vt 39.3701 4.92126
f 8/10/3 6/11/3 7/12/3

v 0.5 0.2125 -0
vt 19.685 0
f 8/10/3 9/13/3 6/11/3

v 0.125 0.2125 -0.5
vt 4.92126 19.685
f 10/14/3 9/13/3 8/10/3

v 0 0.2125 -0.5
vt 0 19.685
f 10/14/3 11/15/3 9/13/3

v 0 0.2125 -1
vt 0 39.3701
f 11/15/3 10/14/3 12/16/3

v 0.125 0.2125 -1
vt 4.92126 39.3701
f 13/17/3 12/16/3 10/14/3

vt 1.96166e-014 8.36614
vt -4.92126 8.36614
f 3/3/1 12/18/1 13/19/1

v 0 0 -1
vt 1.96166e-014 -1.74136e-013
f 3/3/1 14/20/1 12/18/1

f 14/20/1 3/3/1 2/2/1

vt -39.3701 39.3701
vn -8.31983e-016 -1 6.25723e-016
v 0 1.08287e-015 -0.5
vt 3.54696e-029 19.685
f 2/21/4 15/22/4 14/16/4

v 0.5 5.41434e-016 -0
vt -19.685 -2.35859e-029
f 15/22/4 2/21/4 16/23/4

vt -39.3701 -2.04957e-029
f 16/23/4 2/21/4 5/24/4

vt 39.3701 8.36614
vn 0 0 1
vt 19.685 2.13163e-014
f 6/25/5 16/26/5 5/11/5

vt 19.685 8.36614
f 16/26/5 6/25/5 9/27/5

vt 13.9194 8.36614
vn -0.707107 5.74268e-016 0.707107
vt -13.9194 5.0626e-014
vt 13.9194 2.93098e-014
f 9/28/6 15/29/6 16/30/6

vt -13.9194 8.36614
f 15/29/6 9/28/6 11/31/6

vt -39.3701 8.36614
vn -1 4.24654e-016 -1.80478e-016
vt -19.685 4.26326e-014
vt -19.685 8.36614
f 12/32/7 15/33/7 11/34/7

vt -39.3701 -3.01735e-030
f 15/33/7 12/32/7 14/35/7

vn 1 0 -0
f 10/27/8 3/6/8 13/25/8

v 0.125 0.10625 -0.5
vt 19.685 4.18307
f 3/6/8 10/27/8 17/36/8

vt 10.4396 8.36614
vn 0.707107 0 -0.707107
v 0.5 0.10625 -0.125
vt -10.4396 4.18307
vt 10.4396 4.18307
f 10/37/9 18/38/9 17/39/9

vt -10.4396 8.36614
f 18/38/9 10/37/9 8/40/9

vn 0 0 -1
vt -19.685 4.18307
f 8/34/10 4/1/10 18/41/10

f 4/1/10 8/34/10 7/32/10

vt 39.3701 39.3701
f 1/42/3 18/10/3 4/12/3

f 3/17/3 18/10/3 1/42/3

f 18/10/3 3/17/3 17/14/3

