# Alias OBJ Model File
# Exported from SketchUp, (c) 2000-2012 Trimble Navigation Limited
# File units = meters

mtllib modularBuildings_077.mtl

g Mesh1 Group1 Model

usemtl Metal
v 0 0.5 -0
vt 0 19.685
vn -1 0 -0
v 0 0.445764 -0.0542359
vt -2.13527 17.5498
v 0 0 -0
vt 0 0
f 1/1/1 2/2/1 3/3/1

v 0 0.5 -0.25
vt -9.84252 19.685
f 2/2/1 1/1/1 4/4/1

v 0.05 0.5 -0
vt 1.9685 0
vn 0 1 -0
vt 0 9.84252
f 5/5/2 4/6/2 1/3/2

v 0.05 0.5 -0.25
vt 1.9685 9.84252
f 4/6/2 5/5/2 6/7/2

vn 1 0 -0
v 0.05 0 -0.25
vt 9.84252 0
vt 9.84252 19.685
f 5/1/3 7/8/3 6/9/3

v 0.05 0 -0
f 7/8/3 5/1/3 8/3/3

vt 1.9685 19.685
vn 0 0 1
f 5/10/4 3/3/4 8/5/4

f 3/3/4 5/10/4 1/1/4

vn 0 -1 -0
vt -1.9685 9.84252
vt -1.9685 0
f 3/3/5 7/11/5 8/12/5

v 0 0 -0.25
f 7/11/5 3/3/5 9/6/5

v 0 0.0542359 -0.0542359
vt -2.13527 2.13527
vt -9.84252 0
f 3/3/1 10/13/1 9/14/1

f 10/13/1 3/3/1 2/2/1

vt 0 17.5498
vn 0 0 -1
v 0.025 0.0542359 -0.0542359
vt -0.984252 2.13527
vt 0 2.13527
f 2/15/6 11/16/6 10/17/6

v 0.025 0.445764 -0.0542359
vt -0.984252 17.5498
f 11/16/6 2/15/6 12/18/6

v 0.025 0.445764 -0.195764
vt -0.984252 7.70725
f 2/17/5 13/19/5 12/16/5

v 0 0.445764 -0.195764
vt 0 7.70725
f 13/19/5 2/17/5 14/20/5

vt -7.70725 17.5498
f 2/2/1 4/4/1 14/21/1

v 0 0.0542359 -0.195764
vt -7.70725 2.13527
f 14/21/1 4/4/1 15/22/1

f 9/14/1 15/22/1 4/4/1

f 9/14/1 10/13/1 15/22/1

vt 0.984252 2.13527
vn 0 1 1.59401e-016
f 11/23/7 15/20/7 10/17/7

v 0.025 0.0542359 -0.195764
vt 0.984252 7.70725
f 15/20/7 11/23/7 16/24/7

usemtl Glass
f 11/13/1 13/21/1 16/22/1

f 13/21/1 11/13/1 12/2/1

usemtl Metal
vt 0.984252 17.5498
f 13/25/4 15/17/4 16/23/4

f 15/17/4 13/25/4 14/15/4

f 4/1/6 7/12/6 9/3/6

vt -1.9685 19.685
f 7/12/6 4/1/6 6/26/6

